<?xml version="1.0" encoding="UTF-8" standalone="no"?>
<svg width="22px" height="22px" viewBox="0 0 22 22" version="1.1" xmlns="http://www.w3.org/2000/svg" xmlns:xlink="http://www.w3.org/1999/xlink">
    <defs></defs>
    <g id="Page-1" stroke="none" stroke-width="1" fill="none" fill-rule="evenodd">
        <g id="attachment" fill="#000000">
            <path d="M13.9090909,6.09090909 L13.9090909,15.5 C13.9090909,17.3081818 12.6072727,18.7727273 11,18.7727273 C9.39272727,18.7727273 8.09090909,17.3081818 8.09090909,15.5 L8.09090909,5.27272727 C8.09090909,4.14363636 8.90545455,3.22727273 9.90909091,3.22727273 C10.9127273,3.22727273 11.7272727,4.14363636 11.7272727,5.27272727 L11.7272727,13.8636364 C11.7272727,14.3136364 11.4,14.6818182 11,14.6818182 C10.6,14.6818182 10.2727273,14.3136364 10.2727273,13.8636364 L10.2727273,6.09090909 L9.18181818,6.09090909 L9.18181818,13.8636364 C9.18181818,14.9927273 9.99636364,15.9090909 11,15.9090909 C12.0036364,15.9090909 12.8181818,14.9927273 12.8181818,13.8636364 L12.8181818,5.27272727 C12.8181818,3.46454545 11.5163636,2 9.90909091,2 C8.30181818,2 7,3.46454545 7,5.27272727 L7,15.5 C7,17.9872727 8.78909091,20 11,20 C13.2109091,20 15,17.9872727 15,15.5 L15,6.09090909 L13.9090909,6.09090909 L13.9090909,6.09090909 Z" id="Shape"></path>
        </g>
    </g>
</svg>