<?xml version="1.0" encoding="UTF-8" standalone="no"?>
<svg width="22px" height="22px" viewBox="0 0 22 22" version="1.1" xmlns="http://www.w3.org/2000/svg" xmlns:xlink="http://www.w3.org/1999/xlink">
    <defs></defs>
    <g id="Page-1" stroke="none" stroke-width="1" fill="none" fill-rule="evenodd">
        <g id="chevron-right" fill="#0A0B09">
            <g id="fa-angle-right" transform="translate(12.000000, 11.000000) rotate(-180.000000) translate(-12.000000, -11.000000) translate(8.000000, 4.000000)">
                <path d="M0.84,7.28 L6.676,13.116 C6.766,13.206 6.855,13.251 6.968,13.251 C7.057,13.251 7.17,13.206 7.259,13.116 L7.865,12.51 C7.955,12.42 8,12.33 8,12.218 C8,12.106 7.955,12.016 7.865,11.927 L2.95,7.011 L7.865,2.073 C7.955,2.005 8,1.893 8,1.781 C8,1.691 7.955,1.579 7.865,1.512 L7.259,0.883 C7.17,0.793 7.057,0.749 6.968,0.749 C6.855,0.749 6.766,0.793 6.676,0.883 L0.84,6.719 C0.75,6.786 0.705,6.899 0.705,7.011 C0.705,7.101 0.75,7.213 0.84,7.28" id="Fill-49"></path>
            </g>
        </g>
    </g>
</svg>