<?xml version="1.0" encoding="UTF-8" standalone="no"?>
<svg width="22px" height="22px" viewBox="0 0 22 22" version="1.1" xmlns="http://www.w3.org/2000/svg" xmlns:xlink="http://www.w3.org/1999/xlink" xmlns:sketch="http://www.bohemiancoding.com/sketch/ns">
    <!-- Generator: Sketch 3.3.3 (12081) - http://www.bohemiancoding.com/sketch -->
    <title>chevron-right</title>
    <desc>Created with Sketch.</desc>
    <defs></defs>
    <g id="Xceptor-Icons" stroke="none" stroke-width="1" fill="none" fill-rule="evenodd" sketch:type="MSPage">
        <g id="chevron-right" sketch:type="MSArtboardGroup" fill="#0A0B09">
            <g id="angle-right" sketch:type="MSLayerGroup" transform="translate(7.000000, 4.000000)">
                <path d="M0.740384615,13.9084615 L1.465,14.6076923 C1.54346154,14.7115385 1.67269231,14.7634615 1.77653846,14.7634615 C1.90576923,14.7634615 2.00961538,14.7115385 2.11230769,14.6076923 L8.84615385,7.87384615 C8.95,7.79653846 9.00192308,7.66730769 9.00192308,7.56346154 C9.00192308,7.43423077 8.95,7.305 8.84615385,7.22653846 L2.11230769,0.492692308 C2.00961538,0.39 1.90576923,0.338076923 1.77653846,0.338076923 C1.67269231,0.338076923 1.54346154,0.39 1.465,0.492692308 L0.740384615,1.21846154 C0.636538462,1.29576923 0.584615385,1.425 0.584615385,1.52884615 C0.584615385,1.65807692 0.636538462,1.78846154 0.740384615,1.86576923 L6.41153846,7.56346154 L0.740384615,13.2357692 C0.636538462,13.3384615 0.584615385,13.4423077 0.584615385,13.5715385 C0.584615385,13.7019231 0.636538462,13.8046154 0.740384615,13.9084615" id="Fill-63" sketch:type="MSShapeGroup"></path>
            </g>
        </g>
    </g>
</svg>