<?xml version="1.0" encoding="UTF-8" standalone="no"?>
<svg width="22px" height="22px" viewBox="0 0 22 22" version="1.1" xmlns="http://www.w3.org/2000/svg" xmlns:xlink="http://www.w3.org/1999/xlink">
    <defs></defs>
    <g id="Page-1" stroke="none" stroke-width="1" fill="none" fill-rule="evenodd">
        <g id="context-panel" fill="#000000">
            <path d="M13.6666667,19.1818182 L15.4444444,19.1818182 L15.4444444,17.3636364 L13.6666667,17.3636364 L13.6666667,19.1818182 L13.6666667,19.1818182 Z M17.2222222,8.27272727 L19,8.27272727 L19,6.45454545 L17.2222222,6.45454545 L17.2222222,8.27272727 L17.2222222,8.27272727 Z M3,4.63636364 L3,17.3636364 C3,18.3636364 3.8,19.1818182 4.77777778,19.1818182 L8.33333333,19.1818182 L8.33333333,17.3636364 L4.77777778,17.3636364 L4.77777778,4.63636364 L8.33333333,4.63636364 L8.33333333,2.81818182 L4.77777778,2.81818182 C3.8,2.81818182 3,3.63636364 3,4.63636364 L3,4.63636364 Z M17.2222222,2.81818182 L17.2222222,4.63636364 L19,4.63636364 C19,3.63636364 18.2,2.81818182 17.2222222,2.81818182 L17.2222222,2.81818182 Z M10.1111111,21 L11.8888889,21 L11.8888889,1 L10.1111111,1 L10.1111111,21 L10.1111111,21 Z M17.2222222,15.5454545 L19,15.5454545 L19,13.7272727 L17.2222222,13.7272727 L17.2222222,15.5454545 L17.2222222,15.5454545 Z M13.6666667,4.63636364 L15.4444444,4.63636364 L15.4444444,2.81818182 L13.6666667,2.81818182 L13.6666667,4.63636364 L13.6666667,4.63636364 Z M17.2222222,11.9090909 L19,11.9090909 L19,10.0909091 L17.2222222,10.0909091 L17.2222222,11.9090909 L17.2222222,11.9090909 Z M17.2222222,19.1818182 C18.2,19.1818182 19,18.3636364 19,17.3636364 L17.2222222,17.3636364 L17.2222222,19.1818182 L17.2222222,19.1818182 Z" id="Shape"></path>
        </g>
    </g>
</svg>