<?xml version="1.0" encoding="UTF-8" standalone="no"?>
<svg width="22px" height="22px" viewBox="0 0 22 22" version="1.1" xmlns="http://www.w3.org/2000/svg" xmlns:xlink="http://www.w3.org/1999/xlink">
    <defs></defs>
    <g id="Page-1" stroke="none" stroke-width="1" fill="none" fill-rule="evenodd">
        <g id="copy" fill="#000000">
            <path d="M14.5263158,1 L3.78947368,1 C2.80526316,1 2,1.77727273 2,2.72727273 L2,14.8181818 L3.78947368,14.8181818 L3.78947368,2.72727273 L14.5263158,2.72727273 L14.5263158,1 L14.5263158,1 Z M17.2105263,4.45454545 L7.36842105,4.45454545 C6.38421053,4.45454545 5.57894737,5.23181818 5.57894737,6.18181818 L5.57894737,18.2727273 C5.57894737,19.2227273 6.38421053,20 7.36842105,20 L17.2105263,20 C18.1947368,20 19,19.2227273 19,18.2727273 L19,6.18181818 C19,5.23181818 18.1947368,4.45454545 17.2105263,4.45454545 L17.2105263,4.45454545 Z M17.2105263,18.2727273 L7.36842105,18.2727273 L7.36842105,6.18181818 L17.2105263,6.18181818 L17.2105263,18.2727273 L17.2105263,18.2727273 Z" id="Shape"></path>
        </g>
    </g>
</svg>