<?xml version="1.0" encoding="UTF-8" standalone="no"?>
<svg width="22px" height="22px" viewBox="0 0 22 22" version="1.1" xmlns="http://www.w3.org/2000/svg" xmlns:xlink="http://www.w3.org/1999/xlink">
    <defs></defs>
    <g id="Page-1" stroke="none" stroke-width="1" fill="none" fill-rule="evenodd">
        <g id="created-date" fill="#000000">
            <path d="M18,3 L17,3 L17,1 L15,1 L15,3 L7,3 L7,1 L5,1 L5,3 L4,3 C2.89,3 2.01,3.9 2.01,5 L2,19 C2,20.1 2.89,21 4,21 L18,21 C19.1,21 20,20.1 20,19 L20,5 C20,3.9 19.1,3 18,3 L18,3 Z M18,19 L4,19 L4,8 L18,8 L18,19 L18,19 Z M6,10 L11,10 L11,15 L6,15 L6,10 Z" id="Shape"></path>
        </g>
    </g>
</svg>