<?xml version="1.0" encoding="UTF-8" standalone="no"?>
<svg width="22px" height="22px" viewBox="0 0 22 22" version="1.1" xmlns="http://www.w3.org/2000/svg" xmlns:xlink="http://www.w3.org/1999/xlink">
    <defs></defs>
    <g id="Page-1" stroke="none" stroke-width="1" fill="none" fill-rule="evenodd">
        <g id="delete" fill="#000000">
            <path d="M8.9657767,8.1092233 C8.9657767,7.70679612 8.63975728,7.38048544 8.23762136,7.38048544 C7.83548544,7.38048544 7.50946602,7.70679612 7.50946602,8.1092233 L7.50946602,16.9516019 C7.50946602,17.3540777 7.83548544,17.6803883 8.23762136,17.6803883 C8.63975728,17.6803883 8.9657767,17.3540777 8.9657767,16.9516019 L8.9657767,8.1092233 L8.9657767,8.1092233 Z M11.9107767,8.1092233 C11.9107767,7.70679612 11.5847573,7.38048544 11.1826214,7.38048544 C10.7804854,7.38048544 10.454466,7.70679612 10.454466,8.1092233 L10.454466,16.9516019 C10.454466,17.3540777 10.7804854,17.6803883 11.1826214,17.6803883 C11.5847573,17.6803883 11.9107767,17.3540777 11.9107767,16.9516019 L11.9107767,8.1092233 L11.9107767,8.1092233 Z M14.8557767,8.1092233 C14.8557767,7.70679612 14.5297573,7.38048544 14.1276214,7.38048544 C13.7254854,7.38048544 13.399466,7.70679612 13.399466,8.1092233 L13.399466,16.9516019 C13.399466,17.3540777 13.7254854,17.6803883 14.1276214,17.6803883 C14.5297573,17.6803883 14.8557767,17.3540777 14.8557767,16.9516019 L14.8557767,8.1092233 L14.8557767,8.1092233 Z M16.7813592,19.2998058 L5.5838835,19.2998058 L5.5838835,5.7611165 L3.88485437,5.7611165 L3.88485437,21 L18.4803883,21 L18.4803883,5.7611165 L16.7813592,5.7611165 L16.7813592,19.2998058 L16.7813592,19.2998058 Z M14.7566505,2.36029126 C14.0059709,2.36029126 13.3974272,1.75126214 13.3974272,1 L8.96781553,1 C8.96781553,1.75131068 8.35932039,2.36029126 7.60859223,2.36029126 L3,2.36029126 L3,4.30359223 L19.3652913,4.30359223 L19.3652913,2.36029126 L14.7566505,2.36029126 L14.7566505,2.36029126 Z" id="trash-can-2-icon"></path>
        </g>
    </g>
</svg>