<?xml version="1.0" encoding="UTF-8" standalone="no"?>
<svg width="22px" height="22px" viewBox="0 0 22 22" version="1.1" xmlns="http://www.w3.org/2000/svg" xmlns:xlink="http://www.w3.org/1999/xlink">
    <defs></defs>
    <g id="Page-1" stroke="none" stroke-width="1" fill="none" fill-rule="evenodd">
        <g id="delete1" fill="#000000">
            <path d="M5,20 L5,5 L3,5 L3,22 L19,22 L19,5 L17,5 L17,20 L5,20 Z M14.9323155,1.64704499 C14.106568,1.64704499 13.4371699,0.909630587 13.4371699,0 L8.56459709,0 C8.56459709,0.909689364 7.89525243,1.64704499 7.06945146,1.64704499 L2,1.64704499 L2,4 L20.0018204,4 L20.0018204,1.64704499 L14.9323155,1.64704499 L14.9323155,1.64704499 Z M14,7.50123084 C14,7.22440869 14.2319336,7 14.5,7 L14.5,7 C14.7761424,7 15,7.22975063 15,7.50123084 L15,17.4987692 C15,17.7755913 14.7680664,18 14.5,18 L14.5,18 C14.2238576,18 14,17.7702494 14,17.4987692 L14,7.50123084 Z M10.5,7.50123084 C10.5,7.22440869 10.7319336,7 11,7 L11,7 C11.2761424,7 11.5,7.22975063 11.5,7.50123084 L11.5,17.4987692 C11.5,17.7755913 11.2680664,18 11,18 L11,18 C10.7238576,18 10.5,17.7702494 10.5,17.4987692 L10.5,7.50123084 Z M7,7.50123084 C7,7.22440869 7.23193359,7 7.5,7 L7.5,7 C7.77614237,7 8,7.22975063 8,7.50123084 L8,17.4987692 C8,17.7755913 7.76806641,18 7.5,18 L7.5,18 C7.22385763,18 7,17.7702494 7,17.4987692 L7,7.50123084 Z" id="trash-can-2-icon"></path>
        </g>
    </g>
</svg>