<?xml version="1.0" encoding="UTF-8" standalone="no"?>
<svg width="22px" height="22px" viewBox="0 0 22 22" version="1.1" xmlns="http://www.w3.org/2000/svg" xmlns:xlink="http://www.w3.org/1999/xlink">
    <defs></defs>
    <g id="Page-1" stroke="none" stroke-width="1" fill="none" fill-rule="evenodd">
        <g id="delete" fill="#000000">
            <path d="M8.83261402,8.1092233 C8.83261402,7.70679612 8.51387171,7.38048544 8.1207119,7.38048544 C7.72755209,7.38048544 7.40880979,7.70679612 7.40880979,8.1092233 L7.40880979,16.9516019 C7.40880979,17.3540777 7.72755209,17.6803883 8.1207119,17.6803883 C8.51387171,17.6803883 8.83261402,17.3540777 8.83261402,16.9516019 L8.83261402,8.1092233 L8.83261402,8.1092233 Z M11.7118784,8.1092233 C11.7118784,7.70679612 11.3931361,7.38048544 10.9999763,7.38048544 C10.6068165,7.38048544 10.2880742,7.70679612 10.2880742,8.1092233 L10.2880742,16.9516019 C10.2880742,17.3540777 10.6068165,17.6803883 10.9999763,17.6803883 C11.3931361,17.6803883 11.7118784,17.3540777 11.7118784,16.9516019 L11.7118784,8.1092233 L11.7118784,8.1092233 Z M14.5911428,8.1092233 C14.5911428,7.70679612 14.2724004,7.38048544 13.8792406,7.38048544 C13.4860808,7.38048544 13.1673385,7.70679612 13.1673385,8.1092233 L13.1673385,16.9516019 C13.1673385,17.3540777 13.4860808,17.6803883 13.8792406,17.6803883 C14.2724004,17.6803883 14.5911428,17.3540777 14.5911428,16.9516019 L14.5911428,8.1092233 L14.5911428,8.1092233 Z M16.4737442,19.2998058 L5.52620838,19.2998058 L5.52620838,5.7611165 L3.86510345,5.7611165 L3.86510345,21 L18.1348491,21 L18.1348491,5.7611165 L16.4737442,5.7611165 L16.4737442,19.2998058 L16.4737442,19.2998058 Z M14.4942291,2.36029126 C13.7603055,2.36029126 13.1653452,1.75126214 13.1653452,1 L8.83460734,1 C8.83460734,1.75131068 8.23969448,2.36029126 7.5057234,2.36029126 L3,2.36029126 L3,4.30359223 L19,4.30359223 L19,2.36029126 L14.4942291,2.36029126 L14.4942291,2.36029126 Z" id="trash-can-2-icon"></path>
        </g>
    </g>
</svg>