<?xml version="1.0" encoding="UTF-8" standalone="no"?>
<svg width="22px" height="22px" viewBox="0 0 22 22" version="1.1" xmlns="http://www.w3.org/2000/svg" xmlns:xlink="http://www.w3.org/1999/xlink" xmlns:sketch="http://www.bohemiancoding.com/sketch/ns">
    <!-- Generator: Sketch 3.3.3 (12081) - http://www.bohemiancoding.com/sketch -->
    <title>dropdown</title>
    <desc>Created with Sketch.</desc>
    <defs></defs>
    <g id="Xceptor-Icons" stroke="none" stroke-width="1" fill="none" fill-rule="evenodd" sketch:type="MSPage">
        <g id="dropdown" sketch:type="MSArtboardGroup" fill="#0A0B09">
            <g id="caret-down" sketch:type="MSLayerGroup" transform="translate(5.000000, 9.000000)">
                <path d="M0.323,0.902 L5.935,6.491 C6.092,6.648 6.271,6.738 6.496,6.738 C6.698,6.738 6.9,6.648 7.057,6.491 L12.668,0.902 C12.825,0.745 12.893,0.543 12.893,0.341 C12.893,0.117 12.825,-0.063 12.668,-0.22 C12.511,-0.377 12.309,-0.467 12.107,-0.467 L0.884,-0.467 C0.66,-0.467 0.48,-0.377 0.323,-0.22 C0.166,-0.063 0.076,0.117 0.076,0.341 C0.076,0.543 0.166,0.745 0.323,0.902" id="Fill-202" sketch:type="MSShapeGroup"></path>
            </g>
        </g>
    </g>
</svg>