<?xml version="1.0" encoding="UTF-8" standalone="no"?>
<svg width="22px" height="22px" viewBox="0 0 22 22" version="1.1" xmlns="http://www.w3.org/2000/svg" xmlns:xlink="http://www.w3.org/1999/xlink">
    <defs></defs>
    <g id="Page-1" stroke="none" stroke-width="1" fill="none" fill-rule="evenodd">
        <g id="dropdown" fill="#0A0B09">
            <path d="M11,19 C12.1045695,19 13,18.1045695 13,17 C13,15.8954305 12.1045695,15 11,15 C9.8954305,15 9,15.8954305 9,17 C9,18.1045695 9.8954305,19 11,19 Z M11,13 C12.1045695,13 13,12.1045695 13,11 C13,9.8954305 12.1045695,9 11,9 C9.8954305,9 9,9.8954305 9,11 C9,12.1045695 9.8954305,13 11,13 Z M11,7 C12.1045695,7 13,6.1045695 13,5 C13,3.8954305 12.1045695,3 11,3 C9.8954305,3 9,3.8954305 9,5 C9,6.1045695 9.8954305,7 11,7 Z" id="more-vert-2"></path>
        </g>
    </g>
</svg>