<?xml version="1.0" encoding="UTF-8" standalone="no"?>
<svg width="22px" height="22px" viewBox="0 0 22 22" version="1.1" xmlns="http://www.w3.org/2000/svg" xmlns:xlink="http://www.w3.org/1999/xlink">
    <defs></defs>
    <g id="Page-1" stroke="none" stroke-width="1" fill="none" fill-rule="evenodd">
        <g id="enrichment-aggregation" fill="#444444">
            <path d="M20.3103448,15.0689655 L20.3103448,18.5172414 C20.3103448,18.8048276 20.2096552,19.0489655 20.0082759,19.2496552 C19.8068966,19.4503448 19.5627586,19.5510345 19.2758621,19.5517241 L15.8275862,19.5517241 C15.54,19.5517241 15.2958621,19.4510345 15.0951724,19.2496552 C14.8944828,19.0482759 14.7937931,18.8041379 14.7931034,18.5172414 L14.7931034,15.0689655 C14.7931034,14.7813793 14.8937931,14.5372414 15.0951724,14.3365517 C15.2965517,14.1358621 15.5406897,14.0351724 15.8275862,14.0344828 L16.862069,14.0344828 L16.862069,11.9655172 L11.3448276,11.9655172 L11.3448276,14.0344828 L12.3793103,14.0344828 C12.6668966,14.0344828 12.9110345,14.1351724 13.1117241,14.3365517 C13.3124138,14.537931 13.4131034,14.782069 13.4137931,15.0689655 L13.4137931,18.5172414 C13.4137931,18.8048276 13.3131034,19.0489655 13.1117241,19.2496552 C12.9103448,19.4503448 12.6662069,19.5510345 12.3793103,19.5517241 L8.93103448,19.5517241 C8.64344828,19.5517241 8.39931034,19.4510345 8.19862069,19.2496552 C7.99793103,19.0482759 7.89724138,18.8041379 7.89655172,18.5172414 L7.89655172,15.0689655 C7.89655172,14.7813793 7.99724138,14.5372414 8.19862069,14.3365517 C8.4,14.1358621 8.64413793,14.0351724 8.93103448,14.0344828 L9.96551724,14.0344828 L9.96551724,11.9655172 L4.44827586,11.9655172 L4.44827586,14.0344828 L5.48275862,14.0344828 C5.77034483,14.0344828 6.01448276,14.1351724 6.21517241,14.3365517 C6.41586207,14.537931 6.51655172,14.782069 6.51655172,15.0689655 L6.51655172,18.5172414 C6.51655172,18.8048276 6.41586207,19.0489655 6.21517241,19.2496552 C6.01448276,19.4503448 5.77034483,19.5510345 5.48275862,19.5517241 L2.03448276,19.5517241 C1.74689655,19.5517241 1.50275862,19.4510345 1.30206897,19.2496552 C1.10137931,19.0482759 1.00068966,18.8041379 1,18.5172414 L1,15.0689655 C1,14.7813793 1.10068966,14.5372414 1.30206897,14.3365517 C1.50344828,14.1358621 1.74758621,14.0351724 2.03448276,14.0344828 L3.06896552,14.0344828 L3.06896552,11.9655172 C3.06896552,11.5924138 3.20551724,11.2689655 3.47862069,10.9958621 C3.75172414,10.7227586 4.07517241,10.5862069 4.44827586,10.5862069 L9.96551724,10.5862069 L9.96551724,8.51724138 L8.93103448,8.51724138 C8.64344828,8.51724138 8.39931034,8.41655172 8.19862069,8.21517241 C7.99793103,8.0137931 7.89724138,7.76965517 7.89655172,7.48275862 L7.89655172,4.03448276 C7.89655172,3.74689655 7.99724138,3.50275862 8.19862069,3.30206897 C8.4,3.10137931 8.64413793,3.00068966 8.93103448,3 L12.3793103,3 C12.6668966,3 12.9110345,3.10068966 13.1117241,3.30206897 C13.3124138,3.50344828 13.4131034,3.74758621 13.4137931,4.03448276 L13.4137931,7.48275862 C13.4137931,7.77034483 13.3131034,8.01448276 13.1117241,8.21517241 C12.9103448,8.41586207 12.6662069,8.51655172 12.3793103,8.51724138 L11.3448276,8.51724138 L11.3448276,10.5862069 L16.862069,10.5862069 C17.2351724,10.5862069 17.5586207,10.7227586 17.8317241,10.9958621 C18.1048276,11.2689655 18.2413793,11.5924138 18.2413793,11.9655172 L18.2413793,14.0344828 L19.2758621,14.0344828 C19.5634483,14.0344828 19.8075862,14.1351724 20.0082759,14.3365517 C20.2089655,14.537931 20.3096552,14.782069 20.3103448,15.0689655" id="Imported-Layers" transform="translate(11.000000, 11.275862) rotate(90.000000) translate(-11.000000, -11.275862) "></path>
        </g>
    </g>
</svg>