<?xml version="1.0" encoding="UTF-8" standalone="no"?>
<svg width="22px" height="22px" viewBox="0 0 22 22" version="1.1" xmlns="http://www.w3.org/2000/svg" xmlns:xlink="http://www.w3.org/1999/xlink">
    <defs></defs>
    <g id="Page-1" stroke="none" stroke-width="1" fill="none" fill-rule="evenodd">
        <g id="enrichment-pivot-data" fill="#444444">
            <path d="M17.373418,7.72281818 C17.2279736,8.02031818 16.9930847,8.16945455 16.6687513,8.16945455 L14.335418,8.16945455 L14.335418,18.6012727 C14.335418,18.7140909 14.2988624,18.8068182 14.2257513,18.8786818 C14.1526402,18.9505455 14.0593069,18.9868636 13.9465291,18.9876364 L5.39097356,18.9876364 C5.22064022,18.9876364 5.10319578,18.915 5.03864022,18.7705 C4.97408467,18.609 4.990418,18.4683636 5.08764022,18.3478182 L7.03208467,16.0296364 C7.10519578,15.9407727 7.20630689,15.8967273 7.33619578,15.8967273 L11.2250847,15.8967273 L11.2250847,8.16945455 L8.89175134,8.16945455 C8.567418,8.16945455 8.33252911,8.02031818 8.18708467,7.72281818 C8.049418,7.42531818 8.08597356,7.15177273 8.29675134,6.90218182 L12.1856402,2.26581818 C12.3310847,2.08886364 12.5301958,2 12.781418,2 C13.0326402,2 13.2317513,2.08886364 13.3771958,2.26581818 L17.2660847,6.90218182 C17.4846402,7.1595 17.5211958,7.43304545 17.3757513,7.72281818 L17.373418,7.72281818" id="Imported-Layers"></path>
        </g>
    </g>
</svg>