<?xml version="1.0" encoding="UTF-8" standalone="no"?>
<svg width="22px" height="22px" viewBox="0 0 22 22" version="1.1" xmlns="http://www.w3.org/2000/svg" xmlns:xlink="http://www.w3.org/1999/xlink">
    <defs></defs>
    <g id="Page-1" stroke="none" stroke-width="1" fill="none" fill-rule="evenodd">
        <g id="enrichment-data-lookup-value-old" fill="#000000">
            <path d="M19.2541923,12.44 C19.2541923,12.47744 19.2505385,12.50336 19.2425,12.51848 C18.7550769,14.52872 17.7349231,16.15808 16.1820385,17.40656 C14.6291538,18.65504 12.8095385,19.27928 10.7239231,19.28 C9.61242308,19.28 8.53746154,19.07408 7.49830769,18.66152 C6.45915385,18.24896 5.53253846,17.66072 4.71773077,16.89536 L3.2445,18.34688 C3.09980769,18.48944 2.92880769,18.56072 2.73076923,18.56072 C2.53273077,18.56072 2.36173077,18.48944 2.21703846,18.34688 C2.07234615,18.20432 2,18.03584 2,17.84072 L2,12.80072 C2,12.6056 2.07234615,12.43712 2.21703846,12.29456 C2.36173077,12.152 2.53273077,12.08072 2.73076923,12.08072 L7.84615385,12.08072 C8.04419231,12.08072 8.21519231,12.152 8.35988462,12.29456 C8.50457692,12.43712 8.57692308,12.6056 8.57692308,12.80072 C8.57692308,12.99584 8.50457692,13.16432 8.35988462,13.30688 L6.79530769,14.8484 C7.33534615,15.34304 7.94846154,15.72608 8.63392308,15.99608 C9.31938462,16.26608 10.0311538,16.40144 10.7692308,16.40072 C11.7893846,16.40072 12.7408462,16.15664 13.6236154,15.6692 C14.5063846,15.18176 15.2145,14.51 15.7472308,13.65536 C15.8312692,13.52792 16.0329615,13.08872 16.3523077,12.3392 C16.4129615,12.16712 16.5276923,12.08072 16.6950385,12.08072 L18.8873462,12.08072 C18.986,12.08072 19.0722308,12.116 19.1445769,12.18728 C19.2169231,12.25856 19.2534615,12.3428 19.2527308,12.44072 L19.2541923,12.44 L19.2541923,12.44 Z M19.5399231,3.44 L19.5399231,8.48 C19.5399231,8.67512 19.4675769,8.8436 19.3228846,8.98616 C19.1781923,9.12872 19.0071923,9.2 18.8091538,9.2 L13.6937692,9.2 C13.4957308,9.2 13.3247308,9.12872 13.1800385,8.98616 C13.0353462,8.8436 12.963,8.67512 12.963,8.48 C12.963,8.28488 13.0353462,8.1164 13.1800385,7.97384 L14.7555769,6.42152 C13.6294615,5.39408 12.3009231,4.88 10.7706923,4.88 C9.75053846,4.88 8.79907692,5.12408 7.91630769,5.61152 C7.03353846,6.09896 6.32542308,6.77072 5.79269231,7.62536 C5.70865385,7.7528 5.50696154,8.192 5.18761538,8.94152 C5.12696154,9.1136 5.01223077,9.2 4.84488462,9.2 L2.57292308,9.2 C2.47426923,9.2 2.38803846,9.16472 2.31569231,9.09344 C2.24334615,9.02216 2.20680769,8.93792 2.20753846,8.84 L2.20753846,8.76152 C2.70226923,6.75128 3.73046154,5.12192 5.29065385,3.87344 C6.85084615,2.62496 8.67776923,2.00072 10.7714231,2 C11.8829231,2 12.9637308,2.20808 14.0145769,2.62424 C15.0654231,3.0404 15.9978846,3.6272 16.8119615,4.38464 L18.2961538,2.93312 C18.4408462,2.79056 18.6118462,2.71928 18.8098846,2.71928 C19.0079231,2.71928 19.1789231,2.79056 19.3236154,2.93312 C19.4683077,3.07568 19.5406538,3.24416 19.5406538,3.43928 L19.5399231,3.44 L19.5399231,3.44 Z" id="Imported-Layers"></path>
        </g>
    </g>
</svg>