<?xml version="1.0" encoding="UTF-8" standalone="no"?>
<svg width="22px" height="22px" viewBox="0 0 22 22" version="1.1" xmlns="http://www.w3.org/2000/svg" xmlns:xlink="http://www.w3.org/1999/xlink">
    <defs></defs>
    <g id="Page-1" stroke="none" stroke-width="1" fill="none" fill-rule="evenodd">
        <g id="enrichment-aggregation-old" fill="#000000">
            <path d="M20.9310345,18.3965517 C20.9310345,18.6841379 20.8303448,18.9282759 20.6289655,19.1289655 C20.4275862,19.3296552 20.1834483,19.4303448 19.8965517,19.4310345 L16.4482759,19.4310345 C16.1606897,19.4310345 15.9165517,19.3303448 15.7158621,19.1289655 C15.5151724,18.9275862 15.4144828,18.6834483 15.4137931,18.3965517 L15.4137931,14.9482759 C15.4137931,14.6606897 15.5144828,14.4165517 15.7158621,14.2158621 C15.9172414,14.0151724 16.1613793,13.9144828 16.4482759,13.9137931 L17.4827586,13.9137931 L17.4827586,11.8448276 L11.9655172,11.8448276 L11.9655172,13.9137931 L13,13.9137931 C13.2875862,13.9137931 13.5317241,14.0144828 13.7324138,14.2158621 C13.9331034,14.4172414 14.0337931,14.6613793 14.0344828,14.9482759 L14.0344828,18.3965517 C14.0344828,18.6841379 13.9337931,18.9282759 13.7324138,19.1289655 C13.5310345,19.3296552 13.2868966,19.4303448 13,19.4310345 L9.55172414,19.4310345 C9.26413793,19.4310345 9.02,19.3303448 8.81931034,19.1289655 C8.61862069,18.9275862 8.51793103,18.6834483 8.51724138,18.3965517 L8.51724138,14.9482759 C8.51724138,14.6606897 8.61793103,14.4165517 8.81931034,14.2158621 C9.02068966,14.0151724 9.26482759,13.9144828 9.55172414,13.9137931 L10.5862069,13.9137931 L10.5862069,11.8448276 L5.06896552,11.8448276 L5.06896552,13.9137931 L6.10344828,13.9137931 C6.39103448,13.9137931 6.63517241,14.0144828 6.83586207,14.2158621 C7.03655172,14.4172414 7.13724138,14.6613793 7.13724138,14.9482759 L7.13724138,18.3965517 C7.13724138,18.6841379 7.03655172,18.9282759 6.83586207,19.1289655 C6.63517241,19.3296552 6.39103448,19.4303448 6.10344828,19.4310345 L2.65517241,19.4310345 C2.36758621,19.4310345 2.12344828,19.3303448 1.92275862,19.1289655 C1.72206897,18.9275862 1.62137931,18.6834483 1.62068966,18.3965517 L1.62068966,14.9482759 C1.62068966,14.6606897 1.72137931,14.4165517 1.92275862,14.2158621 C2.12413793,14.0151724 2.36827586,13.9144828 2.65517241,13.9137931 L3.68965517,13.9137931 L3.68965517,11.8448276 C3.68965517,11.4717241 3.8262069,11.1482759 4.09931034,10.8751724 C4.37241379,10.602069 4.69586207,10.4655172 5.06896552,10.4655172 L10.5862069,10.4655172 L10.5862069,8.39655172 L9.55172414,8.39655172 C9.26413793,8.39655172 9.02,8.29586207 8.81931034,8.09448276 C8.61862069,7.89310345 8.51793103,7.64896552 8.51724138,7.36206897 L8.51724138,3.9137931 C8.51724138,3.6262069 8.61793103,3.38206897 8.81931034,3.18137931 C9.02068966,2.98068966 9.26482759,2.88 9.55172414,2.87931034 L13,2.87931034 C13.2875862,2.87931034 13.5317241,2.98 13.7324138,3.18137931 C13.9331034,3.38275862 14.0337931,3.62689655 14.0344828,3.9137931 L14.0344828,7.36206897 C14.0344828,7.64965517 13.9337931,7.8937931 13.7324138,8.09448276 C13.5310345,8.29517241 13.2868966,8.39586207 13,8.39655172 L11.9655172,8.39655172 L11.9655172,10.4655172 L17.4827586,10.4655172 C17.8558621,10.4655172 18.1793103,10.602069 18.4524138,10.8751724 C18.7255172,11.1482759 18.862069,11.4717241 18.862069,11.8448276 L18.862069,13.9137931 L19.8965517,13.9137931 C20.1841379,13.9137931 20.4282759,14.0144828 20.6289655,14.2158621 C20.8296552,14.4172414 20.9303448,14.6613793 20.9310345,14.9482759 L20.9310345,18.3965517 Z" id="Imported-Layers" transform="translate(11.275862, 11.155172) rotate(90.000000) translate(-11.275862, -11.155172) "></path>
        </g>
    </g>
</svg>