<?xml version="1.0" encoding="UTF-8" standalone="no"?>
<svg width="22px" height="22px" viewBox="0 0 22 22" version="1.1" xmlns="http://www.w3.org/2000/svg" xmlns:xlink="http://www.w3.org/1999/xlink">
    <defs></defs>
    <g id="Page-1" stroke="none" stroke-width="1" fill="none" fill-rule="evenodd">
        <g id="enrichment-reference-data-lookup" fill="#000000">
            <path d="M16.01,13 L15.21,13 L14.94,12.73 C15.92,11.59 16.51,10.12 16.51,8.5 C16.51,4.91 13.6,2 10.01,2 C6.42,2 3.51,5 3.51,8.5 L1,8.5 L4.84,12.5 L9,8.5 L5.51,8.5 C5.51,6 7.53,4 10.01,4 C12.49,4 14.51,6.01 14.51,8.5 C14.51,10.98 12.49,13 10.01,13 C9.36,13 8.75,12.86 8.19,12.62 L6.71,14.1 C7.68,14.67 8.8,15 10.01,15 C11.62,15 13.09,14.41 14.23,13.43 L14.5,13.7 L14.5,14.49 L19.51,19.48 L21,18 L16.01,13 L16.01,13 Z" id="Shape"></path>
        </g>
    </g>
</svg>