<?xml version="1.0" encoding="UTF-8" standalone="no"?>
<svg width="22px" height="22px" viewBox="0 0 22 22" version="1.1" xmlns="http://www.w3.org/2000/svg" xmlns:xlink="http://www.w3.org/1999/xlink">
    <defs></defs>
    <g id="Page-1" stroke="none" stroke-width="1" fill="none" fill-rule="evenodd">
        <g id="enrichment-data-lookup-value" fill="#000000">
            <path d="M9,4 C10.38,4 11.63,4.56 12.54,5.46 L10,8 L16,8 L16,2 L13.95,4.05 C12.68,2.78 10.93,2 9,2 C5.47,2 2.57,4.61 2.08,8 L4.1,8 C4.56,5.72 6.58,4 9,4 L9,4 Z M14.64,13.14 C15.3,12.24 15.76,11.17 15.92,10 L13.9,10 C13.44,12.28 11.42,14 9,14 C7.62,14 6.37,13.44 5.46,12.54 L8,10 L2,10 L2,16 L4.05,13.95 C5.32,15.22 7.07,16 9,16 C10.55,16 11.98,15.49 13.14,14.64 L18,19.49 L19.49,18 L14.64,13.14 L14.64,13.14 Z" id="Shape"></path>
        </g>
    </g>
</svg>