<?xml version="1.0" encoding="UTF-8" standalone="no"?>
<svg width="22px" height="22px" viewBox="0 0 22 22" version="1.1" xmlns="http://www.w3.org/2000/svg" xmlns:xlink="http://www.w3.org/1999/xlink">
    <defs></defs>
    <g id="Page-1" stroke="none" stroke-width="1" fill="none" fill-rule="evenodd">
        <g id="enrichment-data-lookup-value" fill="#000000">
            <path d="M11,5 L11,8 L15,4 L11,0 L11,3 C6.58,3 3,6.58 3,11 C3,12.57 3.46,14.03 4.24,15.26 L5.7,13.8 C5.25,12.97 5,12.01 5,11 C5,7.69 7.69,5 11,5 L11,5 Z M17.76,6.74 L16.3,8.2 C16.74,9.04 17,9.99 17,11 C17,14.31 14.31,17 11,17 L11,14 L7,18 L11,22 L11,19 C15.42,19 19,15.42 19,11 C19,9.43 18.54,7.97 17.76,6.74 L17.76,6.74 Z" id="Shape"></path>
        </g>
    </g>
</svg>