<?xml version="1.0" encoding="UTF-8" standalone="no"?>
<svg width="22px" height="22px" viewBox="0 0 22 22" version="1.1" xmlns="http://www.w3.org/2000/svg" xmlns:xlink="http://www.w3.org/1999/xlink">
    <defs></defs>
    <g id="Page-1" stroke="none" stroke-width="1" fill="none" fill-rule="evenodd">
        <g id="enrichment-aggregation" fill="#000000">
            <path d="M19.41,8.59 L17.11,6.29 L20,3.42 L18.58,2 L15.71,4.89 L13.41,2.59 L13.41,8.59 L19.41,8.59 Z M8.59,2.59 L6.29,4.89 L3.42,2 L2,3.42 L4.89,6.29 L2.59,8.59 L8.59,8.59 L8.59,2.59 Z M2.59,13.41 L4.89,15.71 L2,18.58 L3.42,20 L6.29,17.11 L8.59,19.41 L8.59,13.41 L2.59,13.41 Z M13.41,19.41 L15.71,17.11 L18.58,20 L20,18.58 L17.11,15.71 L19.41,13.41 L13.41,13.41 L13.41,19.41 Z" id="Shape"></path>
        </g>
    </g>
</svg>