<?xml version="1.0" encoding="UTF-8" standalone="no"?>
<svg width="22px" height="22px" viewBox="0 0 22 22" version="1.1" xmlns="http://www.w3.org/2000/svg" xmlns:xlink="http://www.w3.org/1999/xlink">
    <defs></defs>
    <g id="Page-1" stroke="none" stroke-width="1" fill="none" fill-rule="evenodd">
        <g id="enrichment-cross-reference" fill="#000000">
            <path d="M18.9986682,4.33 L18.9986682,8.99666667 C18.9986682,9.17733333 18.9326682,9.33333333 18.8006682,9.46533333 C18.6686682,9.59733333 18.5126682,9.66333333 18.3320016,9.66333333 L13.6653349,9.66333333 C13.3740016,9.66333333 13.1686682,9.52466667 13.0506682,9.24666667 C12.9326682,8.976 12.9813349,8.73666667 13.1966682,8.528 L14.6340016,7.09066667 C13.6066682,6.13933333 12.3946682,5.66333333 10.9986682,5.66333333 C10.2766682,5.66333333 9.5873349,5.804 8.93066823,6.08533333 C8.27400157,6.36666667 7.70666823,6.74666667 7.2273349,7.226 C6.74800157,7.70533333 6.36800157,8.27266667 6.08666823,8.92933333 C5.8053349,9.586 5.66466823,10.2753333 5.66466823,10.9973333 C5.66466823,11.7193333 5.8053349,12.4086667 6.08666823,13.0653333 C6.36800157,13.722 6.74800157,14.2893333 7.2273349,14.7686667 C7.70666823,15.248 8.27400157,15.628 8.93066823,15.9093333 C9.5873349,16.1906667 10.2766682,16.3313333 10.9986682,16.3313333 C11.8246682,16.3313333 12.6060016,16.1506667 13.3426682,15.79 C14.0793349,15.4293333 14.7006682,14.9186667 15.2073349,14.2586667 C15.2560016,14.1893333 15.3353349,14.148 15.4466682,14.134 C15.5440016,14.134 15.6306682,14.1653333 15.7073349,14.228 L17.1346682,15.6653333 C17.1973349,15.7206667 17.2300016,15.792 17.2333349,15.8786667 C17.2366682,15.9653333 17.2106682,16.0433333 17.1553349,16.1133333 C16.3986682,17.03 15.4820016,17.74 14.4053349,18.2433333 C13.3286682,18.7466667 12.1933349,18.998 10.9993349,18.9986667 C9.91600157,18.9986667 8.8813349,18.7866667 7.8953349,18.3633333 C6.9093349,17.94 6.05866823,17.3706667 5.3433349,16.6553333 C4.62800157,15.94 4.05866823,15.0893333 3.6353349,14.1033333 C3.21200157,13.1173333 3.00066823,12.0826667 3.00000157,10.9993333 C2.9993349,9.916 3.2113349,8.88133333 3.6353349,7.89533333 C4.0593349,6.90933333 4.62866823,6.05866667 5.3433349,5.34333333 C6.05800157,4.628 6.90866823,4.05866667 7.8953349,3.63533333 C8.88200157,3.212 9.91666823,3 10.9993349,3 C12.0200016,3 13.0080016,3.19266667 13.9626682,3.578 C14.9173349,3.96333333 15.7660016,4.50666667 16.5093349,5.208 L17.8633349,3.864 C18.0646682,3.64866667 18.3080016,3.6 18.5926682,3.718 C18.8633349,3.836 18.9986682,4.04133333 18.9986682,4.33266667 L18.9986682,4.33" id="Imported-Layers" transform="translate(11.000000, 11.333333) scale(-1, 1) translate(-11.000000, -11.333333) "></path>
        </g>
    </g>
</svg>