<?xml version="1.0" encoding="UTF-8" standalone="no"?>
<svg width="22px" height="22px" viewBox="0 0 22 22" version="1.1" xmlns="http://www.w3.org/2000/svg" xmlns:xlink="http://www.w3.org/1999/xlink">
    <defs></defs>
    <g id="Page-1" stroke="none" stroke-width="1" fill="none" fill-rule="evenodd">
        <g id="enrichment-split-repeating-groups-old" fill="#0288D1">
            <path d="M20.5683327,14.9262495 L20.5683327,18.4970827 C20.5683327,18.7948902 20.4640643,19.0477052 20.2555277,19.2555277 C20.046991,19.4633502 19.794176,19.5676185 19.4970827,19.5683327 L15.9262495,19.5683327 C15.628442,19.5683327 15.375627,19.4640643 15.1678045,19.2555277 C14.959982,19.046991 14.8557137,18.794176 14.8549995,18.4970827 L14.8549995,14.9262495 C14.8549995,14.628442 14.9592679,14.375627 15.1678045,14.1678045 C15.3763412,13.959982 15.6291562,13.8557137 15.9262495,13.8549995 L16.9974995,13.8549995 L16.9974995,11.7124996 L11.2841663,11.7124996 L11.2841663,13.8549995 L12.3554163,13.8549995 C12.6532238,13.8549995 12.9060388,13.9592679 13.1138613,14.1678045 C13.3216838,14.3763412 13.4259521,14.6291562 13.4266663,14.9262495 L13.4266663,18.4970827 C13.4266663,18.7948902 13.3223979,19.0477052 13.1138613,19.2555277 C12.9053246,19.4633502 12.6525096,19.5676185 12.3554163,19.5683327 L8.78458309,19.5683327 C8.4867756,19.5683327 8.23396061,19.4640643 8.02613812,19.2555277 C7.81831563,19.046991 7.7140473,18.794176 7.71333313,18.4970827 L7.71333313,14.9262495 C7.71333313,14.628442 7.81760146,14.375627 8.02613812,14.1678045 C8.23467478,13.959982 8.48748977,13.8557137 8.78458309,13.8549995 L9.85583305,13.8549995 L9.85583305,11.7124996 L4.14249992,11.7124996 L4.14249992,13.8549995 L5.21374989,13.8549995 C5.51155737,13.8549995 5.76437237,13.9592679 5.97219486,14.1678045 C6.18001735,14.3763412 6.28428568,14.6291562 6.28428568,14.9262495 L6.28428568,18.4970827 C6.28428568,18.7948902 6.18001735,19.0477052 5.97219486,19.2555277 C5.76437237,19.4633502 5.51155737,19.5676185 5.21374989,19.5683327 L1.64291668,19.5683327 C1.34510919,19.5683327 1.0922942,19.4640643 0.884471706,19.2555277 C0.676649214,19.046991 0.572380884,18.794176 0.571666718,18.4970827 L0.571666718,14.9262495 C0.571666718,14.628442 0.675935047,14.375627 0.884471706,14.1678045 C1.09300837,13.959982 1.34582336,13.8557137 1.64291668,13.8549995 L2.71416664,13.8549995 L2.71416664,11.7124996 C2.71416664,11.3261355 2.85557164,10.9911913 3.13838163,10.7083813 C3.42119162,10.4255713 3.75613577,10.2841663 4.14249992,10.2841663 L9.85583305,10.2841663 L9.85583305,8.14166641 L8.78458309,8.14166641 C8.4867756,8.14166641 8.23396061,8.03739808 8.02613812,7.82886142 C7.81831563,7.62032476 7.7140473,7.36750977 7.71333313,7.07041645 L7.71333313,3.49958324 C7.71333313,3.20177575 7.81760146,2.94896076 8.02613812,2.74113827 C8.23467478,2.53331578 8.48748977,2.42904745 8.78458309,2.42833328 L12.3554163,2.42833328 C12.6532238,2.42833328 12.9060388,2.53260161 13.1138613,2.74113827 C13.3216838,2.94967493 13.4259521,3.20248992 13.4266663,3.49958324 L13.4266663,7.07041645 C13.4266663,7.36822394 13.3223979,7.62103893 13.1138613,7.82886142 C12.9053246,8.03668392 12.6525096,8.14095225 12.3554163,8.14166641 L11.2841663,8.14166641 L11.2841663,10.2841663 L16.9974995,10.2841663 C17.3838636,10.2841663 17.7188078,10.4255713 18.0016178,10.7083813 C18.2844278,10.9911913 18.4258327,11.3261355 18.4258327,11.7124996 L18.4258327,13.8549995 L19.4970827,13.8549995 C19.7948902,13.8549995 20.0477052,13.9592679 20.2555277,14.1678045 C20.4633502,14.3763412 20.5676185,14.6291562 20.5683327,14.9262495" id="Imported-Layers" transform="translate(10.570000, 10.998333) rotate(-90.000000) translate(-10.570000, -10.998333) "></path>
        </g>
    </g>
</svg>