<?xml version="1.0" encoding="UTF-8" standalone="no"?>
<svg width="22px" height="22px" viewBox="0 0 22 22" version="1.1" xmlns="http://www.w3.org/2000/svg" xmlns:xlink="http://www.w3.org/1999/xlink">
    <defs></defs>
    <g id="Page-1" stroke="none" stroke-width="1" fill="none" fill-rule="evenodd">
        <g id="error" fill="#000000">
            <path d="M10.2203398,9.44064426 L11.7796117,9.44064426 L11.7796117,14.1696731 L10.2203398,14.1696731 L10.2203398,9.44064426 L10.2203398,9.44064426 Z M11,16.6087241 C10.5352427,16.6087241 10.1585437,16.2319882 10.1585437,15.7672938 C10.1585437,15.3025508 10.5352427,14.9258149 11,14.9258149 C11.4647087,14.9258149 11.8414563,15.3025508 11.8414563,15.7672938 C11.8414563,16.2319882 11.4647087,16.6087241 11,16.6087241 L11,16.6087241 Z M11,2 L1,19.3199997 L21,19.3199997 L11,2 L11,2 Z M11,5.88337535 L17.6367961,17.378312 L4.36320388,17.378312 L11,5.88337535 L11,5.88337535 Z"></path>
        </g>
    </g>
</svg>