<?xml version="1.0" encoding="UTF-8" standalone="no"?>
<svg width="22px" height="22px" viewBox="0 0 22 22" version="1.1" xmlns="http://www.w3.org/2000/svg" xmlns:xlink="http://www.w3.org/1999/xlink">
    <defs></defs>
    <g id="Page-1" stroke="none" stroke-width="1" fill="none" fill-rule="evenodd">
        <g id="expression-builder" fill="#000000">
            <path d="M7.21645796,6.22946359 L5.83899821,5.08456198 L1,10.9164046 L5.83899821,16.7482471 L7.21645796,15.6033455 L3.3255814,10.9164046 L7.21645796,6.22946359 L7.21645796,6.22946359 Z M6.52772809,11.8108589 L8.31663685,11.8108589 L8.31663685,10.0219502 L6.52772809,10.0219502 L6.52772809,11.8108589 L6.52772809,11.8108589 Z M15.4722719,10.0219502 L13.6833631,10.0219502 L13.6833631,11.8108589 L15.4722719,11.8108589 L15.4722719,10.0219502 L15.4722719,10.0219502 Z M10.1055456,11.8108589 L11.8944544,11.8108589 L11.8944544,10.0219502 L10.1055456,10.0219502 L10.1055456,11.8108589 L10.1055456,11.8108589 Z M16.1610018,5.08456198 L14.783542,6.22946359 L18.6744186,10.9164046 L14.783542,15.6033455 L16.1610018,16.7482471 L21,10.9164046 L16.1610018,5.08456198 L16.1610018,5.08456198 Z" id="Shape"></path>
        </g>
    </g>
</svg>