<?xml version="1.0" encoding="UTF-8" standalone="no"?>
<svg width="22px" height="22px" viewBox="0 0 22 22" version="1.1" xmlns="http://www.w3.org/2000/svg" xmlns:xlink="http://www.w3.org/1999/xlink">
    <defs></defs>
    <g id="Page-1" stroke="none" stroke-width="1" fill="none" fill-rule="evenodd">
        <g id="field-types-users" fill="#000000">
            <g id="users" transform="translate(1.000000, 3.000000)">
                <path d="M9.03504,8.10768 L9.16104,8.10768 C9.12576,8.07912 9.09216,8.05224 9.06192,8.02032 C8.06064,7.11564 7.29624,5.35836 7.29624,3.93708 C7.29624,1.92696 8.94264,0.6048 10.49832,0.6048 C12.054,0.6048 13.61724,2.03532 13.61724,4.0446 C13.61724,5.46504 12.7722,7.1694 11.7264,8.04216 C11.94144,8.862 13.11744,9.12996 15.5442,9.79524 C18.23892,10.53528 17.95584,13.06704 17.76768,13.59624 C17.4552,14.46984 3.4818,14.63196 3.21804,13.59624 C3.16008,13.16784 2.54184,10.53528 5.23824,9.79524 C7.5978,9.1476 8.77296,8.87544 9.03504,8.10768" id="Fill-1"></path>
                <path d="M9.16104,8.10768 L9.03504,8.10768 C9.04512,8.07912 9.05268,8.05056 9.06192,8.02032 C9.09132,8.05224 9.12576,8.07912 9.16104,8.10768" id="Fill-2"></path>
                <path d="M5.15256,9.48444 L5.60364,9.36096 C6.45876,9.12744 7.1358,8.94096 7.644,8.75616 C7.24584,8.57976 7.01736,8.38488 6.94344,8.10348 C7.28616,7.81704 7.59528,7.40964 7.83972,6.9552 C7.3164,6.02784 6.97368,4.9098 6.97368,3.93708 C6.97368,3.58176 7.03416,3.22056 7.14336,2.87112 C6.79896,2.65776 6.41172,2.53764 6.02532,2.53764 C4.86024,2.53764 3.6288,3.52716 3.6288,5.0316 C3.6288,6.09504 4.2,7.41048 4.94928,8.08668 C4.97196,8.11104 4.998,8.1312 5.02404,8.15304 L4.92912,8.15304 C4.7334,8.7276 3.85392,8.93088 2.08824,9.41556 C0.07056,9.96912 0.53256,11.93892 0.57708,12.2598 C0.63336,12.4824 1.53972,12.63024 2.80476,12.71424 C2.75268,10.61928 4.011,9.79692 5.15256,9.48444" id="Fill-3"></path>
                <path d="M15.78864,9.48444 L15.33756,9.36096 C14.4816,9.12744 13.80456,8.94096 13.29636,8.75616 C13.69536,8.57976 13.923,8.38488 13.99692,8.10348 C13.65504,7.81704 13.34508,7.40964 13.10064,6.9552 C13.62396,6.02784 13.96668,4.9098 13.96668,3.93708 C13.96668,3.58176 13.90704,3.22056 13.797,2.87112 C14.14224,2.65776 14.52864,2.53764 14.91588,2.53764 C16.08012,2.53764 17.3124,3.52716 17.3124,5.0316 C17.3124,6.09504 16.74036,7.41048 15.99108,8.08668 C15.9684,8.11104 15.9432,8.1312 15.91716,8.15304 L16.01208,8.15304 C16.2078,8.7276 17.08728,8.93088 18.85296,9.41556 C20.8698,9.96912 20.4078,11.93892 20.36412,12.2598 C20.30784,12.4824 19.40148,12.63024 18.1356,12.71424 C18.18768,10.61928 16.92936,9.79692 15.78864,9.48444" id="Fill-4"></path>
            </g>
        </g>
    </g>
</svg>