<?xml version="1.0" encoding="UTF-8" standalone="no"?>
<svg width="22px" height="22px" viewBox="0 0 22 22" version="1.1" xmlns="http://www.w3.org/2000/svg" xmlns:xlink="http://www.w3.org/1999/xlink">
    <defs></defs>
    <g id="Page-1" stroke="none" stroke-width="1" fill="none" fill-rule="evenodd">
        <g id="field-types-decimal" fill="#8E24AA">
            <path d="M5.06933594,14.1601562 L5.06933594,7.93945312 C3.91177807,8.82812944 3.13248898,9.27246094 2.73144531,9.27246094 C2.54003811,9.27246094 2.37028069,9.19612707 2.22216797,9.04345703 C2.07405525,8.890787 2,8.71419371 2,8.51367188 C2,8.28124884 2.07291594,8.11035211 2.21875,8.00097656 C2.36458406,7.89160102 2.62206847,7.75032639 2.99121094,7.57714844 C3.54264599,7.31738151 3.98355955,7.04394675 4.31396484,6.75683594 C4.64437014,6.46972513 4.9371732,6.14843928 5.19238281,5.79296875 C5.44759242,5.43749822 5.6139319,5.21875041 5.69140625,5.13671875 C5.7688806,5.05468709 5.91471247,5.01367188 6.12890625,5.01367188 C6.37044392,5.01367188 6.56412688,5.10709542 6.70996094,5.29394531 C6.855795,5.48079521 6.92871094,5.73827961 6.92871094,6.06640625 L6.92871094,13.8935547 C6.92871094,14.8095749 6.61653958,15.2675781 5.9921875,15.2675781 C5.71419132,15.2675781 5.49088626,15.1741546 5.32226562,14.9873047 C5.15364499,14.8004548 5.06933594,14.5247414 5.06933594,14.1601562 L5.06933594,14.1601562 Z M10.7386719,15.2675781 C10.4561184,15.2675781 10.2123057,15.1764332 10.0072266,14.9941406 C9.80214744,14.811848 9.6996094,14.5566423 9.6996094,14.2285156 C9.6996094,13.9505194 9.79759019,13.711264 9.99355471,13.5107422 C10.1895192,13.3102204 10.4310533,13.2099609 10.7181641,13.2099609 C11.0052749,13.2099609 11.2502269,13.309081 11.4530274,13.5073242 C11.6558279,13.7055674 11.7572266,13.9459621 11.7572266,14.2285156 C11.7572266,14.552085 11.6558279,14.8061514 11.4530274,14.9907227 C11.2502269,15.1752939 11.0121108,15.2675781 10.7386719,15.2675781 L10.7386719,15.2675781 Z M19.675586,10.1816406 C19.675586,10.9290402 19.6300135,11.5716119 19.5388672,12.109375 C19.4477209,12.6471381 19.2791028,13.1347634 19.0330079,13.5722656 C18.7231105,14.1100287 18.3220728,14.5247381 17.8298829,14.8164062 C17.3376929,15.1080744 16.7908234,15.2539062 16.1892579,15.2539062 C15.4965461,15.2539062 14.8756213,15.0579447 14.3264649,14.6660156 C13.7773085,14.2740866 13.3637384,13.7317743 13.0857422,13.0390625 C12.9444655,12.6608054 12.8407881,12.2426781 12.7747071,11.784668 C12.708626,11.3266579 12.675586,10.8310574 12.675586,10.2978516 C12.675586,9.60969708 12.712044,8.98991161 12.784961,8.43847656 C12.857878,7.88704151 12.9718092,7.41308792 13.1267579,7.01660156 C13.3956394,6.36034828 13.7864233,5.86019052 14.2991211,5.51611328 C14.811819,5.17203604 15.4236293,5 16.1345704,5 C16.6039737,5 17.0300763,5.07633387 17.4128907,5.22900391 C17.7957051,5.38167394 18.131802,5.604979 18.4211915,5.89892578 C18.7105809,6.19287256 18.9555329,6.55631294 19.1560547,6.98925781 C19.5024106,7.7412147 19.675586,8.80533166 19.675586,10.1816406 L19.675586,10.1816406 Z M17.8025391,10.0449219 C17.8025391,9.21093333 17.7524094,8.52848573 17.6521485,7.99755859 C17.5518876,7.46663146 17.3832695,7.0655938 17.1462891,6.79443359 C16.9093088,6.52327338 16.581187,6.38769531 16.1619141,6.38769531 C15.5603486,6.38769531 15.1422213,6.69075218 14.9075196,7.296875 C14.6728179,7.90299782 14.5554688,8.83723327 14.5554688,10.0996094 C14.5554688,10.9563845 14.6055985,11.6582004 14.7058594,12.2050781 C14.8061203,12.7519559 14.9747384,13.1655259 15.2117188,13.4458008 C15.4486991,13.7260756 15.769985,13.8662109 16.175586,13.8662109 C16.5948589,13.8662109 16.9229806,13.7203791 17.159961,13.4287109 C17.3969413,13.1370428 17.5632808,12.7200548 17.6589844,12.1777344 C17.754688,11.635414 17.8025391,10.9244836 17.8025391,10.0449219 L17.8025391,10.0449219 Z" id="1.0"></path>
        </g>
    </g>
</svg>