<?xml version="1.0" encoding="UTF-8" standalone="no"?>
<svg width="22px" height="22px" viewBox="0 0 22 22" version="1.1" xmlns="http://www.w3.org/2000/svg" xmlns:xlink="http://www.w3.org/1999/xlink">
    <defs></defs>
    <g id="Page-1" stroke="none" stroke-width="1" fill="none" fill-rule="evenodd">
        <g id="field-types-decimal" fill="#454545">
            <g id="Decimal" transform="translate(1.000000, 5.000000)">
                <path d="M13.6986296,3.41235704 C13.4186576,3.41235704 13.1986796,3.51155346 13.0786916,3.7297856 C12.9387056,3.94801774 12.8787116,4.28528558 12.8587136,4.74158914 L12.8587136,6.20969624 C12.8587136,6.70567836 12.9187076,7.0627855 13.0586936,7.30085692 C13.1986796,7.53892834 13.4186576,7.65796405 13.7186276,7.65796405 C14.0185976,7.65796405 14.2185776,7.53892834 14.3585636,7.3206962 C14.4985496,7.08262478 14.5585436,6.74535693 14.5585436,6.26921409 L14.5585436,4.84078556 C14.5585436,4.34480344 14.4985496,3.96785702 14.3585636,3.74962488 C14.1985796,3.51155346 13.9985996,3.41235704 13.6986296,3.41235704 L13.6986296,3.41235704 Z" id="Shape"></path>
                <path d="M17.5982395,0.0396785702 L2.39975993,0.0396785702 C1.07989197,0.0396785702 0,1.11099997 0,2.42039278 L0,8.70944616 C0,10.018839 1.07989197,11.0901604 2.39975993,11.0901604 L17.5982395,11.0901604 C18.9181074,11.0901604 19.9979994,10.018839 19.9979994,8.70944616 L19.9979994,2.42039278 C19.9979994,1.11099997 18.9181074,0.0396785702 17.5982395,0.0396785702 L17.5982395,0.0396785702 Z M7.17928178,8.57057116 L5.97940182,8.57057116 L5.97940182,3.92817845 L4.53954586,4.36464272 L4.53954586,3.39251775 L7.05929378,2.49974992 L7.17928178,2.49974992 L7.17928178,8.57057116 L7.17928178,8.57057116 Z M10.4589537,8.43169617 C10.3389657,8.55073188 10.1589837,8.61024973 9.95900369,8.61024973 C9.7590237,8.61024973 9.5990397,8.55073188 9.47905171,8.43169617 C9.35906371,8.31266046 9.27907171,8.15394618 9.27907171,7.97539261 C9.27907171,7.77699976 9.33906571,7.63812476 9.47905171,7.51908905 C9.5990397,7.40005334 9.7790217,7.34053549 9.95900369,7.34053549 C10.1589837,7.34053549 10.3189677,7.40005334 10.4589537,7.51908905 C10.5789417,7.63812476 10.6589337,7.79683904 10.6589337,7.97539261 C10.6589337,8.17378546 10.5789417,8.31266046 10.4589537,8.43169617 L10.4589537,8.43169617 Z M15.7584235,6.07082124 C15.7584235,6.90407122 15.5784415,7.53892834 15.2384755,7.9952319 C14.8985095,8.43169617 14.3785616,8.6499283 13.6986296,8.6499283 C13.0386956,8.6499283 12.5187476,8.43169617 12.1787816,7.9952319 C11.8388156,7.55876762 11.6388356,6.94374979 11.6388356,6.1303391 L11.6388356,5.01933913 C11.6388356,4.16624987 11.8188176,3.53139275 12.1587836,3.09492848 C12.5187476,2.6584642 13.0186976,2.44023207 13.6786316,2.44023207 C14.3385656,2.44023207 14.8585135,2.6584642 15.1984795,3.09492848 C15.5584435,3.53139275 15.7384255,4.14641059 15.7384255,4.95982128 L15.7384255,6.07082124 L15.7584235,6.07082124 Z" id="Shape"></path>
            </g>
        </g>
    </g>
</svg>