<?xml version="1.0" encoding="UTF-8" standalone="no"?>
<svg width="22px" height="22px" viewBox="0 0 22 22" version="1.1" xmlns="http://www.w3.org/2000/svg" xmlns:xlink="http://www.w3.org/1999/xlink">
    <defs></defs>
    <g id="Page-1" stroke="none" stroke-width="1" fill="none" fill-rule="evenodd">
        <g id="field-types-decimal" fill="#000000">
            <path d="M5.63574219,17 L5.63574219,8.98974609 L3.78466797,9.72851562 L3.78466797,8.70751953 L5.63574219,7.85253906 L6.73144531,7.85253906 L6.73144531,17 L5.63574219,17 Z M10.5,17 L9,17 L9,15.5 L10.5,15.5 L10.5,17 Z M15.7216797,17.2739258 C14.7311148,17.2739258 13.9273306,16.8395226 13.3103027,15.9707031 C12.6932749,15.1018837 12.3847656,13.9204176 12.3847656,12.4262695 C12.3847656,10.9321214 12.6932749,9.75065539 13.3103027,8.88183594 C13.9273306,8.01301649 14.7311148,7.57861328 15.7216797,7.57861328 C16.7233123,7.57861328 17.5312469,8.01301649 18.1455078,8.88183594 C18.7597687,9.75065539 19.0668945,10.9321214 19.0668945,12.4262695 C19.0668945,13.9204176 18.7597687,15.1018837 18.1455078,15.9707031 C17.5312469,16.8395226 16.7233123,17.2739258 15.7216797,17.2739258 L15.7216797,17.2739258 Z M15.7216797,16.3608398 C16.4964231,16.3608398 17.0567203,15.9624063 17.4025879,15.1655273 C17.7484555,14.3686484 17.9213867,13.4555716 17.9213867,12.4262695 C17.9213867,11.4025014 17.7484555,10.490808 17.4025879,9.69116211 C17.0567203,8.89151618 16.4964231,8.49169922 15.7216797,8.49169922 C14.9524701,8.49169922 14.3949399,8.89151618 14.0490723,9.69116211 C13.7032047,10.490808 13.5302734,11.4025014 13.5302734,12.4262695 C13.5302734,13.4555716 13.7032047,14.3686484 14.0490723,15.1655273 C14.3949399,15.9624063 14.9524701,16.3608398 15.7216797,16.3608398 L15.7216797,16.3608398 Z" id="1.0"></path>
        </g>
    </g>
</svg>