<?xml version="1.0" encoding="UTF-8" standalone="no"?>
<svg width="22px" height="22px" viewBox="0 0 22 22" version="1.1" xmlns="http://www.w3.org/2000/svg" xmlns:xlink="http://www.w3.org/1999/xlink">
    <defs></defs>
    <g id="Page-1" stroke="none" stroke-width="1" fill="none" fill-rule="evenodd" fill-opacity="0.9">
        <g id="field-types-date-time" fill="#1CACC1">
            <path d="M10.99,1 C5.47,1 1,5.48 1,11 C1,16.52 5.47,21 10.99,21 C16.52,21 21,16.52 21,11 C21,5.48 16.52,1 10.99,1 L10.99,1 Z M11,19 C6.58,19 3,15.42 3,11 C3,6.58 6.58,3 11,3 C15.42,3 19,6.58 19,11 C19,15.42 15.42,19 11,19 L11,19 Z" id="Shape"></path>
            <path d="M11.5,6 L10,6 L10,12 L15.25,15.15 L16,13.92 L11.5,11.25 L11.5,6 Z" id="Shape"></path>
        </g>
    </g>
</svg>