<?xml version="1.0" encoding="UTF-8" standalone="no"?>
<svg width="22px" height="22px" viewBox="0 0 22 22" version="1.1" xmlns="http://www.w3.org/2000/svg" xmlns:xlink="http://www.w3.org/1999/xlink">
    <defs></defs>
    <g id="Page-1" stroke="none" stroke-width="1" fill="none" fill-rule="evenodd">
        <g id="field-types-decimal" fill="#000000">
            <path d="M5.4221616,16.0094767 L5.4221616,7.1969984 L3.20017313,8.28201825 L3.20017313,7.19699838 L5.4221616,6 L6.53315584,6 L6.53315584,16.0094767 L5.4221616,16.0094767 Z M9.86613856,15.9989481 L8.75514432,15.9989481 L8.75514432,14.8879539 L9.86613856,14.8879539 L9.86613856,15.9989481 Z M15.6568862,16.0094767 C14.6042058,16.0094767 13.7500185,15.5609972 13.0942986,14.6640247 C12.4385787,13.7670523 12.1107237,12.5473024 12.1107237,11.0047383 C12.1107237,9.46217428 12.4385787,8.24242434 13.0942986,7.34545191 C13.7500185,6.44847949 14.6042058,6 15.6568862,6 C16.7213283,6 17.5799263,6.44847949 18.2327057,7.34545191 C18.8854851,8.24242434 19.21187,9.46217428 19.21187,11.0047383 C19.21187,12.5473024 18.8854851,13.7670523 18.2327057,14.6640247 C17.5799263,15.5609972 16.7213283,16.0094767 15.6568862,16.0094767 L15.6568862,16.0094767 Z M15.6568862,15.0668033 C16.4802116,15.0668033 17.0756434,14.6554591 17.4431994,13.8327583 C17.8107554,13.0100575 17.9945306,12.0673936 17.9945306,11.0047383 C17.9945306,9.9477963 17.8107554,9.00656069 17.4431994,8.18100326 C17.0756434,7.35544584 16.4802116,6.94267332 15.6568862,6.94267332 C14.8394416,6.94267332 14.2469503,7.35544584 13.8793943,8.18100326 C13.5118383,9.00656069 13.328063,9.9477963 13.328063,11.0047383 C13.328063,12.0673936 13.5118383,13.0100575 13.8793943,13.8327583 C14.2469503,14.6554591 14.8394416,15.0668033 15.6568862,15.0668033 L15.6568862,15.0668033 Z" id="1.0"></path>
        </g>
    </g>
</svg>