<?xml version="1.0" encoding="UTF-8" standalone="no"?>
<svg width="22px" height="22px" viewBox="0 0 22 22" version="1.1" xmlns="http://www.w3.org/2000/svg" xmlns:xlink="http://www.w3.org/1999/xlink">
    <defs></defs>
    <g id="Page-1" stroke="none" stroke-width="1" fill="none" fill-rule="evenodd">
        <g id="field-types-decimal" fill="#8E44AD">
            <path d="M6.95764343,17 L5.95956873,17 L5.95956873,9.66601562 C5.95956873,9.11588267 5.97599778,8.59538006 6.00885637,8.10449219 C5.92260257,8.19335982 5.82608191,8.28645785 5.71929149,8.38378906 C5.61250107,8.48112028 5.12373687,8.89371381 4.25298421,9.62158203 L3.71082018,8.89794922 L6.09510974,7 L6.95764343,7 L6.95764343,17 Z M18.2637659,15.7574751 C17.7729407,16.5858292 17.0223385,17 16.0119369,17 C15.0426084,17 14.3053549,16.5758625 13.800154,15.7275748 C13.2949532,14.879287 13.0423566,13.6356671 13.0423566,11.9966777 C13.0423566,10.304532 13.2867387,9.04873056 13.7755102,8.22923588 C14.2642817,7.4097412 15.0097498,7 16.0119369,7 C16.9894799,7 17.7318676,7.42745973 18.2391221,8.28239203 C18.7463766,9.13732432 19,10.3754072 19,11.9966777 C19,13.6755344 18.7545911,14.929121 18.2637659,15.7574751 Z M14.077397,11.9966777 C14.077397,13.4097524 14.2314193,14.438535 14.5394686,15.0830565 C14.8475179,15.727578 15.3383357,16.0498339 16.0119369,16.0498339 C16.6937526,16.0498339 17.1876509,15.7231483 17.4936465,15.0697674 C17.7996421,14.4163865 17.9526377,13.3920336 17.9526377,11.9966777 C17.9526377,10.6013219 17.7996421,9.57918375 17.4936465,8.93023256 C17.1876509,8.28128136 16.6937526,7.95681063 16.0119369,7.95681063 C15.3383357,7.95681063 14.8475179,8.27685173 14.5394686,8.91694352 C14.2314193,9.55703532 14.077397,10.5836031 14.077397,11.9966777 Z M9.5,15.5 L11,15.5 L11,17 L9.5,17 L9.5,15.5 Z" id="1.0"></path>
        </g>
    </g>
</svg>