<?xml version="1.0" encoding="UTF-8" standalone="no"?>
<svg width="22px" height="22px" viewBox="0 0 22 22" version="1.1" xmlns="http://www.w3.org/2000/svg" xmlns:xlink="http://www.w3.org/1999/xlink">
    <defs></defs>
    <g id="Page-1" stroke="none" stroke-width="1" fill="none" fill-rule="evenodd">
        <g id="field-types-string" fill="#8E24AA">
            <path d="M5.82421875,13.2543945 L5.82421875,11.2866211 C5.54068869,11.3120118 5.18204969,11.3469236 4.74829102,11.3913574 C4.31453234,11.4357912 3.9643568,11.4982092 3.69775391,11.5786133 C3.38036951,11.6759445 3.11800234,11.8251129 2.91064453,12.026123 C2.70328672,12.2271332 2.59960938,12.5074852 2.59960938,12.8671875 C2.59960938,13.2734395 2.71386604,13.5802398 2.94238281,13.7875977 C3.17089958,13.9949555 3.50520613,14.0986328 3.9453125,14.0986328 C4.32194199,14.0986328 4.66259613,14.017172 4.96728516,13.854248 C5.27197418,13.6913241 5.55761585,13.4913749 5.82421875,13.2543945 L5.82421875,13.2543945 Z M5.82421875,14.2446289 C5.72688753,14.3165694 5.59676188,14.4170729 5.43383789,14.5461426 C5.2709139,14.6752122 5.11328201,14.7778317 4.9609375,14.8540039 C4.7493479,14.9640305 4.545167,15.0486651 4.34838867,15.1079102 C4.15161034,15.1671552 3.87549006,15.1967773 3.52001953,15.1967773 C3.22802588,15.1967773 2.95084767,15.1417649 2.68847656,15.0317383 C2.42610546,14.9217117 2.19547625,14.7672536 1.99658203,14.5683594 C1.80615139,14.3736969 1.65380917,14.1335464 1.53955078,13.8479004 C1.4252924,13.5622544 1.36816406,13.2607438 1.36816406,12.9433594 C1.36816406,12.4524715 1.47184141,12.0345883 1.67919922,11.6896973 C1.88655703,11.3448062 2.21451599,11.0708018 2.66308594,10.8676758 C3.06087438,10.6857087 3.53059625,10.5598148 4.07226562,10.4899902 C4.613935,10.4201657 5.19791354,10.368327 5.82421875,10.3344727 L5.82421875,10.105957 C5.82421875,9.82665876 5.78190146,9.60131922 5.69726562,9.42993164 C5.61262979,9.25854406 5.49414139,9.12630255 5.34179688,9.03320312 C5.18945236,8.93587191 5.00325631,8.87133805 4.78320312,8.83959961 C4.56314994,8.80786117 4.33675247,8.79199219 4.10400391,8.79199219 C3.82893743,8.79199219 3.5052102,8.83325154 3.1328125,8.91577148 C2.7604148,8.99829143 2.3880227,9.11783776 2.015625,9.27441406 L1.94580078,9.27441406 L1.94580078,8.06201172 C2.16585396,7.99853484 2.48111774,7.92871132 2.89160156,7.85253906 C3.30208539,7.77636681 3.70833132,7.73828125 4.11035156,7.73828125 C4.59700764,7.73828125 5.00748531,7.77636681 5.34179688,7.85253906 C5.67610844,7.92871132 5.97656117,8.0662425 6.24316406,8.26513672 C6.50130337,8.45979915 6.69384702,8.711587 6.82080078,9.02050781 C6.94775454,9.32942863 7.01123047,9.70605247 7.01123047,10.1503906 L7.01123047,15 L5.82421875,15 L5.82421875,14.2446289 Z M13.4033203,11.4326172 C13.4033203,10.5862588 13.2742526,9.94409399 13.0161133,9.50610352 C12.757974,9.06811304 12.3432646,8.84912109 11.7719727,8.84912109 C11.4461247,8.84912109 11.1171078,8.92529221 10.7849121,9.07763672 C10.4527164,9.22998123 10.1512058,9.42252488 9.88037109,9.65527344 L9.88037109,13.7177734 C10.1808283,13.8658862 10.4474272,13.9706214 10.6801758,14.0319824 C10.9129243,14.0933434 11.1689439,14.1240234 11.4482422,14.1240234 C12.0576202,14.1240234 12.5358056,13.9082053 12.8828125,13.4765625 C13.2298194,13.0449197 13.4033203,12.3636114 13.4033203,11.4326172 L13.4033203,11.4326172 Z M14.6347656,11.3374023 C14.6347656,12.4969133 14.3533557,13.4300095 13.7905273,14.1367188 C13.227699,14.843428 12.5231162,15.1967773 11.6767578,15.1967773 C11.2916647,15.1967773 10.9626478,15.1491704 10.6896973,15.0539551 C10.4167467,14.9587398 10.146974,14.83073 9.88037109,14.6699219 L9.80419922,15 L8.68701172,15 L8.68701172,5.12304688 L9.88037109,5.12304688 L9.88037109,8.65234375 C10.1808283,8.38150906 10.5066714,8.15722745 10.8579102,7.97949219 C11.2091489,7.80175692 11.6069314,7.71289062 12.0512695,7.71289062 C12.8510782,7.71289062 13.4816058,8.03344406 13.9428711,8.67456055 C14.4041364,9.31567703 14.6347656,10.2032821 14.6347656,11.3374023 L14.6347656,11.3374023 Z M18.690918,15.1586914 C18.2042619,15.1586914 17.7578145,15.0835782 17.3515625,14.9333496 C16.9453105,14.783121 16.5961929,14.5556656 16.3041992,14.2509766 C16.0122056,13.9462875 15.7858081,13.5622582 15.625,13.098877 C15.4641919,12.6354957 15.3837891,12.0906607 15.3837891,11.4643555 C15.3837891,10.842282 15.4673657,10.3048525 15.6345215,9.85205078 C15.8016773,9.39924904 16.0249009,9.01839347 16.3041992,8.70947266 C16.5834975,8.40055184 16.9315572,8.16251711 17.3483887,7.99536133 C17.7652202,7.82820554 18.2127255,7.74462891 18.690918,7.74462891 C19.0802428,7.74462891 19.4558087,7.79964138 19.817627,7.90966797 C20.1794452,8.01969456 20.5021145,8.14664642 20.7856445,8.29052734 L20.7856445,9.62988281 L20.7158203,9.62988281 C20.6311845,9.55794235 20.5222175,9.47542364 20.388916,9.38232422 C20.2556146,9.28922479 20.093751,9.1940109 19.9033203,9.09667969 C19.7382804,9.01204385 19.5436209,8.9379886 19.3193359,8.87451172 C19.095051,8.81103484 18.8792328,8.77929688 18.671875,8.77929688 C18.0540334,8.77929688 17.5578632,9.01309988 17.1833496,9.48071289 C16.808836,9.94832591 16.621582,10.6095335 16.621582,11.4643555 C16.621582,12.3022503 16.8024884,12.9549944 17.1643066,13.4226074 C17.5261249,13.8902204 18.0286426,14.1240234 18.671875,14.1240234 C19.0611999,14.1240234 19.4314761,14.0436206 19.7827148,13.8828125 C20.1339536,13.7220044 20.4449856,13.5146497 20.7158203,13.2607422 L20.7856445,13.2607422 L20.7856445,14.6000977 C20.6671544,14.655111 20.5190439,14.7217607 20.3413086,14.8000488 C20.1635733,14.878337 20.0027676,14.9365232 19.8588867,14.9746094 C19.6557607,15.0338545 19.4737964,15.0793455 19.3129883,15.111084 C19.1521802,15.1428224 18.9448255,15.1586914 18.690918,15.1586914 L18.690918,15.1586914 Z" id="abc"></path>
        </g>
    </g>
</svg>