<?xml version="1.0" encoding="UTF-8" standalone="no"?>
<svg width="22px" height="22px" viewBox="0 0 22 22" version="1.1" xmlns="http://www.w3.org/2000/svg" xmlns:xlink="http://www.w3.org/1999/xlink">
    <defs></defs>
    <g id="Page-1" stroke="none" stroke-width="1" fill="none" fill-rule="evenodd" fill-opacity="0.9">
        <g id="field-types-date-time" fill="#000000">
            <g id="Shape-+-Shape" transform="translate(2.000000, 2.000000)">
                <path d="M8.991,0 C4.023,0 0,4.032 0,9 C0,13.968 4.023,18 8.991,18 C13.968,18 18,13.968 18,9 C18,4.032 13.968,0 8.991,0 L8.991,0 Z M9,16.2 C5.022,16.2 1.8,12.978 1.8,9 C1.8,5.022 5.022,1.8 9,1.8 C12.978,1.8 16.2,5.022 16.2,9 C16.2,12.978 12.978,16.2 9,16.2 L9,16.2 Z" id="Shape"></path>
                <path d="M9.45,4.5 L8.1,4.5 L8.1,9.9 L12.825,12.735 L13.5,11.628 L9.45,9.225 L9.45,4.5 Z" id="Shape"></path>
            </g>
        </g>
    </g>
</svg>