<?xml version="1.0" encoding="UTF-8" standalone="no"?>
<svg width="22px" height="22px" viewBox="0 0 22 22" version="1.1" xmlns="http://www.w3.org/2000/svg" xmlns:xlink="http://www.w3.org/1999/xlink">
    <defs></defs>
    <g id="Page-1" stroke="none" stroke-width="1" fill="none" fill-rule="evenodd">
        <g id="field-types-decimal" fill="#D0011B">
            <path d="M8.4375,17 L2.765625,17 L2.765625,15.8125 L4.875,15.8125 L4.875,8.015625 L2.765625,8.015625 L2.765625,6.953125 C3.56250398,6.953125 4.1497377,6.83984488 4.52734375,6.61328125 C4.9049498,6.38671762 5.11718727,5.95833648 5.1640625,5.328125 L6.375,5.328125 L6.375,15.8125 L8.4375,15.8125 L8.4375,17 Z M11.9430803,17 L10.0758928,17 L10.0758928,14.7734375 L11.9430803,14.7734375 L11.9430803,17 Z M20.3783481,11.1796875 C20.3783481,13.2682396 20.0749657,14.8007764 19.4681919,15.7773438 C18.861418,16.7539111 17.9252294,17.2421875 16.6595981,17.2421875 C15.3783417,17.2421875 14.4382469,16.7447966 13.8392856,15.75 C13.2403243,14.7552034 12.9408481,13.2369894 12.9408481,11.1953125 C12.9408481,9.09634367 13.2442305,7.56120277 13.8510044,6.58984375 C14.4577782,5.61848473 15.3939668,5.1328125 16.6595981,5.1328125 C17.9408545,5.1328125 18.8809493,5.63541164 19.4799106,6.640625 C20.0788719,7.64583836 20.3783481,9.15884406 20.3783481,11.1796875 L20.3783481,11.1796875 Z M18.3783481,14.7265625 C18.5293905,14.3411439 18.6361603,13.8541696 18.6986606,13.265625 C18.7611609,12.6770804 18.7924106,11.9817748 18.7924106,11.1796875 C18.7924106,10.3828085 18.7611609,9.69010711 18.6986606,9.1015625 C18.6361603,8.51301789 18.5267864,8.02343945 18.3705356,7.6328125 C18.2142848,7.23697719 17.9994432,6.93619895 17.7260044,6.73046875 C17.4525655,6.52473855 17.0971003,6.421875 16.6595981,6.421875 C16.2273043,6.421875 15.8718391,6.52473855 15.5931919,6.73046875 C15.3145446,6.93619895 15.0944948,7.24218547 14.9330356,7.6484375 C14.7767848,8.04427281 14.6700151,8.54426781 14.6127231,9.1484375 C14.5554312,9.75260719 14.5267856,10.434892 14.5267856,11.1953125 C14.5267856,12.0078166 14.5515249,12.6874973 14.6010044,13.234375 C14.6504838,13.7812527 14.7585556,14.2708312 14.9252231,14.703125 C15.0762655,15.1041687 15.2911071,15.4127593 15.5697544,15.6289062 C15.8484016,15.8450532 16.2116792,15.953125 16.6595981,15.953125 C17.0918919,15.953125 17.4473571,15.8502614 17.7260044,15.6445312 C18.0046516,15.4388011 18.2220973,15.1328145 18.3783481,14.7265625 L18.3783481,14.7265625 Z" id="1.0"></path>
        </g>
    </g>
</svg>