<?xml version="1.0" encoding="UTF-8" standalone="no"?>
<svg width="22px" height="22px" viewBox="0 0 22 22" version="1.1" xmlns="http://www.w3.org/2000/svg" xmlns:xlink="http://www.w3.org/1999/xlink">
    <defs></defs>
    <g id="Page-1" stroke="none" stroke-width="1" fill="none" fill-rule="evenodd">
        <g id="field-types-boolean" fill="#454545">
            <g id="Layer_1-Copy-4" transform="translate(1.000000, 5.000000)">
                <path d="M17.6,0.0403726708 L2.4,0.0403726708 C1.08,0.0403726708 0,1.13043478 0,2.46273292 L0,8.86180124 C0,10.1940994 1.08,11.2841615 2.4,11.2841615 L17.6,11.2841615 C18.92,11.2841615 20,10.1940994 20,8.86180124 L20,2.46273292 C20,1.13043478 18.92,0.0403726708 17.6,0.0403726708 L17.6,0.0403726708 Z M8.44,3.31055901 L5.12,8.72049689 C5,8.90217391 4.8,9.02329193 4.58,9.04347826 L4.54,9.04347826 C4.34,9.04347826 4.14,8.94254658 4.02,8.7810559 L2.32,6.52018634 C2.1,6.2173913 2.16,5.8136646 2.44,5.57142857 C2.74,5.34937888 3.14,5.40993789 3.38,5.69254658 L4.5,7.1863354 L7.32,2.6242236 C7.52,2.30124224 7.92,2.22049689 8.24,2.40217391 C8.54,2.58385093 8.64,3.00776398 8.44,3.31055901 L8.44,3.31055901 Z M17.6,8.92236025 C17.3,9.22515528 16.82,9.22515528 16.54,8.92236025 L14.88,7.00465839 L13.22,8.92236025 C12.92,9.22515528 12.44,9.22515528 12.16,8.92236025 C11.86,8.61956522 11.86,8.13509317 12.16,7.85248447 L13.9,5.85403727 L12.12,3.83540373 C11.82,3.5326087 11.82,3.04813665 12.12,2.76552795 C12.42,2.46273292 12.9,2.46273292 13.18,2.76552795 L14.84,4.68322981 L16.5,2.76552795 C16.8,2.46273292 17.28,2.46273292 17.56,2.76552795 C17.86,3.06832298 17.86,3.55279503 17.56,3.83540373 L15.82,5.83385093 L17.56,7.83229814 C17.88,8.13509317 17.88,8.61956522 17.6,8.92236025 L17.6,8.92236025 Z" id="Shape"></path>
            </g>
        </g>
    </g>
</svg>