<?xml version="1.0" encoding="UTF-8" standalone="no"?>
<svg width="22px" height="22px" viewBox="0 0 22 22" version="1.1" xmlns="http://www.w3.org/2000/svg" xmlns:xlink="http://www.w3.org/1999/xlink">
    <defs></defs>
    <g id="Page-1" stroke="none" stroke-width="1" fill="none" fill-rule="evenodd">
        <g id="field-types-string" fill="#8E24AA">
            <path d="M5.53781513,13.280543 L5.53781513,11.2766645 C5.24908281,11.3025211 4.88386345,11.3380735 4.44214609,11.3833226 C4.00042873,11.4285717 3.64382812,11.4921349 3.37233355,11.5740142 C3.04912573,11.6731313 2.7819446,11.8250367 2.57078216,12.029735 C2.35961972,12.2344333 2.25404008,12.5199292 2.25404008,12.8862314 C2.25404008,13.2999374 2.37039315,13.612367 2.60310278,13.8235294 C2.83581241,14.0346919 3.17625288,14.1402715 3.62443439,14.1402715 C4.00797434,14.1402715 4.35487886,14.0573161 4.66515837,13.8914027 C4.97543788,13.7254894 5.26632056,13.5218715 5.53781513,13.280543 L5.53781513,13.280543 Z M5.53781513,14.2889463 C5.43869806,14.3622068 5.30618484,14.4645544 5.14027149,14.5959922 C4.97435814,14.7274301 4.813834,14.8319324 4.65869425,14.9095023 C4.44322237,15.0215476 4.23529512,15.1077351 4.03490627,15.1680672 C3.83451742,15.2283994 3.55333083,15.258565 3.19133807,15.258565 C2.89398688,15.258565 2.61172295,15.2025431 2.34453782,15.0904977 C2.07735268,14.9784524 1.84249186,14.8211602 1.63994829,14.6186167 C1.44602359,14.4203825 1.29088617,14.1758256 1.17453135,13.8849386 C1.05817654,13.5940516 1,13.2870087 1,12.9638009 C1,12.4639061 1.10557964,12.0383556 1.31674208,11.6871364 C1.52790452,11.3359172 1.86188093,11.0568853 2.31868132,10.8500323 C2.72376846,10.6647265 3.20210886,10.5365227 3.75371687,10.4654169 C4.30532489,10.3943112 4.90001836,10.3415214 5.53781513,10.3070459 L5.53781513,10.0743374 C5.53781513,9.78991454 5.4947214,9.56044043 5.40853264,9.38590821 C5.32234389,9.21137599 5.20168145,9.07670808 5.04654169,8.98190045 C4.89140194,8.88278339 4.70178953,8.81706545 4.47769877,8.78474467 C4.25360802,8.75242388 4.02305656,8.73626374 3.78603749,8.73626374 C3.50592405,8.73626374 3.17625701,8.77828012 2.7970265,8.86231416 C2.41779599,8.94634819 2.03857117,9.06808798 1.65934066,9.22753717 L1.58823529,9.22753717 L1.58823529,7.99288946 C1.81232605,7.9282479 2.13337434,7.85714324 2.55138979,7.77957337 C2.96940524,7.70200349 3.38310504,7.66321913 3.79250162,7.66321913 C4.28808694,7.66321913 4.70609612,7.70200349 5.04654169,7.77957337 C5.38698727,7.85714324 5.69295275,7.99719787 5.96444732,8.19974144 C6.22732301,8.39797557 6.42339948,8.65438326 6.55268261,8.9689722 C6.68196574,9.28356115 6.74660633,9.66709535 6.74660633,10.1195863 L6.74660633,15.0581771 L5.53781513,15.0581771 L5.53781513,14.2889463 Z M13.2559793,11.4253394 C13.2559793,10.5634518 13.1245434,9.90950449 12.8616677,9.4634777 C12.598792,9.0174509 12.1764735,8.79444085 11.5946994,8.79444085 C11.2628727,8.79444085 10.927819,8.87200957 10.5895281,9.02714932 C10.2512373,9.18228908 9.94419444,9.37836555 9.66839043,9.61538462 L9.66839043,13.752424 C9.9743605,13.9032544 10.245851,14.0099113 10.4828701,14.0723982 C10.7198891,14.134885 10.9806062,14.166128 11.2650291,14.166128 C11.8855881,14.166128 12.3725473,13.94635 12.7259211,13.5067873 C13.079295,13.0672247 13.2559793,12.3734156 13.2559793,11.4253394 L13.2559793,11.4253394 Z M14.5100194,11.3283775 C14.5100194,12.5091634 14.2234461,13.4593802 13.6502909,14.1790562 C13.0771357,14.8987323 12.3596251,15.258565 11.4977376,15.258565 C11.1055787,15.258565 10.770525,15.2100845 10.4925663,15.1131222 C10.2146075,15.0161598 9.939885,14.8858013 9.66839043,14.7220427 L9.59082094,15.0581771 L8.4531351,15.0581771 L8.4531351,5 L9.66839043,5 L9.66839043,8.59405301 C9.9743605,8.318249 10.3061822,8.08985223 10.6638655,7.90885585 C11.0215489,7.72785947 11.4266299,7.63736264 11.8791209,7.63736264 C12.6936046,7.63736264 13.3357012,7.96379764 13.8054299,8.61667744 C14.2751586,9.26955724 14.5100194,10.1734482 14.5100194,11.3283775 L14.5100194,11.3283775 Z M18.6405947,15.2197802 C18.1450094,15.2197802 17.6903705,15.1432888 17.2766645,14.9903038 C16.8629585,14.8373188 16.5074352,14.60569 16.210084,14.2954105 C15.9127328,13.985131 15.6821814,13.5940554 15.5184228,13.1221719 C15.3546641,12.6502885 15.272786,12.0954568 15.272786,11.45766 C15.272786,10.8241727 15.3578962,10.2768823 15.5281189,9.81577246 C15.6983417,9.35466264 15.9256612,8.96681907 16.210084,8.65223012 C16.4945069,8.33764118 16.8489528,8.09523895 17.2734324,7.92501616 C17.6979121,7.75479337 18.1536282,7.66968326 18.6405947,7.66968326 C19.037063,7.66968326 19.4195198,7.72570511 19.7879767,7.83775048 C20.1564336,7.94979586 20.4850233,8.07907705 20.7737557,8.22559793 L20.7737557,9.58952812 L20.7026503,9.58952812 C20.6164615,9.51626768 20.5054952,9.43223491 20.3697479,9.33742728 C20.2340006,9.24261965 20.0691671,9.14565876 19.8752424,9.04654169 C19.7071743,8.96035294 19.5089432,8.88493891 19.280543,8.82029735 C19.0521428,8.75565579 18.8323648,8.72333549 18.6212023,8.72333549 C17.9920244,8.72333549 17.4867505,8.96142835 17.1053652,9.4376212 C16.72398,9.91381406 16.5332902,10.5871536 16.5332902,11.45766 C16.5332902,12.3109286 16.7175159,12.9756494 17.0859729,13.4518423 C17.4544298,13.9280351 17.9661678,14.166128 18.6212023,14.166128 C19.0176706,14.166128 19.3947407,14.0842499 19.752424,13.9204913 C20.1101074,13.7567326 20.4268463,13.5455734 20.7026503,13.2870071 L20.7737557,13.2870071 L20.7737557,14.6509373 C20.6530914,14.70696 20.5022633,14.7748326 20.321267,14.8545572 C20.1402706,14.9342818 19.9765144,14.9935357 19.8299935,15.0323206 C19.6231405,15.0926527 19.4378375,15.1389785 19.2740789,15.1712993 C19.1103202,15.2036201 18.899161,15.2197802 18.6405947,15.2197802 L18.6405947,15.2197802 Z" id="abc"></path>
        </g>
    </g>
</svg>