<?xml version="1.0" encoding="UTF-8" standalone="no"?>
<svg width="22px" height="22px" viewBox="0 0 22 22" version="1.1" xmlns="http://www.w3.org/2000/svg" xmlns:xlink="http://www.w3.org/1999/xlink">
    <defs></defs>
    <g id="Page-1" stroke="none" stroke-width="1" fill="none" fill-rule="evenodd">
        <g id="field-types-string" fill="#454545">
            <g id="Layer_1-Copy-3" transform="translate(1.000000, 5.000000)">
                <g id="Group">
                    <path d="M11.08,4.38043478 C11.08,4.09782609 11,3.89596273 10.84,3.77484472 C10.68,3.65372671 10.42,3.5931677 10.08,3.5931677 L9.2,3.5931677 L9.2,5.14751553 L10.12,5.14751553 C10.76,5.12732919 11.08,4.88509317 11.08,4.38043478 L11.08,4.38043478 Z" id="Shape"></path>
                    <path d="M3.76,6.41925466 L5.28,6.41925466 L4.52,4.11801242 L3.76,6.41925466 Z" id="Shape"></path>
                    <path d="M10.36,6.03571429 L9.2,6.03571429 L9.2,7.69099379 L10.28,7.69099379 C10.58,7.69099379 10.8,7.61024845 10.98,7.4689441 C11.14,7.32763975 11.22,7.1257764 11.22,6.88354037 C11.22,6.33850932 10.94,6.05590062 10.36,6.03571429 L10.36,6.03571429 Z" id="Shape"></path>
                    <path d="M17.6,0.0403726708 L2.4,0.0403726708 C1.08,0.0403726708 0,1.13043478 0,2.46273292 L0,8.86180124 C0,10.1940994 1.08,11.2841615 2.4,11.2841615 L17.6,11.2841615 C18.92,11.2841615 20,10.1940994 20,8.86180124 L20,2.46273292 C20,1.13043478 18.92,0.0403726708 17.6,0.0403726708 L17.6,0.0403726708 Z M6.04,8.72049689 L5.62,7.44875776 L3.42,7.44875776 L3,8.72049689 L1.66,8.72049689 L3.92,2.5636646 L5.08,2.5636646 L7.36,8.72049689 L6.04,8.72049689 L6.04,8.72049689 Z M11.92,8.25621118 C11.54,8.55900621 11.02,8.72049689 10.32,8.72049689 L7.94,8.72049689 L7.94,2.5636646 L10.08,2.5636646 C10.82,2.5636646 11.38,2.70496894 11.76,2.98757764 C12.14,3.27018634 12.34,3.69409938 12.34,4.23913043 C12.34,4.54192547 12.26,4.80434783 12.1,5.02639752 C11.94,5.2484472 11.74,5.43012422 11.46,5.5310559 C11.78,5.61180124 12.02,5.77329193 12.2,6.01552795 C12.38,6.25776398 12.46,6.54037267 12.46,6.90372671 C12.48,7.50931677 12.28,7.95341615 11.92,8.25621118 L11.92,8.25621118 Z M14.8,7.30745342 C15,7.61024845 15.32,7.77173913 15.74,7.77173913 C16.12,7.77173913 16.42,7.69099379 16.6,7.50931677 C16.8,7.32763975 16.9,7.04503106 16.92,6.68167702 L18.2,6.68167702 C18.16,7.34782609 17.92,7.87267081 17.48,8.23602484 C17.04,8.59937888 16.46,8.80124224 15.76,8.80124224 C14.98,8.80124224 14.36,8.53881988 13.92,8.01397516 C13.48,7.48913043 13.24,6.76242236 13.24,5.83385093 L13.24,5.45031056 C13.24,4.86490683 13.34,4.34006211 13.54,3.89596273 C13.74,3.45186335 14.04,3.10869565 14.42,2.86645963 C14.8,2.6242236 15.24,2.50310559 15.76,2.50310559 C16.46,2.50310559 17.02,2.68478261 17.46,3.06832298 C17.9,3.45186335 18.14,3.97670807 18.2,4.66304348 L16.94,4.66304348 C16.9,4.25931677 16.8,3.97670807 16.62,3.79503106 C16.44,3.61335404 16.14,3.5326087 15.76,3.5326087 C15.34,3.5326087 15.02,3.67391304 14.82,3.97670807 C14.62,4.27950311 14.5,4.74378882 14.5,5.38975155 L14.5,5.85403727 C14.5,6.52018634 14.6,7.00465839 14.8,7.30745342 L14.8,7.30745342 Z" id="Shape"></path>
                </g>
            </g>
        </g>
    </g>
</svg>