<?xml version="1.0" encoding="UTF-8" standalone="no"?>
<svg width="22px" height="22px" viewBox="0 0 22 22" version="1.1" xmlns="http://www.w3.org/2000/svg" xmlns:xlink="http://www.w3.org/1999/xlink">
    <defs></defs>
    <g id="Page-1" stroke="none" stroke-width="1" fill="none" fill-rule="evenodd">
        <g id="field-types-string" fill="#8E24AA">
            <path d="M2.54476671,14.2723834 C2.78436438,14.4615394 3.0680942,14.556116 3.39596469,14.556116 C3.79529414,14.556116 4.18200738,14.4636411 4.55611602,14.2786885 C5.18663619,13.9718354 5.50189155,13.4695285 5.50189155,12.7717528 L5.50189155,11.8575032 C5.36317711,11.945776 5.18453241,12.0193356 4.96595208,12.0781841 C4.74737175,12.1370327 4.53299811,12.1790667 4.32282472,12.2042875 L3.63556116,12.2925599 C3.22362131,12.347205 2.91467106,12.4333748 2.70870113,12.5510719 C2.3598133,12.7486349 2.18537201,13.0638902 2.18537201,13.4968474 C2.18537201,13.8247179 2.30516904,14.0832273 2.54476671,14.2723834 L2.54476671,14.2723834 Z M4.93442623,11.2017654 C5.19676981,11.2017654 5.36948253,11.0588492 5.45775536,10.8738966 C5.50819697,10.7730134 5.5334174,10.6279959 5.5334174,10.4388398 C5.5334174,10.0521208 5.3957559,9.77154354 5.12042875,9.59709962 C4.84510161,9.42265571 4.45103241,9.33543506 3.93820933,9.33543506 C3.34552037,9.33543506 2.92517989,9.49516444 2.67717528,9.81462799 C2.53846084,9.99117364 2.44808764,10.2538864 2.40605296,10.6027743 L1.34678436,10.6027743 C1.3678017,9.77048764 1.63787046,9.19146863 2.15699874,8.86569987 C2.67612702,8.53993112 3.27826475,8.37704918 3.96343001,8.37704918 C4.75788544,8.37704918 5.40310807,8.52837175 5.89911728,8.83102144 C6.39092301,9.13367112 6.63682219,9.60445246 6.63682219,10.2433796 L6.63682219,14.1336696 C6.63682219,14.2513667 6.66099177,14.3459433 6.70933165,14.4174023 C6.75767153,14.4888612 6.8596041,14.5245902 7.01513241,14.5245902 C7.06557402,14.5245902 7.12231999,14.5214376 7.18537201,14.5151324 C7.24842402,14.5088272 7.3156785,14.4993695 7.38713745,14.4867591 L7.38713745,15.3253468 C7.2105918,15.3757884 7.07608285,15.4073139 6.98360656,15.4199243 C6.89113026,15.4325347 6.76502812,15.4388398 6.60529634,15.4388398 C6.21437383,15.4388398 5.93064401,15.3001275 5.75409836,15.0226986 C5.66162207,14.8755772 5.59646929,14.6675087 5.55863808,14.3984868 C5.32744735,14.7011364 4.99537837,14.9638492 4.56242119,15.186633 C4.129464,15.4094168 3.65237755,15.5208071 3.13114754,15.5208071 C2.50483083,15.5208071 1.9930663,15.330603 1.59583859,14.9501892 C1.19861088,14.5697753 1,14.0937397 1,13.5220681 C1,12.8957514 1.19545832,12.4102581 1.58638083,12.0655738 C1.97730334,11.7208894 2.49011873,11.5086175 3.12484237,11.4287516 L4.93442623,11.2017654 Z M8.40857503,6 L9.51197982,6 L9.51197982,9.36065574 C9.75998443,9.03698871 10.0563245,8.79003868 10.4010088,8.61979823 C10.7456932,8.44955779 11.1197962,8.36443884 11.5233291,8.36443884 C12.3640227,8.36443884 13.0460251,8.65342292 13.5693569,9.23139975 C14.0926886,9.80937658 14.3543506,10.6616169 14.3543506,11.7881463 C14.3543506,12.8558271 14.0958412,13.7427455 13.5788146,14.4489281 C13.0617881,15.1551107 12.3451076,15.5081967 11.4287516,15.5081967 C10.9159285,15.5081967 10.4829778,15.3841963 10.1298865,15.1361917 C9.91971311,14.9890703 9.69483096,14.7536796 9.45523329,14.4300126 L9.45523329,15.2938209 L8.40857503,15.2938209 L8.40857503,6 Z M12.7370744,13.7742749 C13.0418258,13.2866726 13.1941992,12.6435517 13.1941992,11.8448928 C13.1941992,11.1345067 13.0418258,10.5460301 12.7370744,10.0794451 C12.432323,9.61286021 11.9836095,9.37957125 11.3909206,9.37957125 C10.873894,9.37957125 10.4209771,9.57082617 10.0321564,9.95334174 C9.64333559,10.3358573 9.44892812,10.966368 9.44892812,11.8448928 C9.44892812,12.4796165 9.52879281,12.9945335 9.68852459,13.3896595 C9.98697081,14.1336733 10.5439219,14.5056747 11.3593947,14.5056747 C11.973101,14.5056747 12.432323,14.2618772 12.7370744,13.7742749 L12.7370744,13.7742749 Z M20.1393443,8.90037831 C20.6164379,9.27028348 20.9033202,9.90709931 21,10.8108449 L19.8965952,10.8108449 C19.8293397,10.3947016 19.6759154,10.0489715 19.4363178,9.77364439 C19.1967201,9.49831724 18.8121086,9.36065574 18.2824716,9.36065574 C17.5594752,9.36065574 17.0424564,9.71374174 16.7313997,10.4199243 C16.5296333,10.8781023 16.4287516,11.4434603 16.4287516,12.1160151 C16.4287516,12.7927735 16.5716673,13.3623348 16.8575032,13.8247163 C17.143339,14.2870977 17.5931033,14.518285 18.2068096,14.518285 C18.677598,14.518285 19.0506502,14.3743184 19.3259773,14.0863808 C19.6013044,13.7984433 19.7915085,13.4043741 19.8965952,12.9041614 L21,12.9041614 C20.873896,13.7995001 20.5586406,14.4541804 20.0542245,14.8682219 C19.5498083,15.2822635 18.9045857,15.4892812 18.1185372,15.4892812 C17.235809,15.4892812 16.5317387,15.1666699 16.0063052,14.5214376 C15.4808717,13.8762053 15.2181589,13.0702024 15.2181589,12.1034048 C15.2181589,10.9180269 15.5060921,9.99537951 16.0819672,9.33543506 C16.6578423,8.67549061 17.3913364,8.34552333 18.2824716,8.34552333 C19.0432993,8.34552333 19.6622507,8.53047314 20.1393443,8.90037831 L20.1393443,8.90037831 Z" id="abc"></path>
        </g>
    </g>
</svg>