<?xml version="1.0" encoding="UTF-8" standalone="no"?>
<svg width="22px" height="22px" viewBox="0 0 22 22" version="1.1" xmlns="http://www.w3.org/2000/svg" xmlns:xlink="http://www.w3.org/1999/xlink">
    <defs></defs>
    <g id="Page-1" stroke="none" stroke-width="1" fill="none" fill-rule="evenodd">
        <g id="field-types-date-time" fill="#454545">
            <g id="Date-Time" transform="translate(0.000000, 6.000000)">
                <path d="M11,2.8875 C9.394,2.8875 8.074,4.04642857 8.074,5.5 C8.074,6.93392857 9.372,8.1125 11,8.1125 C12.606,8.1125 13.926,6.95357143 13.926,5.5 C13.926,4.06607143 12.606,2.8875 11,2.8875 L11,2.8875 Z M12.1,6.83571429 L10.714,5.59821429 L10.714,3.61428571 L11.286,3.61428571 L11.286,5.40178571 L12.496,6.48214286 L12.1,6.83571429 L12.1,6.83571429 Z" id="Shape"></path>
                <path d="M19.36,0.0392857143 L2.64,0.0392857143 C1.188,0.0392857143 0,1.1 0,2.39642857 L0,8.62321429 C0,9.91964286 1.188,10.9803571 2.64,10.9803571 L19.36,10.9803571 C20.812,10.9803571 22,9.91964286 22,8.62321429 L22,2.39642857 C22,1.1 20.812,0.0392857143 19.36,0.0392857143 L19.36,0.0392857143 Z M11,8.83928571 C8.932,8.83928571 7.26,7.34642857 7.26,5.5 C7.26,3.65357143 8.932,2.16071429 11,2.16071429 C13.068,2.16071429 14.74,3.65357143 14.74,5.5 C14.74,7.34642857 13.068,8.83928571 11,8.83928571 L11,8.83928571 Z" id="Shape"></path>
            </g>
        </g>
    </g>
</svg>