<?xml version="1.0" encoding="UTF-8" standalone="no"?>
<svg width="22px" height="22px" viewBox="0 0 22 22" version="1.1" xmlns="http://www.w3.org/2000/svg" xmlns:xlink="http://www.w3.org/1999/xlink">
    <defs></defs>
    <g id="Page-1" stroke="none" stroke-width="1" fill="none" fill-rule="evenodd">
        <g id="file" fill="#000000">
            <path d="M9.45660172,1 L9.45660172,1 L10.1637085,0.707106781 L2.70710678,8.1637085 L3,7.45660172 L3,18.9986131 C3,20.1050218 3.89248085,21 4.99253976,21 L17.0074602,21 C18.099337,21 19,20.0994016 19,18.9986131 L19,3.00138694 C19,1.89497819 18.1075191,1 17.0074602,1 L9.45660172,1 Z M9.45660172,0 L17.0074602,0 C18.6601943,0 20,1.34308127 20,3.00138694 L20,18.9986131 C20,20.6562333 18.6470745,22 17.0074602,22 L4.99253976,22 C3.33980569,22 2,20.6569187 2,18.9986131 L2,7.45660172 L9.45660172,0 L9.45660172,0 L9.45660172,0 Z" id="Shape"></path>
            <rect id="Rectangle-28" x="6" y="10" width="10" height="1"></rect>
            <rect id="Rectangle-28" x="6" y="13" width="10" height="1"></rect>
            <rect id="Rectangle-28" x="6" y="16" width="10" height="1"></rect>
        </g>
    </g>
</svg>