<?xml version="1.0" encoding="UTF-8" standalone="no"?>
<svg width="22px" height="22px" viewBox="0 0 22 22" version="1.1" xmlns="http://www.w3.org/2000/svg" xmlns:xlink="http://www.w3.org/1999/xlink">
    <defs></defs>
    <g id="Page-1" stroke="none" stroke-width="1" fill="none" fill-rule="evenodd">
        <g id="filter-copy">
            <path d="M18.5394075,3.431375 C18.6647825,3.73383333 18.6130741,3.992375 18.3842825,4.20629167 L12.9279908,9.66258333 L12.9279908,17.875 C12.9279908,18.1845417 12.7841991,18.4027083 12.4966158,18.5280833 C12.4009908,18.5649167 12.3081991,18.5833333 12.2196575,18.5833333 C12.0206158,18.5833333 11.8541575,18.5132083 11.7216991,18.3729583 L8.88836579,15.539625 C8.74811579,15.399375 8.67799079,15.233625 8.67799079,15.0416667 L8.67799079,9.66258333 L3.22169913,4.20629167 C2.99290746,3.992375 2.94119913,3.73383333 3.06657413,3.431375 C3.19194913,3.14379167 3.41011579,3 3.71965746,3 L17.8863241,3 C18.1958658,3 18.4140325,3.14379167 18.5394075,3.431375" id="Imported-Layers" fill="#444444"></path>
            <path d="M2,2 L20,2 L13,13.0001087 L9.10519791,13.0001087 L2,2 Z M9.5,21 L12.5,21 L12.5,15 L9.5,15 L9.5,21 Z" id="filter-2-icon" fill="#000000"></path>
        </g>
    </g>
</svg>