<?xml version="1.0" encoding="UTF-8" standalone="no"?>
<svg width="22px" height="22px" viewBox="0 0 22 22" version="1.1" xmlns="http://www.w3.org/2000/svg" xmlns:xlink="http://www.w3.org/1999/xlink">
    <defs></defs>
    <g id="Page-1" stroke="none" stroke-width="1" fill="none" fill-rule="evenodd">
        <g id="folders" fill="#444444">
            <path d="M19.9999993,15.807692 C19.9999993,16.4709227 19.7620763,17.0406919 19.2862302,17.5169996 C18.810384,17.9933072 18.2406148,18.2312303 17.5769226,18.2307688 L4.42307741,18.2307688 C3.75984669,18.2307688 3.1900775,17.9928457 2.71376985,17.5169996 C2.23746219,17.0411535 1.99953913,16.4713843 2.00000067,15.807692 L2.00000067,5.42307741 C2.00000067,4.75984669 2.23792373,4.1900775 2.71376985,3.71376985 C3.18961597,3.23746219 3.75938515,2.99953913 4.42307741,3.00000067 L7.88461562,3.00000067 C8.54784634,3.00000067 9.11761552,3.23792373 9.59392318,3.71376985 C10.0702308,4.18961597 10.3081539,4.75938515 10.3076924,5.42307741 L10.3076924,5.76923123 L17.5769226,5.76923123 C18.2401533,5.76923123 18.8099225,6.00715429 19.2862302,6.48300041 C19.7625378,6.95884653 20.0004609,7.52861572 19.9999993,8.19230798 L19.9999993,15.807692 Z" id="Shape"></path>
        </g>
    </g>
</svg>