<?xml version="1.0" encoding="UTF-8" standalone="no"?>
<svg width="22px" height="22px" viewBox="0 0 22 22" version="1.1" xmlns="http://www.w3.org/2000/svg" xmlns:xlink="http://www.w3.org/1999/xlink">
    <defs></defs>
    <g id="Page-1" stroke="none" stroke-width="1" fill="none" fill-rule="evenodd">
        <g id="frown" fill="#000000">
            <path d="M11,21 C16.523125,21 21,16.523125 21,11 C21,5.476875 16.523125,1 11,1 C5.476875,1 1,5.476875 1,11 C1,16.523125 5.476875,21 11,21 L11,21 Z M11,2.875 C15.4875,2.875 19.125,6.5125 19.125,11 C19.125,15.4875 15.4875,19.125 11,19.125 C6.5125,19.125 2.875,15.4875 2.875,11 C2.875,6.5125 6.5125,2.875 11,2.875 L11,2.875 Z M6,7.5 C6,6.67125 6.67125,6 7.5,6 C8.32875,6 9,6.67125 9,7.5 C9,8.32875 8.32875,9 7.5,9 C6.67125,9 6,8.32875 6,7.5 L6,7.5 Z M13,7.5 C13,6.67125 13.67125,6 14.5,6 C15.32875,6 16,6.67125 16,7.5 C16,8.32875 15.32875,9 14.5,9 C13.67125,9 13,8.32875 13,7.5 L13,7.5 Z" id="Shape"></path>
            <rect id="Rectangle-9" x="6" y="14" width="10" height="2" rx="1"></rect>
        </g>
    </g>
</svg>