<?xml version="1.0" encoding="UTF-8" standalone="no"?>
<svg width="22px" height="22px" viewBox="0 0 22 22" version="1.1" xmlns="http://www.w3.org/2000/svg" xmlns:xlink="http://www.w3.org/1999/xlink">
    <defs></defs>
    <g id="Page-1" stroke="none" stroke-width="1" fill="none" fill-rule="evenodd">
        <g id="ftp" fill="#000000">
            <path d="M17.125,8.9075 C16.5583333,6.104375 14.0333333,4 11,4 C8.59166667,4 6.5,5.3325 5.45833333,7.2825 C2.95,7.5425 1,9.614375 1,12.125 C1,14.814375 3.24166667,17 6,17 L16.8333333,17 C19.1333333,17 21,15.18 21,12.9375 C21,10.7925 19.2916667,9.05375 17.125,8.9075 L17.125,8.9075 Z M16.8333333,15.375 L6,15.375 C4.15833333,15.375 2.66666667,13.920625 2.66666667,12.125 C2.66666667,10.329375 4.15833333,8.875 6,8.875 L6.59166667,8.875 C7.14166667,6.998125 8.9,5.625 11,5.625 C13.5333333,5.625 15.5833333,7.62375 15.5833333,10.09375 L15.5833333,10.5 L16.8333333,10.5 C18.2166667,10.5 19.3333333,11.58875 19.3333333,12.9375 C19.3333333,14.28625 18.2166667,15.375 16.8333333,15.375 L16.8333333,15.375 Z" id="Shape"></path>
        </g>
    </g>
</svg>