<?xml version="1.0" encoding="UTF-8" standalone="no"?>
<svg width="22px" height="22px" viewBox="0 0 22 22" version="1.1" xmlns="http://www.w3.org/2000/svg" xmlns:xlink="http://www.w3.org/1999/xlink">
    <defs></defs>
    <g id="Page-1" stroke="none" stroke-width="1" fill="none" fill-rule="evenodd">
        <g id="fullscreen-exit" fill="#000000">
            <path d="M3,15.5714286 L6.42857143,15.5714286 L6.42857143,19 L8.71428571,19 L8.71428571,13.2857143 L3,13.2857143 L3,15.5714286 L3,15.5714286 Z M6.42857143,6.42857143 L3,6.42857143 L3,8.71428571 L8.71428571,8.71428571 L8.71428571,3 L6.42857143,3 L6.42857143,6.42857143 L6.42857143,6.42857143 Z M13.2857143,19 L15.5714286,19 L15.5714286,15.5714286 L19,15.5714286 L19,13.2857143 L13.2857143,13.2857143 L13.2857143,19 L13.2857143,19 Z M15.5714286,6.42857143 L15.5714286,3 L13.2857143,3 L13.2857143,8.71428571 L19,8.71428571 L19,6.42857143 L15.5714286,6.42857143 L15.5714286,6.42857143 Z" id="Shape"></path>
        </g>
    </g>
</svg>