<?xml version="1.0" encoding="UTF-8" standalone="no"?>
<svg width="22px" height="22px" viewBox="0 0 22 22" version="1.1" xmlns="http://www.w3.org/2000/svg" xmlns:xlink="http://www.w3.org/1999/xlink">
    <defs></defs>
    <g id="Page-1" stroke="none" stroke-width="1" fill="none" fill-rule="evenodd">
        <g id="fullscreen" fill="#000000">
            <path d="M5.28571429,13.2857143 L3,13.2857143 L3,19 L8.71428571,19 L8.71428571,16.7142857 L5.28571429,16.7142857 L5.28571429,13.2857143 L5.28571429,13.2857143 Z M3,8.71428571 L5.28571429,8.71428571 L5.28571429,5.28571429 L8.71428571,5.28571429 L8.71428571,3 L3,3 L3,8.71428571 L3,8.71428571 Z M16.7142857,16.7142857 L13.2857143,16.7142857 L13.2857143,19 L19,19 L19,13.2857143 L16.7142857,13.2857143 L16.7142857,16.7142857 L16.7142857,16.7142857 Z M13.2857143,3 L13.2857143,5.28571429 L16.7142857,5.28571429 L16.7142857,8.71428571 L19,8.71428571 L19,3 L13.2857143,3 L13.2857143,3 Z" id="Shape"></path>
        </g>
    </g>
</svg>