<?xml version="1.0" encoding="UTF-8" standalone="no"?>
<svg width="22px" height="22px" viewBox="0 0 22 22" version="1.1" xmlns="http://www.w3.org/2000/svg" xmlns:xlink="http://www.w3.org/1999/xlink">
    <defs></defs>
    <g id="Page-1" stroke="none" stroke-width="1" fill="none" fill-rule="evenodd">
        <g id="fullscreen-exit" fill="#000000">
            <path d="M4,15 L7,15 L7,18 L9,18 L9,13 L4,13 L4,15 L4,15 Z M7,7 L4,7 L4,9 L9,9 L9,4 L7,4 L7,7 L7,7 Z M13,18 L15,18 L15,15 L18,15 L18,13 L13,13 L13,18 L13,18 Z M15,7 L15,4 L13,4 L13,9 L18,9 L18,7 L15,7 L15,7 Z" id="Shape"></path>
        </g>
    </g>
</svg>