<?xml version="1.0" encoding="UTF-8" standalone="no"?>
<svg width="22px" height="22px" viewBox="0 0 22 22" version="1.1" xmlns="http://www.w3.org/2000/svg" xmlns:xlink="http://www.w3.org/1999/xlink">
    <defs></defs>
    <g id="Page-1" stroke="none" stroke-width="1" fill="none" fill-rule="evenodd">
        <g id="fullscreen" fill="#000000">
            <path d="M6,13 L4,13 L4,18 L9,18 L9,16 L6,16 L6,13 L6,13 Z M4,9 L6,9 L6,6 L9,6 L9,4 L4,4 L4,9 L4,9 Z M16,16 L13,16 L13,18 L18,18 L18,13 L16,13 L16,16 L16,16 Z M13,4 L13,6 L16,6 L16,9 L18,9 L18,4 L13,4 L13,4 Z" id="Shape"></path>
        </g>
    </g>
</svg>