<?xml version="1.0" encoding="UTF-8" standalone="no"?>
<svg width="22px" height="22px" viewBox="0 0 22 22" version="1.1" xmlns="http://www.w3.org/2000/svg" xmlns:xlink="http://www.w3.org/1999/xlink">
    <defs></defs>
    <g id="Page-1" stroke="none" stroke-width="1" fill="none" fill-rule="evenodd">
        <g id="info" fill="#000000">
            <path d="M11,2.94176642 C15.4533981,2.94176642 19.0582524,6.54573345 19.0582524,11 C19.0582524,15.4533928 15.4541262,19.0582336 11,19.0582336 C6.54669903,19.0582336 2.94174757,15.454218 2.94174757,11 C2.94174757,6.54651016 6.5457767,2.94176642 11,2.94176642 L11,2.94176642 Z M11,1 C5.47713592,1 1,5.47703376 1,11 C1,16.5228206 5.47713592,21 11,21 C16.5228155,21 21,16.5228206 21,11 C21,5.47703376 16.5228155,1 11,1 L11,1 L11,1 Z M10.833301,16.6218022 C9.4638835,17.1030204 8.33495146,16.5511704 8.56140777,15.236012 C8.78796117,13.9205623 10.0874272,11.104467 10.2728155,10.5719376 C10.4580583,10.0394081 10.1028155,9.89343586 9.72203883,10.110137 C9.50242718,10.2368373 9.17601942,10.4907718 8.89582524,10.7375703 C8.8181068,10.5811124 8.70883495,10.4023243 8.62679612,10.231109 C9.08402913,9.77290071 9.84834951,9.15857436 10.7531553,8.93590229 C11.8342233,8.66905504 13.6411165,9.09561258 12.8645146,11.1620404 C12.3099515,12.6348702 11.917767,13.6511908 11.6706311,14.4080913 C11.4236408,15.1652832 11.7169903,15.3240226 12.1494175,15.0290197 C12.487233,14.7983864 12.8470874,14.4846455 13.1108738,14.2413421 C13.2329612,14.4396936 13.2719903,14.5029466 13.3927184,14.7308615 C12.9348058,15.200235 11.7369903,16.2986437 10.833301,16.6218022 L10.833301,16.6218022 Z M13.6706796,7.51098554 C13.0495631,8.03968 12.128932,8.02822357 11.6138835,7.48516005 C11.0989806,6.94238779 11.1849029,6.07369004 11.8058738,5.54489849 C12.4269417,5.01625258 13.347767,5.02770901 13.8626699,5.57038418 C14.3775243,6.11339916 14.291699,6.98204837 13.6706796,7.51098554 L13.6706796,7.51098554 Z" id="info-6-icon"></path>
        </g>
    </g>
</svg>