<?xml version="1.0" encoding="UTF-8" standalone="no"?>
<svg width="22px" height="22px" viewBox="0 0 22 22" version="1.1" xmlns="http://www.w3.org/2000/svg" xmlns:xlink="http://www.w3.org/1999/xlink">
    <defs></defs>
    <g id="Page-1" stroke="none" stroke-width="1" fill="none" fill-rule="evenodd">
        <g id="info" fill="#000000">
            <path d="M10,16 L12,16 L12,10 L10,10 L10,16 L10,16 Z M11,1 C5.48,1 1,5.48 1,11 C1,16.52 5.48,21 11,21 C16.52,21 21,16.52 21,11 C21,5.48 16.52,1 11,1 L11,1 Z M11,19 C6.59,19 3,15.41 3,11 C3,6.59 6.59,3 11,3 C15.41,3 19,6.59 19,11 C19,15.41 15.41,19 11,19 L11,19 Z M10,8 L12,8 L12,6 L10,6 L10,8 L10,8 Z" id="Shape"></path>
        </g>
    </g>
</svg>