<?xml version="1.0" encoding="UTF-8" standalone="no"?>
<svg width="22px" height="22px" viewBox="0 0 22 22" version="1.1" xmlns="http://www.w3.org/2000/svg" xmlns:xlink="http://www.w3.org/1999/xlink">
    <defs></defs>
    <g id="Page-1" stroke="none" stroke-width="1" fill="none" fill-rule="evenodd">
        <g id="input-pdf" fill="#454545">
            <g id="PDF" transform="translate(2.000000, 1.000000)">
                <path d="M18.1463768,11.0454545 C17.7884058,10.6909091 16.9347826,10.5272727 15.7507246,10.5272727 C14.8971014,10.5272727 13.8507246,10.5272727 12.8318841,10.6909091 C12.473913,10.3363636 11.9782609,10.1727273 11.6202899,9.84545455 C10.573913,8.80909091 9.72028986,7.47272727 9.22463768,6.10909091 C9.22463768,5.94545455 9.22463768,5.94545455 9.38985507,5.75454545 C9.38985507,5.75454545 9.91304348,2.50909091 9.74782609,1.33636364 L9.74782609,0.981818182 L9.74782609,0.818181818 C9.38985507,0.463636364 9.05942029,0.136363636 8.53623188,0.136363636 L8.17826087,0.136363636 C7.65507246,0.136363636 7.32463768,0.490909091 7.13188406,0.818181818 C6.77391304,2.18181818 7.13188406,4.06363636 7.82028986,6.43636364 L7.65507246,6.95454545 C7.13188406,7.99090909 6.60869565,9.16363636 6.11304348,10.2 L6.11304348,10.3636364 C5.58985507,11.4 5.06666667,12.4090909 4.57101449,13.0909091 L4.04782609,13.2545455 C4.04782609,13.2545455 3.1942029,13.7727273 3.00144928,13.7727273 C1.45942029,14.8090909 0.413043478,15.8181818 0.247826087,16.6636364 C0.247826087,17.0181818 0.247826087,17.3454545 0.605797101,17.5090909 L1.12898551,17.6727273 C1.2942029,17.8363636 1.48695652,17.8363636 1.8173913,17.8363636 C3.02898551,17.8363636 4.21304348,16.4727273 6.11304348,13.2272727 C8.17826087,12.5454545 10.573913,12.0272727 12.6391304,11.7 C14.1811594,12.5454545 16.2463768,13.2272727 17.457971,13.2272727 L17.9811594,13.2272727 C18.1463768,13.2272727 18.5043478,13.0636364 18.5043478,12.8727273 C18.6695652,12.5181818 18.8623188,12.0272727 18.6695652,11.5090909 C18.4768116,11.4 18.3115942,11.2090909 18.1463768,11.0454545 L18.1463768,11.0454545 L18.1463768,11.0454545 Z M1.26666667,17.0181818 C1.43188406,16.5 2.31304348,15.3 3.49710145,14.2909091 C3.49710145,14.2909091 3.85507246,14.1272727 4.02028986,13.9363636 C2.64347826,15.9818182 1.78985507,16.8545455 1.26666667,17.0181818 L1.26666667,17.0181818 L1.26666667,17.0181818 Z M8.50869565,0.654545455 C8.86666667,0.654545455 9.03188406,1.5 9.03188406,2.37272727 C9.03188406,3.24545455 8.86666667,3.9 8.67391304,4.41818182 C8.50869565,3.73636364 8.31594203,2.7 8.31594203,2.04545455 C8.31594203,2.01818182 8.31594203,0.654545455 8.50869565,0.654545455 L8.50869565,0.654545455 L8.50869565,0.654545455 Z M6.27826087,12.4090909 C6.44347826,11.8909091 6.80144928,11.5636364 7.13188406,11.0454545 C7.82028986,9.84545455 8.17826087,8.83636364 8.50869565,7.99090909 C9.19710145,9.02727273 9.88550725,10.0363636 10.7391304,10.7181818 C10.9043478,10.8818182 11.0971014,10.8818182 11.0971014,11.0727273 C9.36231884,11.4 7.62753623,11.7272727 6.27826087,12.4090909 L6.27826087,12.4090909 L6.27826087,12.4090909 Z M17.7884058,12.2454545 C17.6231884,12.2454545 17.2652174,12.4090909 17.1,12.4090909 C16.4115942,12.4090909 15.557971,12.0545455 14.5115942,11.5636364 L15.7231884,11.5636364 C16.4115942,11.5636364 16.5768116,11.5636364 17.2652174,11.7272727 C17.9536232,11.8909091 17.9536232,12.2454545 17.7884058,12.2454545 L17.7884058,12.2454545 L17.7884058,12.2454545 Z" id="Shape"></path>
            </g>
        </g>
    </g>
</svg>