<?xml version="1.0" encoding="UTF-8" standalone="no"?>
<svg width="22px" height="22px" viewBox="0 0 22 22" version="1.1" xmlns="http://www.w3.org/2000/svg" xmlns:xlink="http://www.w3.org/1999/xlink">
    <defs></defs>
    <g id="Page-1" stroke="none" stroke-width="1" fill="none" fill-rule="evenodd">
        <g id="input-fixed-width" fill="#454545">
            <g id="Layer_1" transform="translate(2.000000, 4.000000)">
                <path d="M0.257627119,0.0322033898 L0.257627119,14.1372881 L19,14.1372881 L19,0.0322033898 L0.257627119,0.0322033898 L0.257627119,0.0322033898 Z M7.31016949,9.08135593 L7.31016949,6.47288136 L11.9474576,6.47288136 L11.9474576,9.08135593 L7.31016949,9.08135593 L7.31016949,9.08135593 Z M12.140678,10.3050847 L12.140678,12.9135593 L7.31016949,12.9135593 L7.31016949,10.3050847 L12.140678,10.3050847 L12.140678,10.3050847 Z M12.140678,2.64067797 L12.140678,5.24915254 L7.31016949,5.24915254 L7.31016949,2.64067797 L12.140678,2.64067797 L12.140678,2.64067797 Z M6.11864407,2.64067797 L6.11864407,5.24915254 L1.48135593,5.24915254 L1.48135593,2.64067797 L6.11864407,2.64067797 L6.11864407,2.64067797 Z M1.48135593,6.47288136 L6.11864407,6.47288136 L6.11864407,9.08135593 L1.48135593,9.08135593 L1.48135593,6.47288136 L1.48135593,6.47288136 Z M13.3644068,6.47288136 L18.0016949,6.47288136 L18.0016949,9.08135593 L13.3644068,9.08135593 L13.3644068,6.47288136 L13.3644068,6.47288136 Z M13.3644068,5.08813559 L13.3644068,2.67288136 L18.0016949,2.67288136 L18.0016949,5.28135593 L13.3644068,5.28135593 L13.3644068,5.08813559 L13.3644068,5.08813559 Z M1.48135593,10.3050847 L6.11864407,10.3050847 L6.11864407,12.9135593 L1.48135593,12.9135593 L1.48135593,10.3050847 L1.48135593,10.3050847 Z M13.3644068,12.9135593 L13.3644068,10.3050847 L18.0016949,10.3050847 L18.0016949,12.9135593 L13.3644068,12.9135593 L13.3644068,12.9135593 Z" id="Shape"></path>
            </g>
        </g>
    </g>
</svg>