<?xml version="1.0" encoding="UTF-8" standalone="no"?>
<svg width="22px" height="22px" viewBox="0 0 22 22" version="1.1" xmlns="http://www.w3.org/2000/svg" xmlns:xlink="http://www.w3.org/1999/xlink">
    <defs></defs>
    <g id="Page-1" stroke="none" stroke-width="1" fill="none" fill-rule="evenodd">
        <g id="input-document" fill="#000000">
            <path d="M19,1 L18.9989006,1 L3,1 L3,5.4926699 L4.68677405,5.4926699 C4.68677405,4.53834951 5.44859232,3.76466019 6.38831796,3.76466019 L9.06209072,3.76466019 L9.06209072,17.5729612 C9.06209072,18.5272816 8.30027245,19.3009709 7.36054682,19.3009709 L6.77462836,19.3009709 L6.77462836,21 L15.1679174,21 L15.1679174,19.3009709 L14.6661727,19.3009709 C13.7265427,19.3009709 12.9647244,18.5272816 12.9647244,17.5729612 L12.9647244,3.76466019 L15.6244921,3.76466019 C16.5641222,3.76466019 17.3259404,4.53834951 17.3259404,5.4926699 L18.9989006,5.4926699 L19,1 L19,1 Z" id="font-icon"></path>
        </g>
    </g>
</svg>