<?xml version="1.0" encoding="UTF-8" standalone="no"?>
<svg width="22px" height="22px" viewBox="0 0 22 22" version="1.1" xmlns="http://www.w3.org/2000/svg" xmlns:xlink="http://www.w3.org/1999/xlink">
    <defs></defs>
    <g id="Page-1" stroke="none" stroke-width="1" fill="none" fill-rule="evenodd">
        <g id="input-swift" fill="#000000">
            <path d="M21,11 C21,5.38815534 16.4484466,1 11,1 C5.58941748,1 1,5.34218447 1,11 C1,16.6909709 5.61771845,21 11,21 C16.4157282,21 21,16.6507767 21,11 L21,11 Z M6.26830097,7.33092233 C6.07742718,8.24849515 5.9592233,9.22553398 5.92140777,10.2334951 L3.05257282,10.2334951 C3.18048544,8.89135922 3.64053398,7.64616505 4.34980583,6.58097087 C4.9657767,6.89276699 5.61470874,7.13776699 6.26830097,7.33092233 L6.26830097,7.33092233 Z M5.9257767,11.7664563 C5.96936893,12.7833495 6.09514563,13.7675728 6.29470874,14.6897087 C5.62558252,14.8860194 4.98446602,15.1285437 4.36368932,15.4401942 C3.64650485,14.3703883 3.18135922,13.1175243 3.05257282,11.7664563 L5.9257767,11.7664563 L5.9257767,11.7664563 Z M6.69703883,16.1679126 C6.93660194,16.8858738 7.24150485,17.593932 7.63378641,18.2413592 C6.78752427,17.8472816 6.02165049,17.3096117 5.36800971,16.6590777 C5.78014563,16.4722816 6.225,16.3080097 6.69703883,16.1679126 L6.69703883,16.1679126 Z M11.7664563,14.0659223 L11.7664563,11.7664563 L14.5656796,11.7664563 C14.5240777,12.6643204 14.413301,13.5294175 14.2403883,14.3371845 C13.4499515,14.1916505 12.6191748,14.0999515 11.7664563,14.0659223 L11.7664563,14.0659223 Z M13.8290777,15.8192233 C13.4537379,16.8943204 12.766165,18.2898544 11.7664563,18.832767 L11.7664563,15.6 C12.4781068,15.6307282 13.1700485,15.7045146 13.8290777,15.8192233 L13.8290777,15.8192233 Z M11.7664563,10.2334951 L11.7664563,7.9623301 C12.6287864,7.92786408 13.4684951,7.83446602 14.2668447,7.68616505 C14.431068,8.48859223 14.5340291,9.3457767 14.5698544,10.2335437 L11.7664563,10.2335437 L11.7664563,10.2334951 Z M11.7664563,6.42815534 L11.7664563,3.06504854 C12.7979126,3.62524272 13.4969417,5.08757282 13.871165,6.20140777 C13.199466,6.32043689 12.493301,6.39684466 11.7664563,6.42815534 L11.7664563,6.42815534 Z M10.2334951,3.07878641 L10.2334951,6.42708738 C9.51563107,6.39509709 8.81815534,6.31898058 8.15432039,6.20140777 C8.52665049,5.09305825 9.21786408,3.6488835 10.2334951,3.07878641 L10.2334951,3.07878641 Z M10.2334951,7.96116505 L10.2334951,10.2334951 L7.45558252,10.2334951 C7.49140777,9.34567961 7.59441748,8.48854369 7.75859223,7.68606796 C8.54907767,7.83300971 9.38009709,7.92592233 10.2334951,7.96116505 L10.2334951,7.96116505 Z M7.78514563,14.337233 C7.61218447,13.5294175 7.50140777,12.6644175 7.45985437,11.7664563 L10.2335437,11.7664563 L10.2335437,14.0670388 C9.38970874,14.1018932 8.56771845,14.1931553 7.78514563,14.337233 L7.78514563,14.337233 Z M10.2334951,15.6011165 L10.2334951,18.8190291 C9.24752427,18.2656311 8.56941748,16.887233 8.19635922,15.8192718 C8.84762136,15.7059223 9.53082524,15.6324757 10.2334951,15.6011165 L10.2334951,15.6011165 Z M15.3284466,16.1678641 C15.7938835,16.3059223 16.232767,16.4676699 16.6400971,16.651165 C15.9937864,17.2962136 15.2372816,17.8307282 14.4015049,18.2248544 C14.791068,17.5782524 15.0912136,16.8785922 15.3284466,16.1678641 L15.3284466,16.1678641 Z M15.7308252,14.6896117 C15.9302913,13.7675243 16.0561165,12.783301 16.0997573,11.7664563 L18.9474272,11.7664563 C18.8190291,13.1134466 18.3562621,14.3627184 17.6427184,15.4304369 C17.0207282,15.1203883 16.3885437,14.8825728 15.7308252,14.6896117 L15.7308252,14.6896117 Z M17.6566505,6.59072816 C18.3621359,7.65378641 18.8199029,8.89543689 18.9474272,10.2334951 L16.1041262,10.2334951 C16.0663107,9.22558252 15.9480583,8.24854369 15.757233,7.33097087 C16.4080583,7.13859223 17.0502427,6.89601942 17.6566505,6.59072816 L17.6566505,6.59072816 Z M16.6593204,5.36839806 C16.2580583,5.55033981 15.8256311,5.71097087 15.3673301,5.84864078 C15.1387379,5.14087379 14.8513592,4.45087379 14.4850971,3.81495146 C15.2961165,4.20902913 16.0303398,4.73631068 16.6593204,5.36839806 L16.6593204,5.36839806 Z M7.55058252,3.79752427 C7.17621359,4.44432039 6.88781553,5.1376699 6.6581068,5.84859223 C6.19315534,5.7088835 5.75475728,5.54563107 5.3484466,5.36033981 C5.98495146,4.72252427 6.72878641,4.19179612 7.55058252,3.79752427 L7.55058252,3.79752427 Z" id="globe-3-icon"></path>
        </g>
    </g>
</svg>