<?xml version="1.0" encoding="UTF-8" standalone="no"?>
<svg width="22px" height="22px" viewBox="0 0 22 22" version="1.1" xmlns="http://www.w3.org/2000/svg" xmlns:xlink="http://www.w3.org/1999/xlink">
    <defs></defs>
    <g id="Page-1" stroke="none" stroke-width="1" fill="none" fill-rule="evenodd">
        <g id="input-custom" fill="#444444">
            <path d="M6.78133333,17.448 L7.72933333,16.5 L5.28133333,14.052 L4.33333333,15 L4.33333333,16.1146667 L5.66666667,16.1146667 L5.66666667,17.448 L6.78133333,17.448 L6.78133333,17.448 Z M12.2293333,7.78133333 C12.2293333,7.62866667 12.1526667,7.552 12,7.552 C11.9306667,7.552 11.8713333,7.576 11.8226667,7.62466667 L6.17666667,13.2706667 C6.128,13.3193333 6.104,13.378 6.104,13.448 C6.104,13.6006667 6.18066667,13.6773333 6.33333333,13.6773333 C6.40266667,13.6773333 6.462,13.6533333 6.51066667,13.6046667 L12.1566667,7.95866667 C12.2053333,7.91 12.2293333,7.85133333 12.2293333,7.78133333 L12.2293333,7.78133333 Z M11.6666667,5.78133333 L16,10.1146667 L7.33333333,18.7813333 L3,18.7813333 L3,14.448 L11.6666667,5.78133333 L11.6666667,5.78133333 Z M18.7813333,6.78133333 C18.7813333,7.14933333 18.6526667,7.462 18.396,7.71866667 L16.6666667,9.448 L12.3333333,5.11466667 L14.0626667,3.396 C14.3126667,3.132 14.6246667,3 15,3 C15.368,3 15.684,3.132 15.948,3.396 L18.396,5.83333333 C18.6526667,6.104 18.7813333,6.42 18.7813333,6.78133333 L18.7813333,6.78133333 Z" id="Imported-Layers"></path>
        </g>
    </g>
</svg>