<?xml version="1.0" encoding="UTF-8" standalone="no"?>
<svg width="22px" height="22px" viewBox="0 0 22 22" version="1.1" xmlns="http://www.w3.org/2000/svg" xmlns:xlink="http://www.w3.org/1999/xlink">
    <defs></defs>
    <g id="Page-1" stroke="none" stroke-width="1" fill="none" fill-rule="evenodd">
        <g id="input-document" fill="#000000">
            <path d="M18.7777778,1 L3.22222222,1 C2,1 1,2 1,3.22222222 L1,18.7777778 C1,20 2,21 3.22222222,21 L18.7777778,21 C20,21 21,20 21,18.7777778 L21,3.22222222 C21,2 20,1 18.7777778,1 L18.7777778,1 Z M14.8888889,16.5555556 L13.2222222,16.5555556 L11,8.22222222 L8.77777778,16.5555556 L7.11111111,16.5555556 L4.44444444,5.44444444 L6.33333333,5.44444444 L8,13.7777778 L10.2222222,5.44444444 L11.7777778,5.44444444 L14,13.7777778 L15.6666667,5.44444444 L17.5555991,5.44444444 L14.8888889,16.5555556 L14.8888889,16.5555556 Z" id="Shape"></path>
        </g>
    </g>
</svg>