<?xml version="1.0" encoding="UTF-8" standalone="no"?>
<svg width="22px" height="22px" viewBox="0 0 22 22" version="1.1" xmlns="http://www.w3.org/2000/svg" xmlns:xlink="http://www.w3.org/1999/xlink">
    <defs></defs>
    <g id="Page-1" stroke="none" stroke-width="1" fill="none" fill-rule="evenodd">
        <g id="input-internal" fill="#000000">
            <path d="M11,16.4083077 C6.23553846,16.4083077 2.37246154,15.2064615 2.37246154,13.7041538 L2.37246154,16.9233846 C2.37246154,18.4256923 6.23553846,19.6275385 11,19.6275385 C15.7644615,19.6275385 19.6275385,18.4256923 19.6275385,16.9233846 L19.6275385,13.7041538 C19.6275385,15.2064615 15.7644615,16.4083077 11,16.4083077" id="bottom"></path>
            <path d="M11,11.558 C6.23553846,11.558 2.37246154,10.3561538 2.37246154,8.85384615 L2.37246154,12.0730769 C2.37246154,13.5753846 6.23553846,14.7772308 11,14.7772308 C15.7644615,14.7772308 19.6275385,13.5753846 19.6275385,12.0730769 L19.6275385,8.85384615 C19.6275385,10.3132308 15.7644615,11.558 11,11.558" id="middle"></path>
            <path d="M11,2.37246154 C6.23553846,2.37246154 2.37246154,3.57430769 2.37246154,5.07661538 L2.37246154,7.22276923 C2.37246154,8.72507692 6.23553846,9.92692308 11,9.92692308 C15.7644615,9.92692308 19.6275385,8.72507692 19.6275385,7.22276923 L19.6275385,5.07661538 C19.6275385,3.57430769 15.7644615,2.37246154 11,2.37246154" id="top"></path>
        </g>
    </g>
</svg>