<?xml version="1.0" encoding="UTF-8" standalone="no"?>
<svg width="22px" height="22px" viewBox="0 0 22 22" version="1.1" xmlns="http://www.w3.org/2000/svg" xmlns:xlink="http://www.w3.org/1999/xlink">
    <defs></defs>
    <g id="Page-1" stroke="none" stroke-width="1" fill="none" fill-rule="evenodd">
        <g id="input-excel" fill="#000000">
            <path d="M18.7777778,1 L3.22222222,1 C2,1 1,2 1,3.22222222 L1,18.7777778 C1,20 2,21 3.22222222,21 L18.7777778,21 C20,21 21,20 21,18.7777778 L21,3.22222222 C21,2 20,1 18.7777778,1 L18.7777778,1 Z M15.6666667,16.5555556 L13.4444444,16.5555556 L11,12.3333333 L8.55555556,16.5555556 L6.33333333,16.5555556 L9.88888889,11 L6.33333333,5.44444444 L8.55555556,5.44444444 L11,9.66666667 L13.4444444,5.44444444 L15.6666667,5.44444444 L12.1111111,11 L15.6666667,16.5555556 L15.6666667,16.5555556 Z" id="Shape"></path>
        </g>
    </g>
</svg>