<?xml version="1.0" encoding="UTF-8" standalone="no"?>
<svg width="22px" height="22px" viewBox="0 0 22 22" version="1.1" xmlns="http://www.w3.org/2000/svg" xmlns:xlink="http://www.w3.org/1999/xlink">
    <defs></defs>
    <g id="Page-1" stroke="none" stroke-width="1" fill="none" fill-rule="evenodd">
        <g id="input-internal" fill="#454545">
            <g id="Imported-Layers" transform="translate(5.000000, 5.000000)">
                <path d="M6.5,0.269 C3.059,0.269 0.269,1.137 0.269,2.222 L0.269,3.772 C0.269,4.857 3.059,5.725 6.5,5.725 C9.941,5.725 12.731,4.857 12.731,3.772 L12.731,2.222 C12.731,1.137 9.941,0.269 6.5,0.269" id="Fill-1"></path>
                <path d="M6.5,6.903 C3.059,6.903 0.269,6.035 0.269,4.95 L0.269,7.275 C0.269,8.36 3.059,9.228 6.5,9.228 C9.941,9.228 12.731,8.36 12.731,7.275 L12.731,4.95 C12.731,6.004 9.941,6.903 6.5,6.903" id="Fill-2"></path>
                <path d="M6.5,10.406 C3.059,10.406 0.269,9.538 0.269,8.453 L0.269,10.778 C0.269,11.863 3.059,12.731 6.5,12.731 C9.941,12.731 12.731,11.863 12.731,10.778 L12.731,8.453 C12.731,9.538 9.941,10.406 6.5,10.406" id="Fill-3"></path>
            </g>
        </g>
    </g>
</svg>