<?xml version="1.0" encoding="UTF-8" standalone="no"?>
<svg width="22px" height="22px" viewBox="0 0 22 22" version="1.1" xmlns="http://www.w3.org/2000/svg" xmlns:xlink="http://www.w3.org/1999/xlink">
    <defs></defs>
    <g id="Page-1" stroke="none" stroke-width="1" fill="none" fill-rule="evenodd">
        <g id="input">
            <path d="M9.45660172,1 L9.45660172,1 L10.1637085,0.707106781 L2.70710678,8.1637085 L3,7.45660172 L3,18.9986131 C3,20.1050218 3.89248085,21 4.99253976,21 L17.0074602,21 C18.099337,21 19,20.0994016 19,18.9986131 L19,3.00138694 C19,1.89497819 18.1075191,1 17.0074602,1 L9.45660172,1 Z M9.45660172,0 L17.0074602,0 C18.6601943,0 20,1.34308127 20,3.00138694 L20,18.9986131 C20,20.6562333 18.6470745,22 17.0074602,22 L4.99253976,22 C3.33980569,22 2,20.6569187 2,18.9986131 L2,7.45660172 L9.45660172,0 L9.45660172,0 L9.45660172,0 Z" id="Shape" fill="#000000"></path>
            <path d="M1.05551748,2.6858122 L3.45551748,5.0858122 C3.49252913,5.12282385 3.52912954,5.14132968 3.57559973,5.14132968 C3.61220014,5.14132968 3.65867032,5.12282385 3.69527073,5.0858122 L3.94448252,4.83660041 C3.98149417,4.79958876 4,4.76257711 4,4.71651816 C4,4.67045922 3.98149417,4.63344757 3.94448252,4.59684716 L1.92323509,2.57518849 L3.94448252,0.544482522 C3.98149417,0.516518163 4,0.470459219 4,0.424400274 C4,0.387388622 3.98149417,0.341329678 3.94448252,0.313776559 L3.69527073,0.0551062371 C3.65867032,0.0180945853 3.61220014,0 3.57559973,0 C3.52912954,0 3.49252913,0.0180945853 3.45551748,0.0551062371 L1.05551748,2.45510624 C1.01850583,2.48265936 1,2.52912954 1,2.57518849 C1,2.61220014 1.01850583,2.65825908 1.05551748,2.6858122" id="Fill-49" fill="#0A0B09" transform="translate(2.500000, 2.570665) rotate(-180.000000) translate(-2.500000, -2.570665) "></path>
        </g>
    </g>
</svg>