<?xml version="1.0" encoding="UTF-8" standalone="no"?>
<svg width="22px" height="22px" viewBox="0 0 22 22" version="1.1" xmlns="http://www.w3.org/2000/svg" xmlns:xlink="http://www.w3.org/1999/xlink">
    <defs></defs>
    <g id="Page-1" stroke="none" stroke-width="1" fill="none" fill-rule="evenodd">
        <g id="lock" fill="#000000">
            <path d="M10.5196956,7.96060888 C6.9189603,7.96060888 4,10.8795692 4,14.4803044 C4,18.0810397 6.9189603,21 10.5196956,21 C14.1205283,21 17.0393911,18.0810397 17.0393911,14.4803044 C17.0393911,10.8795692 14.1205283,7.96060888 10.5196956,7.96060888 L10.5196956,7.96060888 Z M11.4646631,14.6004915 C11.2507643,14.7992267 11.1291633,15.0780704 11.1291633,15.3701273 L11.1291633,16.4886712 L10.0077427,16.4886712 L10.0077427,15.3701273 C10.0077427,15.0782654 9.88604416,14.7991292 9.67224289,14.6004915 C9.41373106,14.3601174 9.25200271,14.0172065 9.25200271,13.6364111 C9.25200271,12.9093405 9.84138237,12.3199608 10.568453,12.3199608 C11.2955236,12.3199608 11.8849032,12.9093405 11.8849032,13.6364111 C11.8849032,14.0172065 11.7231749,14.3601174 11.4646631,14.6004915 L11.4646631,14.6004915 Z M8.02492479,6.89613695 C7.13402926,7.18970536 6.31378323,7.63091123 5.58705393,8.20342082 L5.58705393,5.90821416 C5.58705393,3.20178745 7.78889013,1 10.4953169,1 C13.2017436,1 15.4035798,3.20178745 15.4035798,5.90821416 L15.4035798,8.16573134 C14.6772893,7.60263193 13.8585547,7.16810582 12.9657089,6.88033955 L12.9657089,5.90821416 C12.9657089,4.54602944 11.8575016,3.43787086 10.4953169,3.43787086 C9.13313213,3.43787086 8.02492479,4.5460782 8.02492479,5.90821416 L8.02492479,6.89613695 L8.02492479,6.89613695 Z" id="lock-18-icon"></path>
        </g>
    </g>
</svg>