<?xml version="1.0" encoding="UTF-8" standalone="no"?>
<svg width="22px" height="22px" viewBox="0 0 22 22" version="1.1" xmlns="http://www.w3.org/2000/svg" xmlns:xlink="http://www.w3.org/1999/xlink">
    <defs></defs>
    <g id="Page-1" stroke="none" stroke-width="1" fill="none" fill-rule="evenodd">
        <g id="lock" fill="#000000">
            <path d="M17,7 L16,7 L16,5 C16,2.24 13.76,0 11,0 C8.24,0 6,2.24 6,5 L6,7 L5,7 C3.9,7 3,7.9 3,9 L3,19 C3,20.1 3.9,21 5,21 L17,21 C18.1,21 19,20.1 19,19 L19,9 C19,7.9 18.1,7 17,7 L17,7 Z M11,1.9 C12.71,1.9 14.1,3.29 14.1,5 L14.1,7 L8,7 L8,5 L7.9,5 C7.9,3.29 9.29,1.9 11,1.9 L11,1.9 Z M17,19 L5,19 L5,9 L17,9 L17,19 L17,19 Z M11,16 C12.1,16 13,15.1 13,14 C13,12.9 12.1,12 11,12 C9.9,12 9,12.9 9,14 C9,15.1 9.9,16 11,16 L11,16 Z" id="Shape"></path>
        </g>
    </g>
</svg>