<?xml version="1.0" encoding="UTF-8" standalone="no"?>
<svg width="22px" height="22px" viewBox="0 0 22 22" version="1.1" xmlns="http://www.w3.org/2000/svg" xmlns:xlink="http://www.w3.org/1999/xlink">
    <defs></defs>
    <g id="Page-1" stroke="none" stroke-width="1" fill="none" fill-rule="evenodd">
        <g id="menu" fill="#444444">
            <path d="M20,15.9 L20,17.3 C20,17.4897 19.929875,17.6535 19.789625,17.7921 C19.649375,17.9307 19.483625,18 19.2916667,18 L3.70833333,18 C3.516375,18 3.350625,17.9307 3.210375,17.7921 C3.070125,17.6535 3,17.4897 3,17.3 L3,15.9 C3,15.7103 3.070125,15.5465 3.210375,15.4079 C3.350625,15.2693 3.516375,15.2 3.70833333,15.2 L19.2916667,15.2 C19.483625,15.2 19.649375,15.2693 19.789625,15.4079 C19.929875,15.5465 20,15.7103 20,15.9 L20,15.9 Z M20,10.3 L20,11.7 C20,11.8897 19.929875,12.0535 19.789625,12.1921 C19.649375,12.3307 19.483625,12.4 19.2916667,12.4 L3.70833333,12.4 C3.516375,12.4 3.350625,12.3307 3.210375,12.1921 C3.070125,12.0535 3,11.8897 3,11.7 L3,10.3 C3,10.1103 3.070125,9.9465 3.210375,9.8079 C3.350625,9.6693 3.516375,9.6 3.70833333,9.6 L19.2916667,9.6 C19.483625,9.6 19.649375,9.6693 19.789625,9.8079 C19.929875,9.9465 20,10.1103 20,10.3 L20,10.3 Z M20,4.7 L20,6.1 C20,6.2897 19.929875,6.4535 19.789625,6.5921 C19.649375,6.7307 19.483625,6.8 19.2916667,6.8 L3.70833333,6.8 C3.516375,6.8 3.350625,6.7307 3.210375,6.5921 C3.070125,6.4535 3,6.2897 3,6.1 L3,4.7 C3,4.5103 3.070125,4.3465 3.210375,4.2079 C3.350625,4.0693 3.516375,4 3.70833333,4 L19.2916667,4 C19.483625,4 19.649375,4.0693 19.789625,4.2079 C19.929875,4.3465 20,4.5103 20,4.7 L20,4.7 Z" id="Imported-Layers"></path>
        </g>
    </g>
</svg>