<?xml version="1.0" encoding="UTF-8" standalone="no"?>
<svg width="22px" height="22px" viewBox="0 0 22 22" version="1.1" xmlns="http://www.w3.org/2000/svg" xmlns:xlink="http://www.w3.org/1999/xlink">
    <defs></defs>
    <g id="Page-1" stroke="none" stroke-width="1" fill="none" fill-rule="evenodd">
        <g id="move1" fill="#000000">
            <path d="M5.5,5.70588235 L8,5.70588235 L4.5,2 L1,5.70588235 L3.5,5.70588235 L3.5,16.2941176 L1,16.2941176 L4.5,20 L8,16.2941176 L5.5,16.2941176 L5.5,5.70588235 L5.5,5.70588235 Z M9,4 L9,6 L21,6 L21,4 L9,4 L9,4 Z M9,18 L21,18 L21,16 L9,16 L9,18 L9,18 Z M9,12 L21,12 L21,10 L9,10 L9,12 L9,12 Z" id="Shape"></path>
        </g>
    </g>
</svg>