<?xml version="1.0" encoding="UTF-8" standalone="no"?>
<svg width="26px" height="22px" viewBox="0 0 26 22" version="1.1" xmlns="http://www.w3.org/2000/svg" xmlns:xlink="http://www.w3.org/1999/xlink">
    <defs></defs>
    <g id="Page-1" stroke="none" stroke-width="1" fill="none" fill-rule="evenodd">
        <g id="output1" fill="#000000">
            <path d="M7,10.99 L3,6.99 L3,9.99 L1,9.99 L1,11.99 L3,11.99 L3,14.99 L7,10.99 Z" id="Shape" transform="translate(4.000000, 10.990000) scale(-1, 1) translate(-4.000000, -10.990000) "></path>
            <path d="M1,14 L1,18.0049107 C1,19.1073772 1.89764516,20 3.00494659,20 L22.9950534,20 C24.1029738,20 25,19.1067681 25,18.0049107 L25,3.99508929 C25,2.8926228 24.1023548,2 22.9950534,2 L3.00494659,2 C1.89702623,2 1,2.8932319 1,3.99508929 L1,8 L2,8 L2,3.99508929 C2,3.44636221 2.44847193,3 3.00494659,3 L22.9950534,3 C23.5514288,3 24,3.4462717 24,3.99508929 L24,18.0049107 C24,18.5536378 23.5515281,19 22.9950534,19 L3.00494659,19 C2.44857122,19 2,18.5537283 2,18.0049107 L2,14 L1,14 Z" id="Shape"></path>
        </g>
    </g>
</svg>