<?xml version="1.0" encoding="UTF-8" standalone="no"?>
<svg width="22px" height="22px" viewBox="0 0 22 22" version="1.1" xmlns="http://www.w3.org/2000/svg" xmlns:xlink="http://www.w3.org/1999/xlink">
    <defs></defs>
    <g id="Page-1" stroke="none" stroke-width="1" fill="none" fill-rule="evenodd">
        <g id="output">
            <path d="M9.45660172,1 L9.45660172,1 L10.1637085,0.707106781 L2.70710678,8.1637085 L3,7.45660172 L3,18.9986131 C3,20.1050218 3.89248085,21 4.99253976,21 L17.0074602,21 C18.099337,21 19,20.0994016 19,18.9986131 L19,3.00138694 C19,1.89497819 18.1075191,1 17.0074602,1 L9.45660172,1 Z M9.45660172,0 L17.0074602,0 C18.6601943,0 20,1.34308127 20,3.00138694 L20,18.9986131 C20,20.6562333 18.6470745,22 17.0074602,22 L4.99253976,22 C3.33980569,22 2,20.6569187 2,18.9986131 L2,7.45660172 L9.45660172,0 L9.45660172,0 L9.45660172,0 Z" id="Shape" fill="#000000" transform="translate(11.000000, 11.000000) scale(-1, 1) translate(-11.000000, -11.000000) "></path>
            <path d="M18.0555175,2.6858122 L20.4555175,5.0858122 C20.4925291,5.12282385 20.5291295,5.14132968 20.5755997,5.14132968 C20.6122001,5.14132968 20.6586703,5.12282385 20.6952707,5.0858122 L20.9444825,4.83660041 C20.9814942,4.79958876 21,4.76257711 21,4.71651816 C21,4.67045922 20.9814942,4.63344757 20.9444825,4.59684716 L18.9232351,2.57518849 L20.9444825,0.544482522 C20.9814942,0.516518163 21,0.470459219 21,0.424400274 C21,0.387388622 20.9814942,0.341329678 20.9444825,0.313776559 L20.6952707,0.0551062371 C20.6586703,0.0180945853 20.6122001,0 20.5755997,0 C20.5291295,0 20.4925291,0.0180945853 20.4555175,0.0551062371 L18.0555175,2.45510624 C18.0185058,2.48265936 18,2.52912954 18,2.57518849 C18,2.61220014 18.0185058,2.65825908 18.0555175,2.6858122" id="Fill-49" fill="#0A0B09" transform="translate(19.500000, 2.570665) rotate(-180.000000) translate(-19.500000, -2.570665) "></path>
        </g>
    </g>
</svg>