<?xml version="1.0" encoding="UTF-8" standalone="no"?>
<svg width="22px" height="22px" viewBox="0 0 22 22" version="1.1" xmlns="http://www.w3.org/2000/svg" xmlns:xlink="http://www.w3.org/1999/xlink">
    <defs></defs>
    <g id="Page-1" stroke="none" stroke-width="1" fill="none" fill-rule="evenodd">
        <g id="output-delimited" fill="#000000">
            <g id="Imported-EPS" transform="translate(6.000000, 2.000000)">
                <path d="M7.6632,13.5036 C5.8032,15.5868 3.9432,17.0004 2.0832,17.9304 L1.3764,16.5168 C3.6828,15.3636 5.3196,13.95 6.0264,12.3504 C6.9564,10.9368 7.44,9.5604 7.44,8.6304 C7.44,8.4072 7.44,8.184 7.2168,7.9236 C6.9936,7.9236 6.7704,7.7004 6.51,7.7004 L4.2036,7.9236 C3.2736,7.9236 2.3436,7.7004 1.4136,6.9936 C0.4836,6.2868 0,5.58 0,4.2036 C0,3.2736 0.2232,2.3436 0.93,1.4136 C1.6368,0.4836 2.79,0 4.4268,0 C5.8404,0 7.2168,0.7068 8.37,1.86 C9.5232,3.0132 10.23,4.65 10.23,6.7332 C10.23,9.0768 9.3,11.4204 7.6632,13.5036" id="Page-1"></path>
            </g>
        </g>
    </g>
</svg>