<?xml version="1.0" encoding="UTF-8" standalone="no"?>
<svg width="22px" height="22px" viewBox="0 0 22 22" version="1.1" xmlns="http://www.w3.org/2000/svg" xmlns:xlink="http://www.w3.org/1999/xlink">
    <defs></defs>
    <g id="Page-1" stroke="none" stroke-width="1" fill="none" fill-rule="evenodd">
        <g id="output-report" fill="#000000">
            <path d="M19,16.05 L19,17.35 C19,17.52615 18.934,17.67825 18.802,17.80695 C18.67,17.93565 18.514,18 18.3333333,18 L3.66666667,18 C3.486,18 3.33,17.93565 3.198,17.80695 C3.066,17.67825 3,17.52615 3,17.35 L3,16.05 C3,15.87385 3.066,15.72175 3.198,15.59305 C3.33,15.46435 3.486,15.4 3.66666667,15.4 L18.3333333,15.4 C18.514,15.4 18.67,15.46435 18.802,15.59305 C18.934,15.72175 19,15.87385 19,16.05 L19,16.05 Z M19,10.85 L19,12.15 C19,12.32615 18.934,12.47825 18.802,12.60695 C18.67,12.73565 18.514,12.8 18.3333333,12.8 L3.66666667,12.8 C3.486,12.8 3.33,12.73565 3.198,12.60695 C3.066,12.47825 3,12.32615 3,12.15 L3,10.85 C3,10.67385 3.066,10.52175 3.198,10.39305 C3.33,10.26435 3.486,10.2 3.66666667,10.2 L18.3333333,10.2 C18.514,10.2 18.67,10.26435 18.802,10.39305 C18.934,10.52175 19,10.67385 19,10.85 L19,10.85 Z M19,5.65 L19,6.95 C19,7.12615 18.934,7.27825 18.802,7.40695 C18.67,7.53565 18.514,7.6 18.3333333,7.6 L3.66666667,7.6 C3.486,7.6 3.33,7.53565 3.198,7.40695 C3.066,7.27825 3,7.12615 3,6.95 L3,5.65 C3,5.47385 3.066,5.32175 3.198,5.19305 C3.33,5.06435 3.486,5 3.66666667,5 L18.3333333,5 C18.514,5 18.67,5.06435 18.802,5.19305 C18.934,5.32175 19,5.47385 19,5.65 L19,5.65 Z" id="Imported-Layers"></path>
        </g>
    </g>
</svg>