<?xml version="1.0" encoding="UTF-8" standalone="no"?>
<svg width="22px" height="22px" viewBox="0 0 22 22" version="1.1" xmlns="http://www.w3.org/2000/svg" xmlns:xlink="http://www.w3.org/1999/xlink">
    <defs></defs>
    <g id="Page-1" stroke="none" stroke-width="1" fill="none" fill-rule="evenodd">
        <g id="package" fill="#000000">
            <path d="M9.99099177,1 L2,5.61365498 L2,15.2403315 L12.0235537,21.0772723 L20,16.433306 L20,6.80672716 L9.99099177,1 L9.99099177,1 Z M17.8915379,7.27642947 L15.7035149,8.48819602 L7.92235895,3.88523052 L9.9892346,2.69191429 L17.8915379,7.27642947 L17.8915379,7.27642947 Z M11.2440519,18.9305916 L3.44693498,14.3987429 L3.44693498,7.27926047 L11.2440519,11.7926101 L11.2440519,18.9305916 L11.2440519,18.9305916 Z M12.0008081,10.5388178 L4.2166259,6.02473602 L6.46688216,4.72555007 L14.2181661,9.31084621 L12.0008081,10.5388178 L12.0008081,10.5388178 Z M18.5392029,15.5914246 L12.7083634,18.9861379 L12.7083634,11.8208225 L18.5392029,8.59162522 L18.5392029,15.5914246 L18.5392029,15.5914246 Z M14.1790202,16.6341119 L14.1741392,15.2005998 L14.4596799,15.0343517 L14.4596799,16.470646 L14.1790202,16.6341119 L14.1790202,16.6341119 Z M17.2033115,14.8732774 L16.9670693,15.0108251 L16.9670693,13.5745307 L17.247729,13.4111136 L17.247729,14.847115 L17.2033115,14.8732774 L17.2033115,14.8732774 Z M16.079062,15.5278734 L15.7984023,15.6912906 L15.7984023,14.2549963 L16.079062,14.0915791 L16.079062,15.5278734 L16.079062,15.5278734 Z M16.5567692,15.2497519 L16.2711796,15.416 L16.2711796,13.9797057 L16.5567692,13.8134576 L16.5567692,15.2497519 L16.5567692,15.2497519 Z M15.6095549,15.8011628 L15.3286023,15.9647752 L15.3286023,14.5284809 L15.6095549,14.3648685 L15.6095549,15.8011628 L15.6095549,15.8011628 Z M14.9373383,16.1925244 L14.6566786,16.3559416 L14.6566786,14.9196473 L14.9373383,14.7562301 L14.9373383,16.1925244 L14.9373383,16.1925244 Z" id="shipping-box-2-icon"></path>
        </g>
    </g>
</svg>