<?xml version="1.0" encoding="UTF-8" standalone="no"?>
<svg width="22px" height="22px" viewBox="0 0 22 22" version="1.1" xmlns="http://www.w3.org/2000/svg" xmlns:xlink="http://www.w3.org/1999/xlink">
    <defs></defs>
    <g id="Page-1" stroke="none" stroke-width="1" fill="none" fill-rule="evenodd">
        <g id="paste" fill="#000000">
            <path d="M17.2222222,2.81818182 L13.5066667,2.81818182 C13.1333333,1.76363636 12.1555556,1 11,1 C9.84444444,1 8.86666667,1.76363636 8.49333333,2.81818182 L4.77777778,2.81818182 C3.8,2.81818182 3,3.63636364 3,4.63636364 L3,19.1818182 C3,20.1818182 3.8,21 4.77777778,21 L17.2222222,21 C18.2,21 19,20.1818182 19,19.1818182 L19,4.63636364 C19,3.63636364 18.2,2.81818182 17.2222222,2.81818182 L17.2222222,2.81818182 Z M11,2.81818182 C11.4888889,2.81818182 11.8888889,3.22727273 11.8888889,3.72727273 C11.8888889,4.22727273 11.4888889,4.63636364 11,4.63636364 C10.5111111,4.63636364 10.1111111,4.22727273 10.1111111,3.72727273 C10.1111111,3.22727273 10.5111111,2.81818182 11,2.81818182 L11,2.81818182 Z M17.2222222,19.1818182 L4.77777778,19.1818182 L4.77777778,4.63636364 L6.55555556,4.63636364 L6.55555556,7.36363636 L15.4444444,7.36363636 L15.4444444,4.63636364 L17.2222222,4.63636364 L17.2222222,19.1818182 L17.2222222,19.1818182 Z" id="Shape"></path>
        </g>
    </g>
</svg>