<?xml version="1.0" encoding="UTF-8" standalone="no"?>
<svg width="22px" height="22px" viewBox="0 0 22 22" version="1.1" xmlns="http://www.w3.org/2000/svg" xmlns:xlink="http://www.w3.org/1999/xlink">
    <defs></defs>
    <g id="Page-1" stroke="none" stroke-width="1" fill="none" fill-rule="evenodd">
        <g id="pin-map" fill="#000000">
            <path d="M15.3967276,2.87195015 C12.9676874,0.442909943 9.03246811,0.442909943 6.60280603,2.87195015 C4.17376582,5.2997466 4.17376582,9.2386971 6.60280603,11.6652498 C6.6034279,11.6652498 11.0000777,15.9748373 11.0000777,20.94983 C11.0000777,15.9748373 15.3967276,11.6652498 15.3967276,11.6652498 C17.8263896,9.2386971 17.8263896,5.2997466 15.3967276,2.87195015 Z M11.0000777,9.75609635 C9.62511412,9.75609635 8.51258137,8.6435636 8.51258137,7.26859998 C8.51258137,5.89363636 9.62511412,4.78110361 11.0000777,4.78110361 C12.3750414,4.78110361 13.4875741,5.89363636 13.4875741,7.26859998 C13.4875741,8.6435636 12.3750414,9.75609635 11.0000777,9.75609635 Z" id="Path"></path>
        </g>
    </g>
</svg>