<?xml version="1.0" encoding="UTF-8" standalone="no"?>
<svg width="22px" height="22px" viewBox="0 0 22 22" version="1.1" xmlns="http://www.w3.org/2000/svg" xmlns:xlink="http://www.w3.org/1999/xlink">
    <defs></defs>
    <g id="Page-1" stroke="none" stroke-width="1" fill="none" fill-rule="evenodd">
        <g id="pin" fill="#010101">
            <path d="M6.94741751,10.1430632 L4.22112221,12.8954582 C4.08475067,13.0279518 4,13.2157626 4,13.4223098 C4,13.8274961 4.32777018,14.1593181 4.72946404,14.1593181 L9.89475392,14.1593181 L9.89475392,18.7651229 C9.89475392,19.2735219 10.307437,19.6861703 10.8157788,19.6861703 C11.3241612,19.6861703 11.7368848,19.2735219 11.7368848,18.7651229 L11.7368848,14.1593181 L17.2704143,14.1593181 C17.6718243,14.1593181 18,13.8274961 18,13.4223098 C18,13.2198181 17.9186556,13.0355762 17.7863391,12.9027582 L15.0525419,10.1392104 L15.0525419,3.84225702 L15.6052866,3.84225702 C16.1135879,3.84225702 16.5263926,3.42952753 16.5263926,2.92112851 C16.5263926,2.41272949 16.1135879,2 15.6052866,2 L6.39475392,2 C5.88641209,2 5.47372903,2.41272949 5.47372903,2.92112851 C5.47372903,3.42956809 5.88641209,3.84225702 6.39475392,3.84225702 L6.94741751,3.84225702 L6.94741751,10.1430632 L6.94741751,10.1430632 Z" id="Shape"></path>
        </g>
    </g>
</svg>