<?xml version="1.0" encoding="UTF-8" standalone="no"?>
<svg width="22px" height="22px" viewBox="0 0 22 22" version="1.1" xmlns="http://www.w3.org/2000/svg" xmlns:xlink="http://www.w3.org/1999/xlink">
    <defs></defs>
    <g id="Page-1" stroke="none" stroke-width="1" fill="none" fill-rule="evenodd">
        <g id="pin" fill="#000000">
            <path d="M11.9196504,13.5744061 L11.9196504,17.8111216 L10.0803043,19.6354508 L10.0803043,13.5744061 L11.9196504,13.5744061 L11.9196504,13.5744061 Z" id="pin-icon-path"></path>
            <path d="M6,12.4436142 L16,12.4436142 C16,8.29862858 13.3815835,8.09639775 13.3815835,5.1772358 C13.3815835,2.9411174 14.7809611,2.47030088 14.8422952,1 L7.15775,1 C7.21967216,2.48382515 8.61846176,2.92338659 8.61846176,5.1772358 L8.61846176,5.17768812 C8.61846176,8.10530839 6,8.28505907 6,12.4436142 L6,12.4436142 Z" id="pin-icon-path"></path>
            <path d="M9.75477194,3.269816 L10.8581987,3.269816 L10.8581987,7.39960377 L9.75477194,7.39960377 L9.75477194,3.269816 L9.75477194,3.269816 Z" id="pin-icon-path"></path>
        </g>
    </g>
</svg>