<?xml version="1.0" encoding="UTF-8" standalone="no"?>
<svg width="22px" height="22px" viewBox="0 0 22 22" version="1.1" xmlns="http://www.w3.org/2000/svg" xmlns:xlink="http://www.w3.org/1999/xlink">
    <defs></defs>
    <g id="Page-1" stroke="none" stroke-width="1" fill="none" fill-rule="evenodd">
        <g id="proposed" fill="#000000">
            <path d="M15.24,6.76 C14.07,5.59 12.54,5 11,5 L11,11 L6.76,15.24 C9.1,17.58 12.9,17.58 15.25,15.24 C17.59,12.9 17.59,9.1 15.24,6.76 L15.24,6.76 Z M11,1 C5.48,1 1,5.48 1,11 C1,16.52 5.48,21 11,21 C16.52,21 21,16.52 21,11 C21,5.48 16.52,1 11,1 L11,1 Z M11,19 C6.58,19 3,15.42 3,11 C3,6.58 6.58,3 11,3 C15.42,3 19,6.58 19,11 C19,15.42 15.42,19 11,19 L11,19 Z" id="Shape"></path>
        </g>
    </g>
</svg>