<?xml version="1.0" encoding="UTF-8" standalone="no"?>
<svg width="22px" height="22px" viewBox="0 0 22 22" version="1.1" xmlns="http://www.w3.org/2000/svg" xmlns:xlink="http://www.w3.org/1999/xlink">
    <defs></defs>
    <g id="Page-1" stroke="none" stroke-width="1" fill="none" fill-rule="evenodd">
        <g id="refresh" fill="#000000">
            <path d="M17.3545966,4.64375 C15.7223265,3.0125 13.4821764,2 10.9943715,2 C6.01876173,2 2,6.0275 2,11 C2,15.9725 6.01876173,20 10.9943715,20 C15.1932458,20 18.6941839,17.13125 19.69606,13.25 L17.3545966,13.25 C16.4315197,15.87125 13.9324578,17.75 10.9943715,17.75 C7.26829268,17.75 4.24015009,14.72375 4.24015009,11 C4.24015009,7.27625 7.26829268,4.25 10.9943715,4.25 C12.8630394,4.25 14.5290807,5.02625 15.7448405,6.2525 L12.120075,9.875 L20,9.875 L20,2 L17.3545966,4.64375 L17.3545966,4.64375 Z" id="Shape"></path>
        </g>
    </g>
</svg>