<?xml version="1.0" encoding="UTF-8" standalone="no"?>
<svg width="22px" height="22px" viewBox="0 0 22 22" version="1.1" xmlns="http://www.w3.org/2000/svg" xmlns:xlink="http://www.w3.org/1999/xlink">
    <defs></defs>
    <g id="Page-1" stroke="none" stroke-width="1" fill="none" fill-rule="evenodd">
        <g id="restore" fill="#000000">
            <path d="M12,2 C7.03,2 3,6.03 3,11 L0,11 L3.89,14.89 L3.96,15.03 L8,11 L5,11 C5,7.13 8.13,4 12,4 C15.87,4 19,7.13 19,11 C19,14.87 15.87,18 12,18 C10.07,18 8.32,17.21 7.06,15.94 L5.64,17.36 C7.27,18.99 9.51,20 12,20 C16.97,20 21,15.97 21,11 C21,6.03 16.97,2 12,2 L12,2 Z M11,7 L11,12 L15.28,14.54 L16,13.33 L12.5,11.25 L12.5,7 L11,7 L11,7 Z" id="Shape"></path>
        </g>
    </g>
</svg>