<?xml version="1.0" encoding="UTF-8" standalone="no"?>
<svg width="22px" height="22px" viewBox="0 0 22 22" version="1.1" xmlns="http://www.w3.org/2000/svg" xmlns:xlink="http://www.w3.org/1999/xlink">
    <defs></defs>
    <g id="Page-1" stroke="none" stroke-width="1" fill="none" fill-rule="evenodd">
        <g id="roles" fill="#000000">
            <path d="M14.6363636,10.5714286 C16.1454545,10.5714286 17.3545455,9.32714286 17.3545455,7.78571429 C17.3545455,6.24428571 16.1454545,5 14.6363636,5 C13.1272727,5 11.9090909,6.24428571 11.9090909,7.78571429 C11.9090909,9.32714286 13.1272727,10.5714286 14.6363636,10.5714286 L14.6363636,10.5714286 Z M7.36363636,10.5714286 C8.87272727,10.5714286 10.0818182,9.32714286 10.0818182,7.78571429 C10.0818182,6.24428571 8.87272727,5 7.36363636,5 C5.85454545,5 4.63636364,6.24428571 4.63636364,7.78571429 C4.63636364,9.32714286 5.85454545,10.5714286 7.36363636,10.5714286 L7.36363636,10.5714286 Z M7.36363636,12.4285714 C5.24545455,12.4285714 1,13.515 1,15.6785714 L1,18 L13.7272727,18 L13.7272727,15.6785714 C13.7272727,13.515 9.48181818,12.4285714 7.36363636,12.4285714 L7.36363636,12.4285714 Z M14.6363636,12.4285714 C14.3727273,12.4285714 14.0727273,12.4471429 13.7545455,12.475 C14.8090909,13.255 15.5454545,14.3042857 15.5454545,15.6785714 L15.5454545,18 L21,18 L21,15.6785714 C21,13.515 16.7545455,12.4285714 14.6363636,12.4285714 L14.6363636,12.4285714 Z" id="Shape"></path>
        </g>
    </g>
</svg>