<?xml version="1.0" encoding="UTF-8" standalone="no"?>
<svg width="22px" height="22px" viewBox="0 0 22 22" version="1.1" xmlns="http://www.w3.org/2000/svg" xmlns:xlink="http://www.w3.org/1999/xlink">
    <defs></defs>
    <g id="Page-1" stroke="none" stroke-width="1" fill="none" fill-rule="evenodd">
        <g id="save" fill="#000000">
            <path d="M16,2 L4,2 C2.89,2 2,2.9 2,4 L2,18 C2,19.1 2.89,20 4,20 L18,20 C19.1,20 20,19.1 20,18 L20,6 L16,2 L16,2 Z M11,18 C9.34,18 8,16.66 8,15 C8,13.34 9.34,12 11,12 C12.66,12 14,13.34 14,15 C14,16.66 12.66,18 11,18 L11,18 Z M14,8 L4,8 L4,4 L14,4 L14,8 L14,8 Z" id="Shape"></path>
        </g>
    </g>
</svg>