<?xml version="1.0" encoding="UTF-8" standalone="no"?>
<svg width="22px" height="22px" viewBox="0 0 22 22" version="1.1" xmlns="http://www.w3.org/2000/svg" xmlns:xlink="http://www.w3.org/1999/xlink" xmlns:sketch="http://www.bohemiancoding.com/sketch/ns">
    <!-- Generator: Sketch 3.3.3 (12081) - http://www.bohemiancoding.com/sketch -->
    <title>search</title>
    <desc>Created with Sketch.</desc>
    <defs></defs>
    <g id="Xceptor-Icons" stroke="none" stroke-width="1" fill="none" fill-rule="evenodd" sketch:type="MSPage">
        <g id="search" sketch:type="MSArtboardGroup" fill="#0A0B09">
            <g sketch:type="MSLayerGroup" transform="translate(2.000000, 2.000000)" id="Fill-1">
                <path d="M2.26971429,12.7474286 C2.94257143,13.4211429 3.75085714,13.9602857 4.67485714,14.364 C5.61685714,14.7677143 6.59828571,14.9605714 7.61828571,14.9605714 C9.19542857,14.9605714 10.6191429,14.5182857 11.9082857,13.6328571 L15.5828571,17.3074286 C15.852,17.5765714 16.1605714,17.712 16.5445714,17.712 C16.9294286,17.712 17.238,17.5765714 17.526,17.3074286 C17.7951429,17.0185714 17.9305714,16.7108571 17.9305714,16.326 C17.9305714,15.9608571 17.7951429,15.6334286 17.526,15.3642857 L13.8514286,11.6897143 C14.7368571,10.4005714 15.1791429,8.97685714 15.1791429,7.39971429 C15.1791429,6.37971429 14.9862857,5.39828571 14.5825714,4.45542857 C14.1788571,3.53228571 13.6397143,2.724 12.9668571,2.05114286 C12.2931429,1.37742857 11.4848571,0.839142857 10.5617143,0.434571429 C9.61885714,0.0308571429 8.63742857,-0.162 7.61828571,-0.162 C6.59828571,-0.162 5.61685714,0.0308571429 4.67485714,0.434571429 C3.75085714,0.839142857 2.94257143,1.37742857 2.26971429,2.05114286 C1.596,2.724 1.05771429,3.53228571 0.653142857,4.45542857 C0.249428571,5.39828571 0.0565714286,6.37971429 0.0565714286,7.39971429 C0.0565714286,8.41885714 0.249428571,9.40028571 0.653142857,10.3431429 C1.05771429,11.2662857 1.596,12.0745714 2.26971429,12.7474286 L2.26971429,12.7474286 Z M7.61828571,2.58942857 C8.94514286,2.58942857 10.0808571,3.05142857 11.0237143,3.99428571 C11.9657143,4.93714286 12.4277143,6.072 12.4277143,7.39971429 C12.4277143,8.72657143 11.9657143,9.86228571 11.0237143,10.8051429 C10.0808571,11.7471429 8.94514286,12.2091429 7.61828571,12.2091429 C6.29057143,12.2091429 5.15571429,11.7471429 4.21285714,10.8051429 C3.27,9.86228571 2.808,8.72657143 2.808,7.39971429 C2.808,6.072 3.27,4.93714286 4.21285714,3.99428571 C5.15571429,3.05142857 6.29057143,2.58942857 7.61828571,2.58942857 L7.61828571,2.58942857 Z" sketch:type="MSShapeGroup"></path>
            </g>
        </g>
    </g>
</svg>