<?xml version="1.0" encoding="UTF-8" standalone="no"?>
<svg width="22px" height="22px" viewBox="0 0 22 22" version="1.1" xmlns="http://www.w3.org/2000/svg" xmlns:xlink="http://www.w3.org/1999/xlink">
    <defs></defs>
    <g id="Page-1" stroke="none" stroke-width="1" fill="none" fill-rule="evenodd">
        <g id="search" fill="#444444">
            <path d="M3,9.53169565 C3,7.70826087 3.65930435,6.19008696 4.92469565,4.92395652 C6.19008696,3.65856522 7.76073913,3 9.53243478,3 C11.3558696,3 12.8740435,3.65856522 14.1401739,4.92395652 C15.4055652,6.19008696 16.0641304,7.76 16.0641304,9.53169565 C16.0641304,10.797087 15.710087,11.9619565 14.9997826,13.075087 L19.0494783,17.1247826 C19.1012174,17.1765217 19.15,17.2777826 19.15,17.3783043 C19.15,17.4788261 19.0982609,17.5305652 19.0494783,17.631087 L17.5823043,19.0982609 C17.5305652,19.15 17.4300435,19.1987826 17.3812609,19.1987826 C17.2807391,19.1987826 17.229,19.1470435 17.1277391,19.0982609 L13.0758261,15.0485652 C12.0114783,15.755913 10.8466087,16.112913 9.53243478,16.112913 C7.709,16.112913 6.19008696,15.4543478 4.92469565,14.1882174 C3.65930435,12.9228261 3,11.352913 3,9.53169565 L3,9.53169565 Z M5.074,9.53169565 C5.074,10.7453478 5.52856522,11.8096957 6.39113043,12.6700435 C7.25443478,13.5296522 8.31582609,13.9871739 9.52947826,13.9871739 C10.7431304,13.9871739 11.8074783,13.5326087 12.6678261,12.6700435 C13.5274348,11.8067391 13.9849565,10.7453478 13.9849565,9.53169565 C13.9849565,8.31804348 13.5303913,7.25369565 12.6678261,6.39408696 C11.8045217,5.53373913 10.7948696,5.07695652 9.52947826,5.07695652 C8.31582609,5.07695652 7.25147826,5.53078261 6.39113043,6.39408696 C5.53152174,7.25665217 5.074,8.31508696 5.074,9.53169565 L5.074,9.53169565 Z" id="Imported-Layers"></path>
        </g>
    </g>
</svg>