<?xml version="1.0" encoding="UTF-8" standalone="no"?>
<svg width="22px" height="22px" viewBox="0 0 22 22" version="1.1" xmlns="http://www.w3.org/2000/svg" xmlns:xlink="http://www.w3.org/1999/xlink">
    <defs></defs>
    <g id="Page-1" stroke="none" stroke-width="1" fill="none" fill-rule="evenodd">
        <g id="settings" fill="#000000">
            <path d="M18.6407061,11.98 C18.6818283,11.66 18.7126699,11.34 18.7126699,11 C18.7126699,10.66 18.6818283,10.34 18.6407061,10.02 L20.8098984,8.37 C21.0052286,8.22 21.0566312,7.95 20.9332648,7.73 L18.8771584,4.27 C18.753792,4.05 18.4762176,3.97 18.2500459,4.05 L15.6901934,5.05 C15.1556057,4.65 14.5798959,4.32 13.9527835,4.07 L13.5621232,1.42 C13.5312816,1.18 13.3153905,1 13.0583772,1 L8.94616426,1 C8.68915096,1 8.47325978,1.18 8.44241818,1.42 L8.05175796,4.07 C7.42464549,4.32 6.84893569,4.66 6.31434801,5.05 L3.75449549,4.05 C3.51804325,3.96 3.25074941,4.05 3.12738302,4.27 L1.07127658,7.73 C0.93762966,7.95 0.999312853,8.22 1.19464297,8.37 L3.36383526,10.02 C3.32271314,10.34 3.29187154,10.67 3.29187154,11 C3.29187154,11.33 3.32271314,11.66 3.36383526,11.98 L1.19464297,13.63 C0.999312853,13.78 0.947910192,14.05 1.07127658,14.27 L3.12738302,17.73 C3.25074941,17.95 3.52832378,18.03 3.75449549,17.95 L6.31434801,16.95 C6.84893569,17.35 7.42464549,17.68 8.05175796,17.93 L8.44241818,20.58 C8.47325978,20.82 8.68915096,21 8.94616426,21 L13.0583772,21 C13.3153905,21 13.5312816,20.82 13.5621232,20.58 L13.9527835,17.93 C14.5798959,17.68 15.1556057,17.34 15.6901934,16.95 L18.2500459,17.95 C18.4864982,18.04 18.753792,17.95 18.8771584,17.73 L20.9332648,14.27 C21.0566312,14.05 21.0052286,13.78 20.8098984,13.63 L18.6407061,11.98 L18.6407061,11.98 Z M11,14.5 C9.07,14.5 7.5,12.93 7.5,11 C7.5,9.07 9.07,7.5 11,7.5 C12.93,7.5 14.5,9.07 14.5,11 C14.5,12.93 12.93,14.5 11,14.5 L11,14.5 Z" id="Shape"></path>
        </g>
    </g>
</svg>