<?xml version="1.0" encoding="UTF-8" standalone="no"?>
<svg width="22px" height="22px" viewBox="0 0 22 22" version="1.1" xmlns="http://www.w3.org/2000/svg" xmlns:xlink="http://www.w3.org/1999/xlink">
    <defs></defs>
    <g id="Page-1" stroke="none" stroke-width="1" fill="none" fill-rule="evenodd">
        <g id="settings" fill="#000000">
            <path d="M18.1593316,11.98 C18.1993316,11.66 18.2293316,11.34 18.2293316,11 C18.2293316,10.66 18.1993316,10.34 18.1593316,10.02 L20.2693316,8.37 C20.4593316,8.22 20.5093316,7.95 20.3893316,7.73 L18.3893316,4.27 C18.2693316,4.05 17.9993316,3.97 17.7793316,4.05 L15.2893316,5.05 C14.7693316,4.65 14.2093316,4.32 13.5993316,4.07 L13.2193316,1.42 C13.1893316,1.18 12.9793316,1 12.7293316,1 L8.7293316,1 C8.4793316,1 8.2693316,1.18 8.2393316,1.42 L7.8593316,4.07 C7.2493316,4.32 6.6893316,4.66 6.1693316,5.05 L3.6793316,4.05 C3.4493316,3.96 3.1893316,4.05 3.0693316,4.27 L1.0693316,7.73 C0.939331604,7.95 0.999331604,8.22 1.1893316,8.37 L3.2993316,10.02 C3.2593316,10.34 3.2293316,10.67 3.2293316,11 C3.2293316,11.33 3.2593316,11.66 3.2993316,11.98 L1.1893316,13.63 C0.999331604,13.78 0.949331604,14.05 1.0693316,14.27 L3.0693316,17.73 C3.1893316,17.95 3.4593316,18.03 3.6793316,17.95 L6.1693316,16.95 C6.6893316,17.35 7.2493316,17.68 7.8593316,17.93 L8.2393316,20.58 C8.2693316,20.82 8.4793316,21 8.7293316,21 L12.7293316,21 C12.9793316,21 13.1893316,20.82 13.2193316,20.58 L13.5993316,17.93 C14.2093316,17.68 14.7693316,17.34 15.2893316,16.95 L17.7793316,17.95 C18.0093316,18.04 18.2693316,17.95 18.3893316,17.73 L20.3893316,14.27 C20.5093316,14.05 20.4593316,13.78 20.2693316,13.63 L18.1593316,11.98 L18.1593316,11.98 Z M10.7293316,14.5 C8.7993316,14.5 7.2293316,12.93 7.2293316,11 C7.2293316,9.07 8.7993316,7.5 10.7293316,7.5 C12.6593316,7.5 14.2293316,9.07 14.2293316,11 C14.2293316,12.93 12.6593316,14.5 10.7293316,14.5 L10.7293316,14.5 Z" id="Shape"></path>
        </g>
    </g>
</svg>