<?xml version="1.0" encoding="UTF-8" standalone="no"?>
<svg width="22px" height="22px" viewBox="0 0 22 22" version="1.1" xmlns="http://www.w3.org/2000/svg" xmlns:xlink="http://www.w3.org/1999/xlink">
    <defs></defs>
    <g id="Page-1" stroke="none" stroke-width="1" fill="none" fill-rule="evenodd">
        <g id="success" fill="#000000">
            <path d="M20,11 C20,15.9705777 15.9705777,20 11,20 C6.02942233,20 2,15.9705777 2,11 C2,6.02942233 6.02942233,2 11,2 C15.9705777,2 20,6.02942233 20,11 L20,11 Z M18.2524272,11 C18.2524272,6.99128641 15.0081456,3.74757282 11,3.74757282 C6.99128641,3.74757282 3.74757282,6.99189806 3.74757282,11 C3.74757282,15.0087136 6.99185437,18.2524272 11,18.2524272 C15.0087136,18.2524272 18.2524272,15.0081019 18.2524272,11 L18.2524272,11 Z M14.5923107,7.13948058 L9.51928155,12.2125097 L7.3218835,10.0145 L5.6924466,11.6442427 L9.51932524,15.4721699 L16.2224903,8.76856796 L14.5923107,7.13948058 L14.5923107,7.13948058 Z" id="check-mark-4-icon"></path>
        </g>
    </g>
</svg>