<?xml version="1.0" encoding="UTF-8" standalone="no"?>
<svg width="22px" height="22px" viewBox="0 0 22 22" version="1.1" xmlns="http://www.w3.org/2000/svg" xmlns:xlink="http://www.w3.org/1999/xlink">
    <defs></defs>
    <g id="Page-1" stroke="none" stroke-width="1" fill="none" fill-rule="evenodd">
        <g id="translation-table" fill="#000000">
            <path d="M10,17.5 L2,17.5 L2,14.5 L10,14.5 L10,17.5 Z M10,9.5 L2,9.5 L2,12.5 L10,12.5 L10,9.5 Z M2,4.47281092 L2,7.52718908 L10,7.52718908 L10,4.47281092 L2,4.47281092 Z M12,4.5 L12,7.5 L20,7.5 L20,4.5 L12,4.5 L12,4.5 Z M12,12.5 L20,12.5 L20,9.5 L12,9.5 L12,12.5 L12,12.5 Z M12,17.5 L20,17.5 L20,14.5 L12,14.5 L12,17.5 L12,17.5 Z" id="menu-2-icon"></path>
        </g>
    </g>
</svg>