<?xml version="1.0" encoding="UTF-8" standalone="no"?>
<svg width="22px" height="22px" viewBox="0 0 22 22" version="1.1" xmlns="http://www.w3.org/2000/svg" xmlns:xlink="http://www.w3.org/1999/xlink">
    <defs></defs>
    <g id="Page-1" stroke="none" stroke-width="1" fill="none" fill-rule="evenodd">
        <g id="upload" fill="#000000">
            <path d="M21,12.5768815 C21,15.0158533 18.9858325,17 16.5101753,17 L14.716261,17 L14.716261,15.0815135 L16.5101753,15.0815135 C17.912074,15.0815135 19.0525803,13.9579519 19.0525803,12.5768815 C19.0525803,10.8784454 17.8930867,9.99910717 16.6582278,9.99440687 C16.5947907,7.16933963 14.6797955,5.91848646 12.8284323,5.91848646 C10.3791626,5.91848646 9.37302824,7.74488557 9.12195716,8.44426981 C8.12341772,7.02545315 5.41324245,8.09664007 5.97487829,9.99574981 C4.29357352,9.69541076 2.94741967,10.942427 2.94741967,12.5768815 C2.94741967,13.9579519 4.08797468,15.0815135 5.53855891,15.0815135 L7.99776047,15.0815135 L7.99776047,17 L5.53855891,17 C3.01411879,17 1,15.0158533 1,12.5768815 C1,10.5908643 2.34182084,8.87770387 4.22069133,8.3340048 C4.74912366,6.55950075 6.64444985,5.51929739 8.45306719,5.99445853 C9.53583252,4.73310164 11.1197176,4 12.828481,4 C15.6091529,4 17.9582278,5.95762359 18.4653359,8.59367195 C20.0039435,9.32284069 21,10.8543684 21,12.5768815 L21,12.5768815 Z M7.77468354,13.3423576 L9.42220058,13.3423576 L9.42220058,17 L13.2920156,17 L13.2920156,13.3423576 L14.9395326,13.3423576 L11.3571568,9.8071626 L7.77468354,13.3423576 L7.77468354,13.3423576 Z" id="upload-11-icon"></path>
        </g>
    </g>
</svg>