<?xml version="1.0" encoding="UTF-8" standalone="no"?>
<svg width="22px" height="22px" viewBox="0 0 22 22" version="1.1" xmlns="http://www.w3.org/2000/svg" xmlns:xlink="http://www.w3.org/1999/xlink">
    <defs></defs>
    <g id="Page-1" stroke="none" stroke-width="1" fill="none" fill-rule="evenodd">
        <g id="warning" fill="#000000">
            <path d="M9.80072816,5.70537864 L12.1992718,5.70537864 L12.1992718,12.9796505 L9.80072816,12.9796505 L9.80072816,5.70537864 L9.80072816,5.70537864 Z M11,16.6441359 C10.2851553,16.6441359 9.70566019,16.0646408 9.70566019,15.3498398 C9.70566019,14.6349951 10.2851553,14.0554563 11,14.0554563 C11.714801,14.0554563 12.2942961,14.6349951 12.2942961,15.3498398 C12.2942961,16.0646408 11.714801,16.6441359 11,16.6441359 L11,16.6441359 Z M11,3.74757282 C15.0081456,3.74757282 18.2524272,6.99128641 18.2524272,11 C18.2524272,15.0081019 15.0087136,18.2524272 11,18.2524272 C6.99185437,18.2524272 3.74757282,15.0087136 3.74757282,11 C3.74757282,6.99189806 6.99128641,3.74757282 11,3.74757282 L11,3.74757282 Z M11,2 C6.02942233,2 2,6.02942233 2,11 C2,15.9705777 6.02942233,20 11,20 C15.9705777,20 20,15.9705777 20,11 C20,6.02942233 15.9705777,2 11,2 L11,2 Z"></path>
        </g>
    </g>
</svg>