<?xml version="1.0" encoding="UTF-8" standalone="no"?>
<svg width="22px" height="22px" viewBox="0 0 22 22" version="1.1" xmlns="http://www.w3.org/2000/svg" xmlns:xlink="http://www.w3.org/1999/xlink" xmlns:sketch="http://www.bohemiancoding.com/sketch/ns">
    <!-- Generator: Sketch 3.3.3 (12081) - http://www.bohemiancoding.com/sketch -->
    <title>xceptor</title>
    <desc>Created with Sketch.</desc>
    <defs></defs>
    <g id="Xceptor-Icons" stroke="none" stroke-width="1" fill="none" fill-rule="evenodd" sketch:type="MSPage">
        <g id="xceptor" sketch:type="MSArtboardGroup" fill="#0A0B09">
            <path d="M6.87137519,13.2039399 C7.21109251,12.751116 8.09032926,12.3573301 8.70980982,12.1801497 C8.96959958,12.1407578 9.20938226,12.0816867 9.46917201,12.0423279 L9.48914551,12.0423279 C9.08947413,10.8806828 8.70980982,9.73875022 8.31017201,8.57713822 C8.78973738,8.04553064 9.22935576,7.59267362 9.46917201,6.80513502 C9.7089547,6.03727579 9.60905364,4.99380616 9.32929039,4.34405622 C8.76976389,2.96587193 7.57078332,1.96172796 5.55252007,2.00111978 C5.41263845,2.02079915 5.29273032,2.04051159 5.15284869,2.04051159 C4.91306601,2.0995497 4.67328332,2.17833333 4.43346707,2.23737143 C3.47430276,2.63115727 2.73491406,3.33994532 2.31526919,4.28498503 C1.37607837,6.450741 2.69496707,8.36053286 4.17371088,9.10871272 C4.5334017,9.28592627 5.03297413,9.48278611 5.57249357,9.46310674 C5.99213845,10.7035024 6.43175682,11.9438649 6.8514017,13.2039399 L6.87137519,13.2039399 L6.87137519,13.2039399 Z M20.6995483,5.95852523 C20.1400218,4.6590915 18.9610483,3.63526817 17.0826331,3.65494753 C16.9028045,3.67465998 16.7429494,3.69433935 16.5630872,3.69433935 C16.3233045,3.75341053 16.1034953,3.81248171 15.8636791,3.89123227 C15.3241596,4.10780456 14.7446596,4.44251921 14.4049423,4.85598442 C14.2850342,5.01348553 14.1651596,5.17098663 14.0452515,5.32848774 C14.005271,5.36787955 13.2059618,5.21037845 13.0660801,5.17098663 C12.0869088,4.97409371 11.0877639,4.79691324 10.1086261,4.60002032 C10.1485731,4.85598442 10.1885536,5.11191545 10.2285006,5.36787955 C10.3484088,6.11602634 10.048672,6.94295676 9.84883632,7.41549315 C11.0677904,7.65174481 12.2867445,7.86831709 13.485725,8.10460183 C13.8054688,9.46310674 14.604778,10.3687877 15.803725,10.8610035 C17.5422586,11.5894709 19.4206402,10.7428611 20.1999759,9.71907085 C20.4597657,9.38435619 20.6995483,8.97089098 20.83943,8.51806704 C21.0792126,7.73052843 20.9793116,6.62795454 20.6995483,5.95852523 L20.6995483,5.95852523 Z M13.6855607,9.99471432 C12.8662445,10.9003953 12.0469618,11.8257556 11.2276455,12.751116 C10.8280077,12.5936149 10.1885536,12.4754725 9.62902714,12.554223 C7.89052714,12.8495459 6.8114547,13.6961557 6.33185576,15.2121948 C5.83228332,16.787272 6.61161901,18.401741 7.47088226,19.0908497 C7.87052007,19.405885 8.33014551,19.6814954 8.86966495,19.8587089 C9.7289282,20.114673 10.8280077,19.9768513 11.5274158,19.6814954 C12.7863169,19.1499209 14.1651596,17.5748437 13.7255077,15.5862682 C13.6455801,15.2318741 13.5257056,14.9168719 13.385824,14.621516 C14.2450872,13.6567969 15.124324,12.6723654 15.9835872,11.7076133 C16.0035607,11.6879339 16.0235678,11.6682214 16.0235678,11.6682214 C15.3441331,11.4122904 14.8245872,11.1366469 14.3050413,10.7231817 C14.065225,10.5066094 13.9253434,10.2112866 13.6855607,9.99471432 L13.6855607,9.99471432 Z" id="Imported-Layers" sketch:type="MSShapeGroup"></path>
        </g>
    </g>
</svg>