<?xml version="1.0" encoding="UTF-8" standalone="no"?>
<svg width="22px" height="22px" viewBox="0 0 22 22" version="1.1" xmlns="http://www.w3.org/2000/svg" xmlns:xlink="http://www.w3.org/1999/xlink">
    <defs></defs>
    <g id="Page-1" stroke="none" stroke-width="1" fill="none" fill-rule="evenodd">
        <g id="xceptor-masked">
            <path d="M0,0 L22,0 L22,22 L0,22 L0,0 Z M10.7263851,12.9106522 C10.3051475,12.7443372 9.63113199,12.6195835 9.04136397,12.702741 C7.2089008,13.0145903 6.0715062,13.9085771 5.5659857,15.509455 C5.03941216,17.1726749 5.86086971,18.877491 6.76657478,19.6051627 C7.18781238,19.9378277 7.67227985,20.2288614 8.24095945,20.415992 C9.14666452,20.6862801 10.3051475,20.5407457 11.0423576,20.2288614 C12.3693002,19.6675396 13.8226672,18.0043197 13.3592528,15.9044619 C13.2750053,15.5302357 13.1486517,15.1976057 13.0012097,14.8857214 C13.9069148,13.8670158 14.8336729,12.8274947 15.7393779,11.8087542 C15.760431,11.7879736 15.7815194,11.767158 15.7815194,11.767158 C15.0653624,11.4969048 14.5177358,11.2058361 13.9701093,10.7692331 C13.7173313,10.5405412 13.5698893,10.2286919 13.3171467,10 C12.4535477,10.9563636 11.5899841,11.9335079 10.7263851,12.9106522 Z M20.7102293,5.68004763 C20.1204613,4.30789649 18.8777661,3.22677915 16.8978256,3.24755979 C16.7082775,3.26837536 16.5397825,3.289156 16.350199,3.289156 C16.0974564,3.35153286 15.8657669,3.41390971 15.612989,3.49706721 C15.0443094,3.72575907 14.4334883,4.07920464 14.0754098,4.51580771 C13.9490208,4.68212271 13.8226672,4.84843771 13.6962783,5.01475271 C13.6541368,5.05634892 12.8116262,4.89003392 12.6641842,4.84843771 C11.6320902,4.64052649 10.5789431,4.45343085 9.54688447,4.24551964 C9.58899054,4.51580771 9.63113199,4.78606085 9.67323806,5.05634892 C9.79962703,5.84636263 9.48368998,6.71956877 9.27305349,7.21854869 C10.5578901,7.46802119 11.8427267,7.69671305 13.1065103,7.94622047 C13.4435357,9.38074847 14.2860463,10.3371121 15.5497945,10.8568727 C17.382293,11.6261057 19.3621982,10.732119 20.1836558,9.65103654 C20.4574867,9.29759097 20.7102293,8.8609879 20.8576713,8.38282354 C21.1104139,7.55121362 21.0051133,6.38693877 20.7102293,5.68004763 Z M8.07246441,12.2498394 C8.34629539,12.2082432 8.59903795,12.1458663 8.87286893,12.104305 C8.47264898,10.8776533 8.07246441,9.67181718 7.65122681,8.4452004 C8.15671193,7.88384362 8.62009098,7.40564434 8.87286893,6.57403441 C9.12561149,5.76320513 9.02031093,4.66134206 8.72542692,3.97523157 C8.1356589,2.51992293 6.87187533,1.45958623 4.74452815,1.50118244 C4.59708615,1.52196308 4.47069717,1.54277865 4.32325517,1.54277865 C4.07051261,1.60512058 3.81777005,1.68831301 3.56499211,1.75065494 C2.55398648,2.16647736 1.774635,2.91492979 1.33230899,3.91285471 C0.342356399,6.1998082 1.73252894,8.21647362 3.29119651,9.00652225 C3.67032804,9.19365282 4.19690158,9.40152911 4.76558119,9.38074847 C5.2079072,10.6905577 5.67128625,12.000332 6.11361227,13.3309218 C6.4927438,12.8527574 7.4195019,12.436935 8.07246441,12.2498394 Z" id="Rectangle-26" fill="#D8D8D8"></path>
            <g id="bottom-+-t-right-+-t-left" transform="translate(1.000000, 1.000000)"></g>
        </g>
    </g>
</svg>