<?xml version="1.0" encoding="UTF-8" standalone="no"?>
<svg width="22px" height="22px" viewBox="0 0 22 22" version="1.1" xmlns="http://www.w3.org/2000/svg" xmlns:xlink="http://www.w3.org/1999/xlink">
    <defs></defs>
    <g id="Page-1" stroke="none" stroke-width="1" fill="none" fill-rule="evenodd">
        <g id="xceptor-copy" fill="#D8D8D8">
            <path d="M9.89998188,4 L13.1260175,4 C13.5700603,2.27477279 15.1361606,1 17,1 C19.209139,1 21,2.790861 21,5 C21,7.209139 19.209139,9 17,9 C15.1361606,9 13.5700603,7.72522721 13.1260175,6 L9.89998188,6 C9.96556974,5.67689006 10,5.34246584 10,5 C10,4.65753416 9.96556974,4.32310994 9.89998188,4 Z" id="bottom"></path>
            <path d="M14.2104417,9.15011848 L12.0843479,13.1487194 C11.7395078,13.0518255 11.3758062,13 11,13 C8.790861,13 7,14.790861 7,17 C7,19.209139 8.790861,21 11,21 C13.209139,21 15,19.209139 15,17 C15,15.8878651 14.5461308,14.881737 13.8135148,14.1567383 L16.0696314,9.91360004 C15.3916749,9.7860201 14.7620166,9.52159783 14.2104417,9.15011848 Z" id="t-right"></path>
            <path d="M9.43846636,12.2486691 L7.38240962,8.21343052 C8.36396519,7.48451693 9,6.31653541 9,5 C9,2.790861 7.209139,1 5,1 C2.790861,1 1,2.790861 1,5 C1,7.209139 2.790861,9 5,9 C5.17670294,9 5.35072975,8.98854214 5.52137801,8.96632886 L7.70051776,13.2431314 C8.20122393,12.8030364 8.7906361,12.461453 9.43846636,12.2486691 Z" id="t-left"></path>
        </g>
    </g>
</svg>