<?xml version="1.0" encoding="UTF-8" standalone="no"?>
<svg width="22px" height="22px" viewBox="0 0 22 22" version="1.1" xmlns="http://www.w3.org/2000/svg" xmlns:xlink="http://www.w3.org/1999/xlink">
    <defs></defs>
    <g id="Page-1" stroke="none" stroke-width="1" fill="none" fill-rule="evenodd">
        <g id="xceptor" fill="#0A0B09">
            <path d="M13.3171467,9.94210525 C12.4535477,10.8984689 11.5899841,11.8756132 10.7263851,12.8527574 C10.3051475,12.6864424 9.63113199,12.5616887 9.04136397,12.6448462 C7.2089008,12.9566956 6.0715062,13.8506824 5.5659857,15.4515603 C5.03941216,17.1147801 5.86086971,18.8195962 6.76657478,19.547268 C7.18781238,19.8799329 7.67227985,20.1709667 8.24095945,20.3580973 C9.14666452,20.6283853 10.3051475,20.482851 11.0423576,20.1709667 C12.3693002,19.6096448 13.8226672,17.946425 13.3592528,15.8465671 C13.2750053,15.4723409 13.1486517,15.1397109 13.0012097,14.8278267 C13.9069148,13.8091211 14.8336729,12.7695999 15.7393779,11.7508595 C15.760431,11.7300788 15.7815194,11.7092632 15.7815194,11.7092632 C15.0653624,11.4390101 14.5177358,11.1479414 13.9701093,10.7113383 C13.7173313,10.4826465 13.5698893,10.1707971 13.3171467,9.94210525 L13.3171467,9.94210525 Z" id="Path-b"></path>
            <path d="M20.7102293,5.68004763 C20.1204613,4.30789649 18.8777661,3.22677915 16.8978256,3.24755979 C16.7082775,3.26837536 16.5397825,3.289156 16.350199,3.289156 C16.0974564,3.35153286 15.8657669,3.41390971 15.612989,3.49706721 C15.0443094,3.72575907 14.4334883,4.07920464 14.0754098,4.51580771 C13.9490208,4.68212271 13.8226672,4.84843771 13.6962783,5.01475271 C13.6541368,5.05634892 12.8116262,4.89003392 12.6641842,4.84843771 C11.6320902,4.64052649 10.5789431,4.45343085 9.54688447,4.24551964 C9.58899054,4.51580771 9.63113199,4.78606085 9.67323806,5.05634892 C9.79962703,5.84636263 9.48368998,6.71956877 9.27305349,7.21854869 C10.5578901,7.46802119 11.8427267,7.69671305 13.1065103,7.94622047 C13.4435357,9.38074847 14.2860463,10.3371121 15.5497945,10.8568727 C17.382293,11.6261057 19.3621982,10.732119 20.1836558,9.65103654 C20.4574867,9.29759097 20.7102293,8.8609879 20.8576713,8.38282354 C21.1104139,7.55121362 21.0051133,6.38693877 20.7102293,5.68004763 L20.7102293,5.68004763 Z" id="Path-tr"></path>
            <path d="M6.1346653,13.3309218 C6.4927438,12.8527574 7.4195019,12.436935 8.07246441,12.2498394 C8.34629539,12.2082432 8.59903795,12.1458663 8.87286893,12.104305 L8.89392196,12.104305 C8.47264898,10.8776533 8.07246441,9.67181718 7.65122681,8.4452004 C8.15671193,7.88384362 8.62009098,7.40564434 8.87286893,6.57403441 C9.12561149,5.76320513 9.02031093,4.66134206 8.72542692,3.97523157 C8.1356589,2.51992293 6.87187533,1.45958623 4.74452815,1.50118244 C4.59708615,1.52196308 4.47069717,1.54277865 4.32325517,1.54277865 C4.07051261,1.60512058 3.81777005,1.68831301 3.56499211,1.75065494 C2.55398648,2.16647736 1.774635,2.91492979 1.33230899,3.91285471 C0.342356399,6.1998082 1.73252894,8.21647362 3.29119651,9.00652225 C3.67032804,9.19365282 4.19690158,9.40152911 4.76558119,9.38074847 C5.2079072,10.6905577 5.67128625,12.000332 6.11361227,13.3309218 L6.1346653,13.3309218 L6.1346653,13.3309218 Z" id="Path-tl"></path>
        </g>
    </g>
</svg>